%TF.GenerationSoftware,KiCad,Pcbnew,9.0.2*%
%TF.CreationDate,2025-10-18T20:22:23+01:00*%
%TF.ProjectId,RISKYX68000,5249534b-5958-4363-9830-30302e6b6963,rev?*%
%TF.SameCoordinates,Original*%
%TF.FileFunction,Soldermask,Top*%
%TF.FilePolarity,Negative*%
%FSLAX46Y46*%
G04 Gerber Fmt 4.6, Leading zero omitted, Abs format (unit mm)*
G04 Created by KiCad (PCBNEW 9.0.2) date 2025-10-18 20:22:23*
%MOMM*%
%LPD*%
G01*
G04 APERTURE LIST*
G04 APERTURE END LIST*
G36*
X125683334Y-109777500D02*
G01*
X123836666Y-109777500D01*
X123836666Y-106297500D01*
X125683334Y-106297500D01*
X125683334Y-109777500D01*
G37*
G36*
X128453334Y-109777500D02*
G01*
X126606666Y-109777500D01*
X126606666Y-106297500D01*
X128453334Y-106297500D01*
X128453334Y-109777500D01*
G37*
G36*
X131223334Y-109777500D02*
G01*
X129376666Y-109777500D01*
X129376666Y-106297500D01*
X131223334Y-106297500D01*
X131223334Y-109777500D01*
G37*
G36*
X133993334Y-109777500D02*
G01*
X132146666Y-109777500D01*
X132146666Y-106297500D01*
X133993334Y-106297500D01*
X133993334Y-109777500D01*
G37*
G36*
X136763334Y-109777500D02*
G01*
X134916666Y-109777500D01*
X134916666Y-106297500D01*
X136763334Y-106297500D01*
X136763334Y-109777500D01*
G37*
G36*
X120514850Y-106155964D02*
G01*
X120565040Y-106161787D01*
X120582189Y-106169359D01*
X120605671Y-106174030D01*
X120630810Y-106190827D01*
X120650696Y-106199608D01*
X120664277Y-106213189D01*
X120686777Y-106228223D01*
X120701810Y-106250722D01*
X120715391Y-106264303D01*
X120724170Y-106284186D01*
X120740970Y-106309329D01*
X120745641Y-106332812D01*
X120753212Y-106349959D01*
X120759033Y-106400139D01*
X120760000Y-106405000D01*
X120760000Y-107055000D01*
X120759032Y-107059863D01*
X120753212Y-107110040D01*
X120745641Y-107127185D01*
X120740970Y-107150671D01*
X120724169Y-107175815D01*
X120715391Y-107195696D01*
X120701812Y-107209274D01*
X120686777Y-107231777D01*
X120664274Y-107246812D01*
X120650696Y-107260391D01*
X120630815Y-107269169D01*
X120605671Y-107285970D01*
X120582185Y-107290641D01*
X120565040Y-107298212D01*
X120514861Y-107304032D01*
X120510000Y-107305000D01*
X119610000Y-107305000D01*
X119605138Y-107304032D01*
X119554959Y-107298212D01*
X119537812Y-107290641D01*
X119514329Y-107285970D01*
X119489186Y-107269170D01*
X119469303Y-107260391D01*
X119455722Y-107246810D01*
X119433223Y-107231777D01*
X119418189Y-107209277D01*
X119404608Y-107195696D01*
X119395827Y-107175810D01*
X119379030Y-107150671D01*
X119374359Y-107127189D01*
X119366787Y-107110040D01*
X119360964Y-107059849D01*
X119360000Y-107055000D01*
X119360000Y-106405000D01*
X119360964Y-106400150D01*
X119366787Y-106349959D01*
X119374359Y-106332808D01*
X119379030Y-106309329D01*
X119395826Y-106284191D01*
X119404608Y-106264303D01*
X119418191Y-106250719D01*
X119433223Y-106228223D01*
X119455719Y-106213191D01*
X119469303Y-106199608D01*
X119489191Y-106190826D01*
X119514329Y-106174030D01*
X119537808Y-106169359D01*
X119554959Y-106161787D01*
X119605151Y-106155964D01*
X119610000Y-106155000D01*
X120510000Y-106155000D01*
X120514850Y-106155964D01*
G37*
G36*
X120514850Y-104105964D02*
G01*
X120565040Y-104111787D01*
X120582189Y-104119359D01*
X120605671Y-104124030D01*
X120630810Y-104140827D01*
X120650696Y-104149608D01*
X120664277Y-104163189D01*
X120686777Y-104178223D01*
X120701810Y-104200722D01*
X120715391Y-104214303D01*
X120724170Y-104234186D01*
X120740970Y-104259329D01*
X120745641Y-104282812D01*
X120753212Y-104299959D01*
X120759033Y-104350139D01*
X120760000Y-104355000D01*
X120760000Y-105005000D01*
X120759032Y-105009863D01*
X120753212Y-105060040D01*
X120745641Y-105077185D01*
X120740970Y-105100671D01*
X120724169Y-105125815D01*
X120715391Y-105145696D01*
X120701812Y-105159274D01*
X120686777Y-105181777D01*
X120664274Y-105196812D01*
X120650696Y-105210391D01*
X120630815Y-105219169D01*
X120605671Y-105235970D01*
X120582185Y-105240641D01*
X120565040Y-105248212D01*
X120514861Y-105254032D01*
X120510000Y-105255000D01*
X119610000Y-105255000D01*
X119605138Y-105254032D01*
X119554959Y-105248212D01*
X119537812Y-105240641D01*
X119514329Y-105235970D01*
X119489186Y-105219170D01*
X119469303Y-105210391D01*
X119455722Y-105196810D01*
X119433223Y-105181777D01*
X119418189Y-105159277D01*
X119404608Y-105145696D01*
X119395827Y-105125810D01*
X119379030Y-105100671D01*
X119374359Y-105077189D01*
X119366787Y-105060040D01*
X119360964Y-105009849D01*
X119360000Y-105005000D01*
X119360000Y-104355000D01*
X119360964Y-104350150D01*
X119366787Y-104299959D01*
X119374359Y-104282808D01*
X119379030Y-104259329D01*
X119395826Y-104234191D01*
X119404608Y-104214303D01*
X119418191Y-104200719D01*
X119433223Y-104178223D01*
X119455719Y-104163191D01*
X119469303Y-104149608D01*
X119489191Y-104140826D01*
X119514329Y-104124030D01*
X119537808Y-104119359D01*
X119554959Y-104111787D01*
X119605151Y-104105964D01*
X119610000Y-104105000D01*
X120510000Y-104105000D01*
X120514850Y-104105964D01*
G37*
G36*
X144796742Y-102026601D02*
G01*
X144950687Y-102090367D01*
X145089234Y-102182941D01*
X145207059Y-102300766D01*
X145299633Y-102439313D01*
X145363399Y-102593258D01*
X145395907Y-102756685D01*
X145395907Y-102923315D01*
X145363399Y-103086742D01*
X145299633Y-103240687D01*
X145207059Y-103379234D01*
X145089234Y-103497059D01*
X144950687Y-103589633D01*
X144796742Y-103653399D01*
X144633315Y-103685907D01*
X144466685Y-103685907D01*
X144303258Y-103653399D01*
X144149313Y-103589633D01*
X144010766Y-103497059D01*
X143892941Y-103379234D01*
X143800367Y-103240687D01*
X143736601Y-103086742D01*
X143704093Y-102923315D01*
X143704093Y-102756685D01*
X143736601Y-102593258D01*
X143800367Y-102439313D01*
X143892941Y-102300766D01*
X144010766Y-102182941D01*
X144149313Y-102090367D01*
X144303258Y-102026601D01*
X144466685Y-101994093D01*
X144633315Y-101994093D01*
X144796742Y-102026601D01*
G37*
G36*
X123083536Y-97998964D02*
G01*
X123085000Y-98002500D01*
X123085000Y-98014435D01*
X123085000Y-99437353D01*
X123120147Y-99472500D01*
X123484565Y-99472500D01*
X123496500Y-99472500D01*
X123500036Y-99473964D01*
X123501500Y-99477500D01*
X123501500Y-102602500D01*
X123500036Y-102606036D01*
X123496500Y-102607500D01*
X123484565Y-102607500D01*
X121775435Y-102607500D01*
X121763500Y-102607500D01*
X121759964Y-102606036D01*
X121758500Y-102602500D01*
X121758500Y-99477500D01*
X121759964Y-99473964D01*
X121763500Y-99472500D01*
X122139853Y-99472500D01*
X122175000Y-99437353D01*
X122175000Y-98014435D01*
X122175000Y-98002500D01*
X122176464Y-97998964D01*
X122180000Y-97997500D01*
X123080000Y-97997500D01*
X123083536Y-97998964D01*
G37*
G36*
X145400000Y-101150000D02*
G01*
X143700000Y-101150000D01*
X143700000Y-99450000D01*
X145400000Y-99450000D01*
X145400000Y-101150000D01*
G37*
G36*
X117075000Y-100850000D02*
G01*
X115375000Y-100850000D01*
X115375000Y-99150000D01*
X117075000Y-99150000D01*
X117075000Y-100850000D01*
G37*
G36*
X121580000Y-99302500D02*
G01*
X120680000Y-99302500D01*
X120680000Y-98002500D01*
X121580000Y-98002500D01*
X121580000Y-99302500D01*
G37*
G36*
X124580000Y-99302500D02*
G01*
X123680000Y-99302500D01*
X123680000Y-98002500D01*
X124580000Y-98002500D01*
X124580000Y-99302500D01*
G37*
G36*
X116471742Y-96646601D02*
G01*
X116625687Y-96710367D01*
X116764234Y-96802941D01*
X116882059Y-96920766D01*
X116974633Y-97059313D01*
X117038399Y-97213258D01*
X117070907Y-97376685D01*
X117070907Y-97543315D01*
X117038399Y-97706742D01*
X116974633Y-97860687D01*
X116882059Y-97999234D01*
X116764234Y-98117059D01*
X116625687Y-98209633D01*
X116471742Y-98273399D01*
X116308315Y-98305907D01*
X116141685Y-98305907D01*
X115978258Y-98273399D01*
X115824313Y-98209633D01*
X115685766Y-98117059D01*
X115567941Y-97999234D01*
X115475367Y-97860687D01*
X115411601Y-97706742D01*
X115379093Y-97543315D01*
X115379093Y-97376685D01*
X115411601Y-97213258D01*
X115475367Y-97059313D01*
X115567941Y-96920766D01*
X115685766Y-96802941D01*
X115824313Y-96710367D01*
X115978258Y-96646601D01*
X116141685Y-96614093D01*
X116308315Y-96614093D01*
X116471742Y-96646601D01*
G37*
G36*
X127093701Y-96083209D02*
G01*
X127118033Y-96099467D01*
X127134291Y-96123799D01*
X127140000Y-96152500D01*
X127140000Y-97477500D01*
X127134291Y-97506201D01*
X127118033Y-97530533D01*
X127093701Y-97546791D01*
X127065000Y-97552500D01*
X126915000Y-97552500D01*
X126886299Y-97546791D01*
X126861967Y-97530533D01*
X126845709Y-97506201D01*
X126840000Y-97477500D01*
X126840000Y-96152500D01*
X126845709Y-96123799D01*
X126861967Y-96099467D01*
X126886299Y-96083209D01*
X126915000Y-96077500D01*
X127065000Y-96077500D01*
X127093701Y-96083209D01*
G37*
G36*
X127593701Y-96083209D02*
G01*
X127618033Y-96099467D01*
X127634291Y-96123799D01*
X127640000Y-96152500D01*
X127640000Y-97477500D01*
X127634291Y-97506201D01*
X127618033Y-97530533D01*
X127593701Y-97546791D01*
X127565000Y-97552500D01*
X127415000Y-97552500D01*
X127386299Y-97546791D01*
X127361967Y-97530533D01*
X127345709Y-97506201D01*
X127340000Y-97477500D01*
X127340000Y-96152500D01*
X127345709Y-96123799D01*
X127361967Y-96099467D01*
X127386299Y-96083209D01*
X127415000Y-96077500D01*
X127565000Y-96077500D01*
X127593701Y-96083209D01*
G37*
G36*
X128093701Y-96083209D02*
G01*
X128118033Y-96099467D01*
X128134291Y-96123799D01*
X128140000Y-96152500D01*
X128140000Y-97477500D01*
X128134291Y-97506201D01*
X128118033Y-97530533D01*
X128093701Y-97546791D01*
X128065000Y-97552500D01*
X127915000Y-97552500D01*
X127886299Y-97546791D01*
X127861967Y-97530533D01*
X127845709Y-97506201D01*
X127840000Y-97477500D01*
X127840000Y-96152500D01*
X127845709Y-96123799D01*
X127861967Y-96099467D01*
X127886299Y-96083209D01*
X127915000Y-96077500D01*
X128065000Y-96077500D01*
X128093701Y-96083209D01*
G37*
G36*
X128593701Y-96083209D02*
G01*
X128618033Y-96099467D01*
X128634291Y-96123799D01*
X128640000Y-96152500D01*
X128640000Y-97477500D01*
X128634291Y-97506201D01*
X128618033Y-97530533D01*
X128593701Y-97546791D01*
X128565000Y-97552500D01*
X128415000Y-97552500D01*
X128386299Y-97546791D01*
X128361967Y-97530533D01*
X128345709Y-97506201D01*
X128340000Y-97477500D01*
X128340000Y-96152500D01*
X128345709Y-96123799D01*
X128361967Y-96099467D01*
X128386299Y-96083209D01*
X128415000Y-96077500D01*
X128565000Y-96077500D01*
X128593701Y-96083209D01*
G37*
G36*
X129093701Y-96083209D02*
G01*
X129118033Y-96099467D01*
X129134291Y-96123799D01*
X129140000Y-96152500D01*
X129140000Y-97477500D01*
X129134291Y-97506201D01*
X129118033Y-97530533D01*
X129093701Y-97546791D01*
X129065000Y-97552500D01*
X128915000Y-97552500D01*
X128886299Y-97546791D01*
X128861967Y-97530533D01*
X128845709Y-97506201D01*
X128840000Y-97477500D01*
X128840000Y-96152500D01*
X128845709Y-96123799D01*
X128861967Y-96099467D01*
X128886299Y-96083209D01*
X128915000Y-96077500D01*
X129065000Y-96077500D01*
X129093701Y-96083209D01*
G37*
G36*
X129593701Y-96083209D02*
G01*
X129618033Y-96099467D01*
X129634291Y-96123799D01*
X129640000Y-96152500D01*
X129640000Y-97477500D01*
X129634291Y-97506201D01*
X129618033Y-97530533D01*
X129593701Y-97546791D01*
X129565000Y-97552500D01*
X129415000Y-97552500D01*
X129386299Y-97546791D01*
X129361967Y-97530533D01*
X129345709Y-97506201D01*
X129340000Y-97477500D01*
X129340000Y-96152500D01*
X129345709Y-96123799D01*
X129361967Y-96099467D01*
X129386299Y-96083209D01*
X129415000Y-96077500D01*
X129565000Y-96077500D01*
X129593701Y-96083209D01*
G37*
G36*
X130093701Y-96083209D02*
G01*
X130118033Y-96099467D01*
X130134291Y-96123799D01*
X130140000Y-96152500D01*
X130140000Y-97477500D01*
X130134291Y-97506201D01*
X130118033Y-97530533D01*
X130093701Y-97546791D01*
X130065000Y-97552500D01*
X129915000Y-97552500D01*
X129886299Y-97546791D01*
X129861967Y-97530533D01*
X129845709Y-97506201D01*
X129840000Y-97477500D01*
X129840000Y-96152500D01*
X129845709Y-96123799D01*
X129861967Y-96099467D01*
X129886299Y-96083209D01*
X129915000Y-96077500D01*
X130065000Y-96077500D01*
X130093701Y-96083209D01*
G37*
G36*
X130593701Y-96083209D02*
G01*
X130618033Y-96099467D01*
X130634291Y-96123799D01*
X130640000Y-96152500D01*
X130640000Y-97477500D01*
X130634291Y-97506201D01*
X130618033Y-97530533D01*
X130593701Y-97546791D01*
X130565000Y-97552500D01*
X130415000Y-97552500D01*
X130386299Y-97546791D01*
X130361967Y-97530533D01*
X130345709Y-97506201D01*
X130340000Y-97477500D01*
X130340000Y-96152500D01*
X130345709Y-96123799D01*
X130361967Y-96099467D01*
X130386299Y-96083209D01*
X130415000Y-96077500D01*
X130565000Y-96077500D01*
X130593701Y-96083209D01*
G37*
G36*
X131093701Y-96083209D02*
G01*
X131118033Y-96099467D01*
X131134291Y-96123799D01*
X131140000Y-96152500D01*
X131140000Y-97477500D01*
X131134291Y-97506201D01*
X131118033Y-97530533D01*
X131093701Y-97546791D01*
X131065000Y-97552500D01*
X130915000Y-97552500D01*
X130886299Y-97546791D01*
X130861967Y-97530533D01*
X130845709Y-97506201D01*
X130840000Y-97477500D01*
X130840000Y-96152500D01*
X130845709Y-96123799D01*
X130861967Y-96099467D01*
X130886299Y-96083209D01*
X130915000Y-96077500D01*
X131065000Y-96077500D01*
X131093701Y-96083209D01*
G37*
G36*
X131593701Y-96083209D02*
G01*
X131618033Y-96099467D01*
X131634291Y-96123799D01*
X131640000Y-96152500D01*
X131640000Y-97477500D01*
X131634291Y-97506201D01*
X131618033Y-97530533D01*
X131593701Y-97546791D01*
X131565000Y-97552500D01*
X131415000Y-97552500D01*
X131386299Y-97546791D01*
X131361967Y-97530533D01*
X131345709Y-97506201D01*
X131340000Y-97477500D01*
X131340000Y-96152500D01*
X131345709Y-96123799D01*
X131361967Y-96099467D01*
X131386299Y-96083209D01*
X131415000Y-96077500D01*
X131565000Y-96077500D01*
X131593701Y-96083209D01*
G37*
G36*
X132093701Y-96083209D02*
G01*
X132118033Y-96099467D01*
X132134291Y-96123799D01*
X132140000Y-96152500D01*
X132140000Y-97477500D01*
X132134291Y-97506201D01*
X132118033Y-97530533D01*
X132093701Y-97546791D01*
X132065000Y-97552500D01*
X131915000Y-97552500D01*
X131886299Y-97546791D01*
X131861967Y-97530533D01*
X131845709Y-97506201D01*
X131840000Y-97477500D01*
X131840000Y-96152500D01*
X131845709Y-96123799D01*
X131861967Y-96099467D01*
X131886299Y-96083209D01*
X131915000Y-96077500D01*
X132065000Y-96077500D01*
X132093701Y-96083209D01*
G37*
G36*
X132593701Y-96083209D02*
G01*
X132618033Y-96099467D01*
X132634291Y-96123799D01*
X132640000Y-96152500D01*
X132640000Y-97477500D01*
X132634291Y-97506201D01*
X132618033Y-97530533D01*
X132593701Y-97546791D01*
X132565000Y-97552500D01*
X132415000Y-97552500D01*
X132386299Y-97546791D01*
X132361967Y-97530533D01*
X132345709Y-97506201D01*
X132340000Y-97477500D01*
X132340000Y-96152500D01*
X132345709Y-96123799D01*
X132361967Y-96099467D01*
X132386299Y-96083209D01*
X132415000Y-96077500D01*
X132565000Y-96077500D01*
X132593701Y-96083209D01*
G37*
G36*
X145600000Y-95870000D02*
G01*
X143900000Y-95870000D01*
X143900000Y-94170000D01*
X145600000Y-94170000D01*
X145600000Y-95870000D01*
G37*
G36*
X126268701Y-95258209D02*
G01*
X126293033Y-95274467D01*
X126309291Y-95298799D01*
X126315000Y-95327500D01*
X126315000Y-95477500D01*
X126309291Y-95506201D01*
X126293033Y-95530533D01*
X126268701Y-95546791D01*
X126240000Y-95552500D01*
X124915000Y-95552500D01*
X124886299Y-95546791D01*
X124861967Y-95530533D01*
X124845709Y-95506201D01*
X124840000Y-95477500D01*
X124840000Y-95327500D01*
X124845709Y-95298799D01*
X124861967Y-95274467D01*
X124886299Y-95258209D01*
X124915000Y-95252500D01*
X126240000Y-95252500D01*
X126268701Y-95258209D01*
G37*
G36*
X134593701Y-95258209D02*
G01*
X134618033Y-95274467D01*
X134634291Y-95298799D01*
X134640000Y-95327500D01*
X134640000Y-95477500D01*
X134634291Y-95506201D01*
X134618033Y-95530533D01*
X134593701Y-95546791D01*
X134565000Y-95552500D01*
X133240000Y-95552500D01*
X133211299Y-95546791D01*
X133186967Y-95530533D01*
X133170709Y-95506201D01*
X133165000Y-95477500D01*
X133165000Y-95327500D01*
X133170709Y-95298799D01*
X133186967Y-95274467D01*
X133211299Y-95258209D01*
X133240000Y-95252500D01*
X134565000Y-95252500D01*
X134593701Y-95258209D01*
G37*
G36*
X126268701Y-94758209D02*
G01*
X126293033Y-94774467D01*
X126309291Y-94798799D01*
X126315000Y-94827500D01*
X126315000Y-94977500D01*
X126309291Y-95006201D01*
X126293033Y-95030533D01*
X126268701Y-95046791D01*
X126240000Y-95052500D01*
X124915000Y-95052500D01*
X124886299Y-95046791D01*
X124861967Y-95030533D01*
X124845709Y-95006201D01*
X124840000Y-94977500D01*
X124840000Y-94827500D01*
X124845709Y-94798799D01*
X124861967Y-94774467D01*
X124886299Y-94758209D01*
X124915000Y-94752500D01*
X126240000Y-94752500D01*
X126268701Y-94758209D01*
G37*
G36*
X134593701Y-94758209D02*
G01*
X134618033Y-94774467D01*
X134634291Y-94798799D01*
X134640000Y-94827500D01*
X134640000Y-94977500D01*
X134634291Y-95006201D01*
X134618033Y-95030533D01*
X134593701Y-95046791D01*
X134565000Y-95052500D01*
X133240000Y-95052500D01*
X133211299Y-95046791D01*
X133186967Y-95030533D01*
X133170709Y-95006201D01*
X133165000Y-94977500D01*
X133165000Y-94827500D01*
X133170709Y-94798799D01*
X133186967Y-94774467D01*
X133211299Y-94758209D01*
X133240000Y-94752500D01*
X134565000Y-94752500D01*
X134593701Y-94758209D01*
G37*
G36*
X126268701Y-94258209D02*
G01*
X126293033Y-94274467D01*
X126309291Y-94298799D01*
X126315000Y-94327500D01*
X126315000Y-94477500D01*
X126309291Y-94506201D01*
X126293033Y-94530533D01*
X126268701Y-94546791D01*
X126240000Y-94552500D01*
X124915000Y-94552500D01*
X124886299Y-94546791D01*
X124861967Y-94530533D01*
X124845709Y-94506201D01*
X124840000Y-94477500D01*
X124840000Y-94327500D01*
X124845709Y-94298799D01*
X124861967Y-94274467D01*
X124886299Y-94258209D01*
X124915000Y-94252500D01*
X126240000Y-94252500D01*
X126268701Y-94258209D01*
G37*
G36*
X134593701Y-94258209D02*
G01*
X134618033Y-94274467D01*
X134634291Y-94298799D01*
X134640000Y-94327500D01*
X134640000Y-94477500D01*
X134634291Y-94506201D01*
X134618033Y-94530533D01*
X134593701Y-94546791D01*
X134565000Y-94552500D01*
X133240000Y-94552500D01*
X133211299Y-94546791D01*
X133186967Y-94530533D01*
X133170709Y-94506201D01*
X133165000Y-94477500D01*
X133165000Y-94327500D01*
X133170709Y-94298799D01*
X133186967Y-94274467D01*
X133211299Y-94258209D01*
X133240000Y-94252500D01*
X134565000Y-94252500D01*
X134593701Y-94258209D01*
G37*
G36*
X126268701Y-93758209D02*
G01*
X126293033Y-93774467D01*
X126309291Y-93798799D01*
X126315000Y-93827500D01*
X126315000Y-93977500D01*
X126309291Y-94006201D01*
X126293033Y-94030533D01*
X126268701Y-94046791D01*
X126240000Y-94052500D01*
X124915000Y-94052500D01*
X124886299Y-94046791D01*
X124861967Y-94030533D01*
X124845709Y-94006201D01*
X124840000Y-93977500D01*
X124840000Y-93827500D01*
X124845709Y-93798799D01*
X124861967Y-93774467D01*
X124886299Y-93758209D01*
X124915000Y-93752500D01*
X126240000Y-93752500D01*
X126268701Y-93758209D01*
G37*
G36*
X134593701Y-93758209D02*
G01*
X134618033Y-93774467D01*
X134634291Y-93798799D01*
X134640000Y-93827500D01*
X134640000Y-93977500D01*
X134634291Y-94006201D01*
X134618033Y-94030533D01*
X134593701Y-94046791D01*
X134565000Y-94052500D01*
X133240000Y-94052500D01*
X133211299Y-94046791D01*
X133186967Y-94030533D01*
X133170709Y-94006201D01*
X133165000Y-93977500D01*
X133165000Y-93827500D01*
X133170709Y-93798799D01*
X133186967Y-93774467D01*
X133211299Y-93758209D01*
X133240000Y-93752500D01*
X134565000Y-93752500D01*
X134593701Y-93758209D01*
G37*
G36*
X126268701Y-93258209D02*
G01*
X126293033Y-93274467D01*
X126309291Y-93298799D01*
X126315000Y-93327500D01*
X126315000Y-93477500D01*
X126309291Y-93506201D01*
X126293033Y-93530533D01*
X126268701Y-93546791D01*
X126240000Y-93552500D01*
X124915000Y-93552500D01*
X124886299Y-93546791D01*
X124861967Y-93530533D01*
X124845709Y-93506201D01*
X124840000Y-93477500D01*
X124840000Y-93327500D01*
X124845709Y-93298799D01*
X124861967Y-93274467D01*
X124886299Y-93258209D01*
X124915000Y-93252500D01*
X126240000Y-93252500D01*
X126268701Y-93258209D01*
G37*
G36*
X134593701Y-93258209D02*
G01*
X134618033Y-93274467D01*
X134634291Y-93298799D01*
X134640000Y-93327500D01*
X134640000Y-93477500D01*
X134634291Y-93506201D01*
X134618033Y-93530533D01*
X134593701Y-93546791D01*
X134565000Y-93552500D01*
X133240000Y-93552500D01*
X133211299Y-93546791D01*
X133186967Y-93530533D01*
X133170709Y-93506201D01*
X133165000Y-93477500D01*
X133165000Y-93327500D01*
X133170709Y-93298799D01*
X133186967Y-93274467D01*
X133211299Y-93258209D01*
X133240000Y-93252500D01*
X134565000Y-93252500D01*
X134593701Y-93258209D01*
G37*
G36*
X144996742Y-91666601D02*
G01*
X145150687Y-91730367D01*
X145289234Y-91822941D01*
X145407059Y-91940766D01*
X145499633Y-92079313D01*
X145563399Y-92233258D01*
X145595907Y-92396685D01*
X145595907Y-92563315D01*
X145563399Y-92726742D01*
X145499633Y-92880687D01*
X145407059Y-93019234D01*
X145289234Y-93137059D01*
X145150687Y-93229633D01*
X144996742Y-93293399D01*
X144833315Y-93325907D01*
X144666685Y-93325907D01*
X144503258Y-93293399D01*
X144349313Y-93229633D01*
X144210766Y-93137059D01*
X144092941Y-93019234D01*
X144000367Y-92880687D01*
X143936601Y-92726742D01*
X143904093Y-92563315D01*
X143904093Y-92396685D01*
X143936601Y-92233258D01*
X144000367Y-92079313D01*
X144092941Y-91940766D01*
X144210766Y-91822941D01*
X144349313Y-91730367D01*
X144503258Y-91666601D01*
X144666685Y-91634093D01*
X144833315Y-91634093D01*
X144996742Y-91666601D01*
G37*
G36*
X126268701Y-92758209D02*
G01*
X126293033Y-92774467D01*
X126309291Y-92798799D01*
X126315000Y-92827500D01*
X126315000Y-92977500D01*
X126309291Y-93006201D01*
X126293033Y-93030533D01*
X126268701Y-93046791D01*
X126240000Y-93052500D01*
X124915000Y-93052500D01*
X124886299Y-93046791D01*
X124861967Y-93030533D01*
X124845709Y-93006201D01*
X124840000Y-92977500D01*
X124840000Y-92827500D01*
X124845709Y-92798799D01*
X124861967Y-92774467D01*
X124886299Y-92758209D01*
X124915000Y-92752500D01*
X126240000Y-92752500D01*
X126268701Y-92758209D01*
G37*
G36*
X134593701Y-92758209D02*
G01*
X134618033Y-92774467D01*
X134634291Y-92798799D01*
X134640000Y-92827500D01*
X134640000Y-92977500D01*
X134634291Y-93006201D01*
X134618033Y-93030533D01*
X134593701Y-93046791D01*
X134565000Y-93052500D01*
X133240000Y-93052500D01*
X133211299Y-93046791D01*
X133186967Y-93030533D01*
X133170709Y-93006201D01*
X133165000Y-92977500D01*
X133165000Y-92827500D01*
X133170709Y-92798799D01*
X133186967Y-92774467D01*
X133211299Y-92758209D01*
X133240000Y-92752500D01*
X134565000Y-92752500D01*
X134593701Y-92758209D01*
G37*
G36*
X126268701Y-92258209D02*
G01*
X126293033Y-92274467D01*
X126309291Y-92298799D01*
X126315000Y-92327500D01*
X126315000Y-92477500D01*
X126309291Y-92506201D01*
X126293033Y-92530533D01*
X126268701Y-92546791D01*
X126240000Y-92552500D01*
X124915000Y-92552500D01*
X124886299Y-92546791D01*
X124861967Y-92530533D01*
X124845709Y-92506201D01*
X124840000Y-92477500D01*
X124840000Y-92327500D01*
X124845709Y-92298799D01*
X124861967Y-92274467D01*
X124886299Y-92258209D01*
X124915000Y-92252500D01*
X126240000Y-92252500D01*
X126268701Y-92258209D01*
G37*
G36*
X134593701Y-92258209D02*
G01*
X134618033Y-92274467D01*
X134634291Y-92298799D01*
X134640000Y-92327500D01*
X134640000Y-92477500D01*
X134634291Y-92506201D01*
X134618033Y-92530533D01*
X134593701Y-92546791D01*
X134565000Y-92552500D01*
X133240000Y-92552500D01*
X133211299Y-92546791D01*
X133186967Y-92530533D01*
X133170709Y-92506201D01*
X133165000Y-92477500D01*
X133165000Y-92327500D01*
X133170709Y-92298799D01*
X133186967Y-92274467D01*
X133211299Y-92258209D01*
X133240000Y-92252500D01*
X134565000Y-92252500D01*
X134593701Y-92258209D01*
G37*
G36*
X117054850Y-90725964D02*
G01*
X117105040Y-90731787D01*
X117122189Y-90739359D01*
X117145671Y-90744030D01*
X117170810Y-90760827D01*
X117190696Y-90769608D01*
X117204277Y-90783189D01*
X117226777Y-90798223D01*
X117241810Y-90820722D01*
X117255391Y-90834303D01*
X117264170Y-90854186D01*
X117280970Y-90879329D01*
X117285641Y-90902812D01*
X117293212Y-90919959D01*
X117299033Y-90970139D01*
X117300000Y-90975000D01*
X117300000Y-91875000D01*
X117299032Y-91879863D01*
X117293212Y-91930040D01*
X117285641Y-91947185D01*
X117280970Y-91970671D01*
X117264169Y-91995815D01*
X117255391Y-92015696D01*
X117241812Y-92029274D01*
X117226777Y-92051777D01*
X117204274Y-92066812D01*
X117190696Y-92080391D01*
X117170815Y-92089169D01*
X117145671Y-92105970D01*
X117122185Y-92110641D01*
X117105040Y-92118212D01*
X117054861Y-92124032D01*
X117050000Y-92125000D01*
X116400000Y-92125000D01*
X116395138Y-92124032D01*
X116344959Y-92118212D01*
X116327812Y-92110641D01*
X116304329Y-92105970D01*
X116279186Y-92089170D01*
X116259303Y-92080391D01*
X116245722Y-92066810D01*
X116223223Y-92051777D01*
X116208189Y-92029277D01*
X116194608Y-92015696D01*
X116185827Y-91995810D01*
X116169030Y-91970671D01*
X116164359Y-91947189D01*
X116156787Y-91930040D01*
X116150964Y-91879849D01*
X116150000Y-91875000D01*
X116150000Y-90975000D01*
X116150964Y-90970150D01*
X116156787Y-90919959D01*
X116164359Y-90902808D01*
X116169030Y-90879329D01*
X116185826Y-90854191D01*
X116194608Y-90834303D01*
X116208191Y-90820719D01*
X116223223Y-90798223D01*
X116245719Y-90783191D01*
X116259303Y-90769608D01*
X116279191Y-90760826D01*
X116304329Y-90744030D01*
X116327808Y-90739359D01*
X116344959Y-90731787D01*
X116395151Y-90725964D01*
X116400000Y-90725000D01*
X117050000Y-90725000D01*
X117054850Y-90725964D01*
G37*
G36*
X119104850Y-90725964D02*
G01*
X119155040Y-90731787D01*
X119172189Y-90739359D01*
X119195671Y-90744030D01*
X119220810Y-90760827D01*
X119240696Y-90769608D01*
X119254277Y-90783189D01*
X119276777Y-90798223D01*
X119291810Y-90820722D01*
X119305391Y-90834303D01*
X119314170Y-90854186D01*
X119330970Y-90879329D01*
X119335641Y-90902812D01*
X119343212Y-90919959D01*
X119349033Y-90970139D01*
X119350000Y-90975000D01*
X119350000Y-91875000D01*
X119349032Y-91879863D01*
X119343212Y-91930040D01*
X119335641Y-91947185D01*
X119330970Y-91970671D01*
X119314169Y-91995815D01*
X119305391Y-92015696D01*
X119291812Y-92029274D01*
X119276777Y-92051777D01*
X119254274Y-92066812D01*
X119240696Y-92080391D01*
X119220815Y-92089169D01*
X119195671Y-92105970D01*
X119172185Y-92110641D01*
X119155040Y-92118212D01*
X119104861Y-92124032D01*
X119100000Y-92125000D01*
X118450000Y-92125000D01*
X118445138Y-92124032D01*
X118394959Y-92118212D01*
X118377812Y-92110641D01*
X118354329Y-92105970D01*
X118329186Y-92089170D01*
X118309303Y-92080391D01*
X118295722Y-92066810D01*
X118273223Y-92051777D01*
X118258189Y-92029277D01*
X118244608Y-92015696D01*
X118235827Y-91995810D01*
X118219030Y-91970671D01*
X118214359Y-91947189D01*
X118206787Y-91930040D01*
X118200964Y-91879849D01*
X118200000Y-91875000D01*
X118200000Y-90975000D01*
X118200964Y-90970150D01*
X118206787Y-90919959D01*
X118214359Y-90902808D01*
X118219030Y-90879329D01*
X118235826Y-90854191D01*
X118244608Y-90834303D01*
X118258191Y-90820719D01*
X118273223Y-90798223D01*
X118295719Y-90783191D01*
X118309303Y-90769608D01*
X118329191Y-90760826D01*
X118354329Y-90744030D01*
X118377808Y-90739359D01*
X118394959Y-90731787D01*
X118445151Y-90725964D01*
X118450000Y-90725000D01*
X119100000Y-90725000D01*
X119104850Y-90725964D01*
G37*
G36*
X126268701Y-91758209D02*
G01*
X126293033Y-91774467D01*
X126309291Y-91798799D01*
X126315000Y-91827500D01*
X126315000Y-91977500D01*
X126309291Y-92006201D01*
X126293033Y-92030533D01*
X126268701Y-92046791D01*
X126240000Y-92052500D01*
X124915000Y-92052500D01*
X124886299Y-92046791D01*
X124861967Y-92030533D01*
X124845709Y-92006201D01*
X124840000Y-91977500D01*
X124840000Y-91827500D01*
X124845709Y-91798799D01*
X124861967Y-91774467D01*
X124886299Y-91758209D01*
X124915000Y-91752500D01*
X126240000Y-91752500D01*
X126268701Y-91758209D01*
G37*
G36*
X134593701Y-91758209D02*
G01*
X134618033Y-91774467D01*
X134634291Y-91798799D01*
X134640000Y-91827500D01*
X134640000Y-91977500D01*
X134634291Y-92006201D01*
X134618033Y-92030533D01*
X134593701Y-92046791D01*
X134565000Y-92052500D01*
X133240000Y-92052500D01*
X133211299Y-92046791D01*
X133186967Y-92030533D01*
X133170709Y-92006201D01*
X133165000Y-91977500D01*
X133165000Y-91827500D01*
X133170709Y-91798799D01*
X133186967Y-91774467D01*
X133211299Y-91758209D01*
X133240000Y-91752500D01*
X134565000Y-91752500D01*
X134593701Y-91758209D01*
G37*
G36*
X126268701Y-91258209D02*
G01*
X126293033Y-91274467D01*
X126309291Y-91298799D01*
X126315000Y-91327500D01*
X126315000Y-91477500D01*
X126309291Y-91506201D01*
X126293033Y-91530533D01*
X126268701Y-91546791D01*
X126240000Y-91552500D01*
X124915000Y-91552500D01*
X124886299Y-91546791D01*
X124861967Y-91530533D01*
X124845709Y-91506201D01*
X124840000Y-91477500D01*
X124840000Y-91327500D01*
X124845709Y-91298799D01*
X124861967Y-91274467D01*
X124886299Y-91258209D01*
X124915000Y-91252500D01*
X126240000Y-91252500D01*
X126268701Y-91258209D01*
G37*
G36*
X134593701Y-91258209D02*
G01*
X134618033Y-91274467D01*
X134634291Y-91298799D01*
X134640000Y-91327500D01*
X134640000Y-91477500D01*
X134634291Y-91506201D01*
X134618033Y-91530533D01*
X134593701Y-91546791D01*
X134565000Y-91552500D01*
X133240000Y-91552500D01*
X133211299Y-91546791D01*
X133186967Y-91530533D01*
X133170709Y-91506201D01*
X133165000Y-91477500D01*
X133165000Y-91327500D01*
X133170709Y-91298799D01*
X133186967Y-91274467D01*
X133211299Y-91258209D01*
X133240000Y-91252500D01*
X134565000Y-91252500D01*
X134593701Y-91258209D01*
G37*
G36*
X126268701Y-90758209D02*
G01*
X126293033Y-90774467D01*
X126309291Y-90798799D01*
X126315000Y-90827500D01*
X126315000Y-90977500D01*
X126309291Y-91006201D01*
X126293033Y-91030533D01*
X126268701Y-91046791D01*
X126240000Y-91052500D01*
X124915000Y-91052500D01*
X124886299Y-91046791D01*
X124861967Y-91030533D01*
X124845709Y-91006201D01*
X124840000Y-90977500D01*
X124840000Y-90827500D01*
X124845709Y-90798799D01*
X124861967Y-90774467D01*
X124886299Y-90758209D01*
X124915000Y-90752500D01*
X126240000Y-90752500D01*
X126268701Y-90758209D01*
G37*
G36*
X134593701Y-90758209D02*
G01*
X134618033Y-90774467D01*
X134634291Y-90798799D01*
X134640000Y-90827500D01*
X134640000Y-90977500D01*
X134634291Y-91006201D01*
X134618033Y-91030533D01*
X134593701Y-91046791D01*
X134565000Y-91052500D01*
X133240000Y-91052500D01*
X133211299Y-91046791D01*
X133186967Y-91030533D01*
X133170709Y-91006201D01*
X133165000Y-90977500D01*
X133165000Y-90827500D01*
X133170709Y-90798799D01*
X133186967Y-90774467D01*
X133211299Y-90758209D01*
X133240000Y-90752500D01*
X134565000Y-90752500D01*
X134593701Y-90758209D01*
G37*
G36*
X144996742Y-89126601D02*
G01*
X145150687Y-89190367D01*
X145289234Y-89282941D01*
X145407059Y-89400766D01*
X145499633Y-89539313D01*
X145563399Y-89693258D01*
X145595907Y-89856685D01*
X145595907Y-90023315D01*
X145563399Y-90186742D01*
X145499633Y-90340687D01*
X145407059Y-90479234D01*
X145289234Y-90597059D01*
X145150687Y-90689633D01*
X144996742Y-90753399D01*
X144833315Y-90785907D01*
X144666685Y-90785907D01*
X144503258Y-90753399D01*
X144349313Y-90689633D01*
X144210766Y-90597059D01*
X144092941Y-90479234D01*
X144000367Y-90340687D01*
X143936601Y-90186742D01*
X143904093Y-90023315D01*
X143904093Y-89856685D01*
X143936601Y-89693258D01*
X144000367Y-89539313D01*
X144092941Y-89400766D01*
X144210766Y-89282941D01*
X144349313Y-89190367D01*
X144503258Y-89126601D01*
X144666685Y-89094093D01*
X144833315Y-89094093D01*
X144996742Y-89126601D01*
G37*
G36*
X126268701Y-90258209D02*
G01*
X126293033Y-90274467D01*
X126309291Y-90298799D01*
X126315000Y-90327500D01*
X126315000Y-90477500D01*
X126309291Y-90506201D01*
X126293033Y-90530533D01*
X126268701Y-90546791D01*
X126240000Y-90552500D01*
X124915000Y-90552500D01*
X124886299Y-90546791D01*
X124861967Y-90530533D01*
X124845709Y-90506201D01*
X124840000Y-90477500D01*
X124840000Y-90327500D01*
X124845709Y-90298799D01*
X124861967Y-90274467D01*
X124886299Y-90258209D01*
X124915000Y-90252500D01*
X126240000Y-90252500D01*
X126268701Y-90258209D01*
G37*
G36*
X134593701Y-90258209D02*
G01*
X134618033Y-90274467D01*
X134634291Y-90298799D01*
X134640000Y-90327500D01*
X134640000Y-90477500D01*
X134634291Y-90506201D01*
X134618033Y-90530533D01*
X134593701Y-90546791D01*
X134565000Y-90552500D01*
X133240000Y-90552500D01*
X133211299Y-90546791D01*
X133186967Y-90530533D01*
X133170709Y-90506201D01*
X133165000Y-90477500D01*
X133165000Y-90327500D01*
X133170709Y-90298799D01*
X133186967Y-90274467D01*
X133211299Y-90258209D01*
X133240000Y-90252500D01*
X134565000Y-90252500D01*
X134593701Y-90258209D01*
G37*
G36*
X126268701Y-89758209D02*
G01*
X126293033Y-89774467D01*
X126309291Y-89798799D01*
X126315000Y-89827500D01*
X126315000Y-89977500D01*
X126309291Y-90006201D01*
X126293033Y-90030533D01*
X126268701Y-90046791D01*
X126240000Y-90052500D01*
X124915000Y-90052500D01*
X124886299Y-90046791D01*
X124861967Y-90030533D01*
X124845709Y-90006201D01*
X124840000Y-89977500D01*
X124840000Y-89827500D01*
X124845709Y-89798799D01*
X124861967Y-89774467D01*
X124886299Y-89758209D01*
X124915000Y-89752500D01*
X126240000Y-89752500D01*
X126268701Y-89758209D01*
G37*
G36*
X134593701Y-89758209D02*
G01*
X134618033Y-89774467D01*
X134634291Y-89798799D01*
X134640000Y-89827500D01*
X134640000Y-89977500D01*
X134634291Y-90006201D01*
X134618033Y-90030533D01*
X134593701Y-90046791D01*
X134565000Y-90052500D01*
X133240000Y-90052500D01*
X133211299Y-90046791D01*
X133186967Y-90030533D01*
X133170709Y-90006201D01*
X133165000Y-89977500D01*
X133165000Y-89827500D01*
X133170709Y-89798799D01*
X133186967Y-89774467D01*
X133211299Y-89758209D01*
X133240000Y-89752500D01*
X134565000Y-89752500D01*
X134593701Y-89758209D01*
G37*
G36*
X117029850Y-88650964D02*
G01*
X117080040Y-88656787D01*
X117097189Y-88664359D01*
X117120671Y-88669030D01*
X117145810Y-88685827D01*
X117165696Y-88694608D01*
X117179277Y-88708189D01*
X117201777Y-88723223D01*
X117216810Y-88745722D01*
X117230391Y-88759303D01*
X117239170Y-88779186D01*
X117255970Y-88804329D01*
X117260641Y-88827812D01*
X117268212Y-88844959D01*
X117274033Y-88895139D01*
X117275000Y-88900000D01*
X117275000Y-89800000D01*
X117274032Y-89804863D01*
X117268212Y-89855040D01*
X117260641Y-89872185D01*
X117255970Y-89895671D01*
X117239169Y-89920815D01*
X117230391Y-89940696D01*
X117216812Y-89954274D01*
X117201777Y-89976777D01*
X117179274Y-89991812D01*
X117165696Y-90005391D01*
X117145815Y-90014169D01*
X117120671Y-90030970D01*
X117097185Y-90035641D01*
X117080040Y-90043212D01*
X117029861Y-90049032D01*
X117025000Y-90050000D01*
X116375000Y-90050000D01*
X116370138Y-90049032D01*
X116319959Y-90043212D01*
X116302812Y-90035641D01*
X116279329Y-90030970D01*
X116254186Y-90014170D01*
X116234303Y-90005391D01*
X116220722Y-89991810D01*
X116198223Y-89976777D01*
X116183189Y-89954277D01*
X116169608Y-89940696D01*
X116160827Y-89920810D01*
X116144030Y-89895671D01*
X116139359Y-89872189D01*
X116131787Y-89855040D01*
X116125964Y-89804849D01*
X116125000Y-89800000D01*
X116125000Y-88900000D01*
X116125964Y-88895150D01*
X116131787Y-88844959D01*
X116139359Y-88827808D01*
X116144030Y-88804329D01*
X116160826Y-88779191D01*
X116169608Y-88759303D01*
X116183191Y-88745719D01*
X116198223Y-88723223D01*
X116220719Y-88708191D01*
X116234303Y-88694608D01*
X116254191Y-88685826D01*
X116279329Y-88669030D01*
X116302808Y-88664359D01*
X116319959Y-88656787D01*
X116370151Y-88650964D01*
X116375000Y-88650000D01*
X117025000Y-88650000D01*
X117029850Y-88650964D01*
G37*
G36*
X119079850Y-88650964D02*
G01*
X119130040Y-88656787D01*
X119147189Y-88664359D01*
X119170671Y-88669030D01*
X119195810Y-88685827D01*
X119215696Y-88694608D01*
X119229277Y-88708189D01*
X119251777Y-88723223D01*
X119266810Y-88745722D01*
X119280391Y-88759303D01*
X119289170Y-88779186D01*
X119305970Y-88804329D01*
X119310641Y-88827812D01*
X119318212Y-88844959D01*
X119324033Y-88895139D01*
X119325000Y-88900000D01*
X119325000Y-89800000D01*
X119324032Y-89804863D01*
X119318212Y-89855040D01*
X119310641Y-89872185D01*
X119305970Y-89895671D01*
X119289169Y-89920815D01*
X119280391Y-89940696D01*
X119266812Y-89954274D01*
X119251777Y-89976777D01*
X119229274Y-89991812D01*
X119215696Y-90005391D01*
X119195815Y-90014169D01*
X119170671Y-90030970D01*
X119147185Y-90035641D01*
X119130040Y-90043212D01*
X119079861Y-90049032D01*
X119075000Y-90050000D01*
X118425000Y-90050000D01*
X118420138Y-90049032D01*
X118369959Y-90043212D01*
X118352812Y-90035641D01*
X118329329Y-90030970D01*
X118304186Y-90014170D01*
X118284303Y-90005391D01*
X118270722Y-89991810D01*
X118248223Y-89976777D01*
X118233189Y-89954277D01*
X118219608Y-89940696D01*
X118210827Y-89920810D01*
X118194030Y-89895671D01*
X118189359Y-89872189D01*
X118181787Y-89855040D01*
X118175964Y-89804849D01*
X118175000Y-89800000D01*
X118175000Y-88900000D01*
X118175964Y-88895150D01*
X118181787Y-88844959D01*
X118189359Y-88827808D01*
X118194030Y-88804329D01*
X118210826Y-88779191D01*
X118219608Y-88759303D01*
X118233191Y-88745719D01*
X118248223Y-88723223D01*
X118270719Y-88708191D01*
X118284303Y-88694608D01*
X118304191Y-88685826D01*
X118329329Y-88669030D01*
X118352808Y-88664359D01*
X118369959Y-88656787D01*
X118420151Y-88650964D01*
X118425000Y-88650000D01*
X119075000Y-88650000D01*
X119079850Y-88650964D01*
G37*
G36*
X127093701Y-87758209D02*
G01*
X127118033Y-87774467D01*
X127134291Y-87798799D01*
X127140000Y-87827500D01*
X127140000Y-89152500D01*
X127134291Y-89181201D01*
X127118033Y-89205533D01*
X127093701Y-89221791D01*
X127065000Y-89227500D01*
X126915000Y-89227500D01*
X126886299Y-89221791D01*
X126861967Y-89205533D01*
X126845709Y-89181201D01*
X126840000Y-89152500D01*
X126840000Y-87827500D01*
X126845709Y-87798799D01*
X126861967Y-87774467D01*
X126886299Y-87758209D01*
X126915000Y-87752500D01*
X127065000Y-87752500D01*
X127093701Y-87758209D01*
G37*
G36*
X127593701Y-87758209D02*
G01*
X127618033Y-87774467D01*
X127634291Y-87798799D01*
X127640000Y-87827500D01*
X127640000Y-89152500D01*
X127634291Y-89181201D01*
X127618033Y-89205533D01*
X127593701Y-89221791D01*
X127565000Y-89227500D01*
X127415000Y-89227500D01*
X127386299Y-89221791D01*
X127361967Y-89205533D01*
X127345709Y-89181201D01*
X127340000Y-89152500D01*
X127340000Y-87827500D01*
X127345709Y-87798799D01*
X127361967Y-87774467D01*
X127386299Y-87758209D01*
X127415000Y-87752500D01*
X127565000Y-87752500D01*
X127593701Y-87758209D01*
G37*
G36*
X128093701Y-87758209D02*
G01*
X128118033Y-87774467D01*
X128134291Y-87798799D01*
X128140000Y-87827500D01*
X128140000Y-89152500D01*
X128134291Y-89181201D01*
X128118033Y-89205533D01*
X128093701Y-89221791D01*
X128065000Y-89227500D01*
X127915000Y-89227500D01*
X127886299Y-89221791D01*
X127861967Y-89205533D01*
X127845709Y-89181201D01*
X127840000Y-89152500D01*
X127840000Y-87827500D01*
X127845709Y-87798799D01*
X127861967Y-87774467D01*
X127886299Y-87758209D01*
X127915000Y-87752500D01*
X128065000Y-87752500D01*
X128093701Y-87758209D01*
G37*
G36*
X128593701Y-87758209D02*
G01*
X128618033Y-87774467D01*
X128634291Y-87798799D01*
X128640000Y-87827500D01*
X128640000Y-89152500D01*
X128634291Y-89181201D01*
X128618033Y-89205533D01*
X128593701Y-89221791D01*
X128565000Y-89227500D01*
X128415000Y-89227500D01*
X128386299Y-89221791D01*
X128361967Y-89205533D01*
X128345709Y-89181201D01*
X128340000Y-89152500D01*
X128340000Y-87827500D01*
X128345709Y-87798799D01*
X128361967Y-87774467D01*
X128386299Y-87758209D01*
X128415000Y-87752500D01*
X128565000Y-87752500D01*
X128593701Y-87758209D01*
G37*
G36*
X129093701Y-87758209D02*
G01*
X129118033Y-87774467D01*
X129134291Y-87798799D01*
X129140000Y-87827500D01*
X129140000Y-89152500D01*
X129134291Y-89181201D01*
X129118033Y-89205533D01*
X129093701Y-89221791D01*
X129065000Y-89227500D01*
X128915000Y-89227500D01*
X128886299Y-89221791D01*
X128861967Y-89205533D01*
X128845709Y-89181201D01*
X128840000Y-89152500D01*
X128840000Y-87827500D01*
X128845709Y-87798799D01*
X128861967Y-87774467D01*
X128886299Y-87758209D01*
X128915000Y-87752500D01*
X129065000Y-87752500D01*
X129093701Y-87758209D01*
G37*
G36*
X129593701Y-87758209D02*
G01*
X129618033Y-87774467D01*
X129634291Y-87798799D01*
X129640000Y-87827500D01*
X129640000Y-89152500D01*
X129634291Y-89181201D01*
X129618033Y-89205533D01*
X129593701Y-89221791D01*
X129565000Y-89227500D01*
X129415000Y-89227500D01*
X129386299Y-89221791D01*
X129361967Y-89205533D01*
X129345709Y-89181201D01*
X129340000Y-89152500D01*
X129340000Y-87827500D01*
X129345709Y-87798799D01*
X129361967Y-87774467D01*
X129386299Y-87758209D01*
X129415000Y-87752500D01*
X129565000Y-87752500D01*
X129593701Y-87758209D01*
G37*
G36*
X130093701Y-87758209D02*
G01*
X130118033Y-87774467D01*
X130134291Y-87798799D01*
X130140000Y-87827500D01*
X130140000Y-89152500D01*
X130134291Y-89181201D01*
X130118033Y-89205533D01*
X130093701Y-89221791D01*
X130065000Y-89227500D01*
X129915000Y-89227500D01*
X129886299Y-89221791D01*
X129861967Y-89205533D01*
X129845709Y-89181201D01*
X129840000Y-89152500D01*
X129840000Y-87827500D01*
X129845709Y-87798799D01*
X129861967Y-87774467D01*
X129886299Y-87758209D01*
X129915000Y-87752500D01*
X130065000Y-87752500D01*
X130093701Y-87758209D01*
G37*
G36*
X130593701Y-87758209D02*
G01*
X130618033Y-87774467D01*
X130634291Y-87798799D01*
X130640000Y-87827500D01*
X130640000Y-89152500D01*
X130634291Y-89181201D01*
X130618033Y-89205533D01*
X130593701Y-89221791D01*
X130565000Y-89227500D01*
X130415000Y-89227500D01*
X130386299Y-89221791D01*
X130361967Y-89205533D01*
X130345709Y-89181201D01*
X130340000Y-89152500D01*
X130340000Y-87827500D01*
X130345709Y-87798799D01*
X130361967Y-87774467D01*
X130386299Y-87758209D01*
X130415000Y-87752500D01*
X130565000Y-87752500D01*
X130593701Y-87758209D01*
G37*
G36*
X131093701Y-87758209D02*
G01*
X131118033Y-87774467D01*
X131134291Y-87798799D01*
X131140000Y-87827500D01*
X131140000Y-89152500D01*
X131134291Y-89181201D01*
X131118033Y-89205533D01*
X131093701Y-89221791D01*
X131065000Y-89227500D01*
X130915000Y-89227500D01*
X130886299Y-89221791D01*
X130861967Y-89205533D01*
X130845709Y-89181201D01*
X130840000Y-89152500D01*
X130840000Y-87827500D01*
X130845709Y-87798799D01*
X130861967Y-87774467D01*
X130886299Y-87758209D01*
X130915000Y-87752500D01*
X131065000Y-87752500D01*
X131093701Y-87758209D01*
G37*
G36*
X131593701Y-87758209D02*
G01*
X131618033Y-87774467D01*
X131634291Y-87798799D01*
X131640000Y-87827500D01*
X131640000Y-89152500D01*
X131634291Y-89181201D01*
X131618033Y-89205533D01*
X131593701Y-89221791D01*
X131565000Y-89227500D01*
X131415000Y-89227500D01*
X131386299Y-89221791D01*
X131361967Y-89205533D01*
X131345709Y-89181201D01*
X131340000Y-89152500D01*
X131340000Y-87827500D01*
X131345709Y-87798799D01*
X131361967Y-87774467D01*
X131386299Y-87758209D01*
X131415000Y-87752500D01*
X131565000Y-87752500D01*
X131593701Y-87758209D01*
G37*
G36*
X132093701Y-87758209D02*
G01*
X132118033Y-87774467D01*
X132134291Y-87798799D01*
X132140000Y-87827500D01*
X132140000Y-89152500D01*
X132134291Y-89181201D01*
X132118033Y-89205533D01*
X132093701Y-89221791D01*
X132065000Y-89227500D01*
X131915000Y-89227500D01*
X131886299Y-89221791D01*
X131861967Y-89205533D01*
X131845709Y-89181201D01*
X131840000Y-89152500D01*
X131840000Y-87827500D01*
X131845709Y-87798799D01*
X131861967Y-87774467D01*
X131886299Y-87758209D01*
X131915000Y-87752500D01*
X132065000Y-87752500D01*
X132093701Y-87758209D01*
G37*
G36*
X132593701Y-87758209D02*
G01*
X132618033Y-87774467D01*
X132634291Y-87798799D01*
X132640000Y-87827500D01*
X132640000Y-89152500D01*
X132634291Y-89181201D01*
X132618033Y-89205533D01*
X132593701Y-89221791D01*
X132565000Y-89227500D01*
X132415000Y-89227500D01*
X132386299Y-89221791D01*
X132361967Y-89205533D01*
X132345709Y-89181201D01*
X132340000Y-89152500D01*
X132340000Y-87827500D01*
X132345709Y-87798799D01*
X132361967Y-87774467D01*
X132386299Y-87758209D01*
X132415000Y-87752500D01*
X132565000Y-87752500D01*
X132593701Y-87758209D01*
G37*
G36*
X135646742Y-86726601D02*
G01*
X135800687Y-86790367D01*
X135939234Y-86882941D01*
X136057059Y-87000766D01*
X136149633Y-87139313D01*
X136213399Y-87293258D01*
X136245907Y-87456685D01*
X136245907Y-87623315D01*
X136213399Y-87786742D01*
X136149633Y-87940687D01*
X136057059Y-88079234D01*
X135939234Y-88197059D01*
X135800687Y-88289633D01*
X135646742Y-88353399D01*
X135483315Y-88385907D01*
X135316685Y-88385907D01*
X135153258Y-88353399D01*
X134999313Y-88289633D01*
X134860766Y-88197059D01*
X134742941Y-88079234D01*
X134650367Y-87940687D01*
X134586601Y-87786742D01*
X134554093Y-87623315D01*
X134554093Y-87456685D01*
X134586601Y-87293258D01*
X134650367Y-87139313D01*
X134742941Y-87000766D01*
X134860766Y-86882941D01*
X134999313Y-86790367D01*
X135153258Y-86726601D01*
X135316685Y-86694093D01*
X135483315Y-86694093D01*
X135646742Y-86726601D01*
G37*
G36*
X144996742Y-86586601D02*
G01*
X145150687Y-86650367D01*
X145289234Y-86742941D01*
X145407059Y-86860766D01*
X145499633Y-86999313D01*
X145563399Y-87153258D01*
X145595907Y-87316685D01*
X145595907Y-87483315D01*
X145563399Y-87646742D01*
X145499633Y-87800687D01*
X145407059Y-87939234D01*
X145289234Y-88057059D01*
X145150687Y-88149633D01*
X144996742Y-88213399D01*
X144833315Y-88245907D01*
X144666685Y-88245907D01*
X144503258Y-88213399D01*
X144349313Y-88149633D01*
X144210766Y-88057059D01*
X144092941Y-87939234D01*
X144000367Y-87800687D01*
X143936601Y-87646742D01*
X143904093Y-87483315D01*
X143904093Y-87316685D01*
X143936601Y-87153258D01*
X144000367Y-86999313D01*
X144092941Y-86860766D01*
X144210766Y-86742941D01*
X144349313Y-86650367D01*
X144503258Y-86586601D01*
X144666685Y-86554093D01*
X144833315Y-86554093D01*
X144996742Y-86586601D01*
G37*
G36*
X117029850Y-86575964D02*
G01*
X117080040Y-86581787D01*
X117097189Y-86589359D01*
X117120671Y-86594030D01*
X117145810Y-86610827D01*
X117165696Y-86619608D01*
X117179277Y-86633189D01*
X117201777Y-86648223D01*
X117216810Y-86670722D01*
X117230391Y-86684303D01*
X117239170Y-86704186D01*
X117255970Y-86729329D01*
X117260641Y-86752812D01*
X117268212Y-86769959D01*
X117274033Y-86820139D01*
X117275000Y-86825000D01*
X117275000Y-87725000D01*
X117274032Y-87729863D01*
X117268212Y-87780040D01*
X117260641Y-87797185D01*
X117255970Y-87820671D01*
X117239169Y-87845815D01*
X117230391Y-87865696D01*
X117216812Y-87879274D01*
X117201777Y-87901777D01*
X117179274Y-87916812D01*
X117165696Y-87930391D01*
X117145815Y-87939169D01*
X117120671Y-87955970D01*
X117097185Y-87960641D01*
X117080040Y-87968212D01*
X117029861Y-87974032D01*
X117025000Y-87975000D01*
X116375000Y-87975000D01*
X116370138Y-87974032D01*
X116319959Y-87968212D01*
X116302812Y-87960641D01*
X116279329Y-87955970D01*
X116254186Y-87939170D01*
X116234303Y-87930391D01*
X116220722Y-87916810D01*
X116198223Y-87901777D01*
X116183189Y-87879277D01*
X116169608Y-87865696D01*
X116160827Y-87845810D01*
X116144030Y-87820671D01*
X116139359Y-87797189D01*
X116131787Y-87780040D01*
X116125964Y-87729849D01*
X116125000Y-87725000D01*
X116125000Y-86825000D01*
X116125964Y-86820150D01*
X116131787Y-86769959D01*
X116139359Y-86752808D01*
X116144030Y-86729329D01*
X116160826Y-86704191D01*
X116169608Y-86684303D01*
X116183191Y-86670719D01*
X116198223Y-86648223D01*
X116220719Y-86633191D01*
X116234303Y-86619608D01*
X116254191Y-86610826D01*
X116279329Y-86594030D01*
X116302808Y-86589359D01*
X116319959Y-86581787D01*
X116370151Y-86575964D01*
X116375000Y-86575000D01*
X117025000Y-86575000D01*
X117029850Y-86575964D01*
G37*
G36*
X119079850Y-86575964D02*
G01*
X119130040Y-86581787D01*
X119147189Y-86589359D01*
X119170671Y-86594030D01*
X119195810Y-86610827D01*
X119215696Y-86619608D01*
X119229277Y-86633189D01*
X119251777Y-86648223D01*
X119266810Y-86670722D01*
X119280391Y-86684303D01*
X119289170Y-86704186D01*
X119305970Y-86729329D01*
X119310641Y-86752812D01*
X119318212Y-86769959D01*
X119324033Y-86820139D01*
X119325000Y-86825000D01*
X119325000Y-87725000D01*
X119324032Y-87729863D01*
X119318212Y-87780040D01*
X119310641Y-87797185D01*
X119305970Y-87820671D01*
X119289169Y-87845815D01*
X119280391Y-87865696D01*
X119266812Y-87879274D01*
X119251777Y-87901777D01*
X119229274Y-87916812D01*
X119215696Y-87930391D01*
X119195815Y-87939169D01*
X119170671Y-87955970D01*
X119147185Y-87960641D01*
X119130040Y-87968212D01*
X119079861Y-87974032D01*
X119075000Y-87975000D01*
X118425000Y-87975000D01*
X118420138Y-87974032D01*
X118369959Y-87968212D01*
X118352812Y-87960641D01*
X118329329Y-87955970D01*
X118304186Y-87939170D01*
X118284303Y-87930391D01*
X118270722Y-87916810D01*
X118248223Y-87901777D01*
X118233189Y-87879277D01*
X118219608Y-87865696D01*
X118210827Y-87845810D01*
X118194030Y-87820671D01*
X118189359Y-87797189D01*
X118181787Y-87780040D01*
X118175964Y-87729849D01*
X118175000Y-87725000D01*
X118175000Y-86825000D01*
X118175964Y-86820150D01*
X118181787Y-86769959D01*
X118189359Y-86752808D01*
X118194030Y-86729329D01*
X118210826Y-86704191D01*
X118219608Y-86684303D01*
X118233191Y-86670719D01*
X118248223Y-86648223D01*
X118270719Y-86633191D01*
X118284303Y-86619608D01*
X118304191Y-86610826D01*
X118329329Y-86594030D01*
X118352808Y-86589359D01*
X118369959Y-86581787D01*
X118420151Y-86575964D01*
X118425000Y-86575000D01*
X119075000Y-86575000D01*
X119079850Y-86575964D01*
G37*
G36*
X117029850Y-84525964D02*
G01*
X117080040Y-84531787D01*
X117097189Y-84539359D01*
X117120671Y-84544030D01*
X117145810Y-84560827D01*
X117165696Y-84569608D01*
X117179277Y-84583189D01*
X117201777Y-84598223D01*
X117216810Y-84620722D01*
X117230391Y-84634303D01*
X117239170Y-84654186D01*
X117255970Y-84679329D01*
X117260641Y-84702812D01*
X117268212Y-84719959D01*
X117274033Y-84770139D01*
X117275000Y-84775000D01*
X117275000Y-85675000D01*
X117274032Y-85679863D01*
X117268212Y-85730040D01*
X117260641Y-85747185D01*
X117255970Y-85770671D01*
X117239169Y-85795815D01*
X117230391Y-85815696D01*
X117216812Y-85829274D01*
X117201777Y-85851777D01*
X117179274Y-85866812D01*
X117165696Y-85880391D01*
X117145815Y-85889169D01*
X117120671Y-85905970D01*
X117097185Y-85910641D01*
X117080040Y-85918212D01*
X117029861Y-85924032D01*
X117025000Y-85925000D01*
X116375000Y-85925000D01*
X116370138Y-85924032D01*
X116319959Y-85918212D01*
X116302812Y-85910641D01*
X116279329Y-85905970D01*
X116254186Y-85889170D01*
X116234303Y-85880391D01*
X116220722Y-85866810D01*
X116198223Y-85851777D01*
X116183189Y-85829277D01*
X116169608Y-85815696D01*
X116160827Y-85795810D01*
X116144030Y-85770671D01*
X116139359Y-85747189D01*
X116131787Y-85730040D01*
X116125964Y-85679849D01*
X116125000Y-85675000D01*
X116125000Y-84775000D01*
X116125964Y-84770150D01*
X116131787Y-84719959D01*
X116139359Y-84702808D01*
X116144030Y-84679329D01*
X116160826Y-84654191D01*
X116169608Y-84634303D01*
X116183191Y-84620719D01*
X116198223Y-84598223D01*
X116220719Y-84583191D01*
X116234303Y-84569608D01*
X116254191Y-84560826D01*
X116279329Y-84544030D01*
X116302808Y-84539359D01*
X116319959Y-84531787D01*
X116370151Y-84525964D01*
X116375000Y-84525000D01*
X117025000Y-84525000D01*
X117029850Y-84525964D01*
G37*
G36*
X119079850Y-84525964D02*
G01*
X119130040Y-84531787D01*
X119147189Y-84539359D01*
X119170671Y-84544030D01*
X119195810Y-84560827D01*
X119215696Y-84569608D01*
X119229277Y-84583189D01*
X119251777Y-84598223D01*
X119266810Y-84620722D01*
X119280391Y-84634303D01*
X119289170Y-84654186D01*
X119305970Y-84679329D01*
X119310641Y-84702812D01*
X119318212Y-84719959D01*
X119324033Y-84770139D01*
X119325000Y-84775000D01*
X119325000Y-85675000D01*
X119324032Y-85679863D01*
X119318212Y-85730040D01*
X119310641Y-85747185D01*
X119305970Y-85770671D01*
X119289169Y-85795815D01*
X119280391Y-85815696D01*
X119266812Y-85829274D01*
X119251777Y-85851777D01*
X119229274Y-85866812D01*
X119215696Y-85880391D01*
X119195815Y-85889169D01*
X119170671Y-85905970D01*
X119147185Y-85910641D01*
X119130040Y-85918212D01*
X119079861Y-85924032D01*
X119075000Y-85925000D01*
X118425000Y-85925000D01*
X118420138Y-85924032D01*
X118369959Y-85918212D01*
X118352812Y-85910641D01*
X118329329Y-85905970D01*
X118304186Y-85889170D01*
X118284303Y-85880391D01*
X118270722Y-85866810D01*
X118248223Y-85851777D01*
X118233189Y-85829277D01*
X118219608Y-85815696D01*
X118210827Y-85795810D01*
X118194030Y-85770671D01*
X118189359Y-85747189D01*
X118181787Y-85730040D01*
X118175964Y-85679849D01*
X118175000Y-85675000D01*
X118175000Y-84775000D01*
X118175964Y-84770150D01*
X118181787Y-84719959D01*
X118189359Y-84702808D01*
X118194030Y-84679329D01*
X118210826Y-84654191D01*
X118219608Y-84634303D01*
X118233191Y-84620719D01*
X118248223Y-84598223D01*
X118270719Y-84583191D01*
X118284303Y-84569608D01*
X118304191Y-84560826D01*
X118329329Y-84544030D01*
X118352808Y-84539359D01*
X118369959Y-84531787D01*
X118420151Y-84525964D01*
X118425000Y-84525000D01*
X119075000Y-84525000D01*
X119079850Y-84525964D01*
G37*
G36*
X136250000Y-85850000D02*
G01*
X134550000Y-85850000D01*
X134550000Y-84150000D01*
X136250000Y-84150000D01*
X136250000Y-85850000D01*
G37*
G36*
X128842348Y-83025964D02*
G01*
X128892540Y-83031787D01*
X128909689Y-83039359D01*
X128933170Y-83044030D01*
X128958307Y-83060826D01*
X128978195Y-83069608D01*
X128991778Y-83083191D01*
X129014276Y-83098224D01*
X129029308Y-83120721D01*
X129042891Y-83134304D01*
X129051671Y-83154189D01*
X129068470Y-83179330D01*
X129073140Y-83202811D01*
X129080712Y-83219959D01*
X129086536Y-83270163D01*
X129087499Y-83275002D01*
X129087499Y-83278458D01*
X129087500Y-83278467D01*
X129087500Y-84150000D01*
X129087500Y-84524999D01*
X129086534Y-84529851D01*
X129080712Y-84580040D01*
X129073141Y-84597185D01*
X129068470Y-84620670D01*
X129051670Y-84645812D01*
X129042891Y-84665695D01*
X129029310Y-84679275D01*
X129014276Y-84701776D01*
X128991775Y-84716810D01*
X128978195Y-84730391D01*
X128958312Y-84739170D01*
X128933170Y-84755970D01*
X128909687Y-84760640D01*
X128892540Y-84768212D01*
X128842336Y-84774036D01*
X128837498Y-84774999D01*
X128834041Y-84774999D01*
X128834033Y-84775000D01*
X127915967Y-84775000D01*
X127915966Y-84774999D01*
X127912501Y-84775000D01*
X127907649Y-84774035D01*
X127857459Y-84768212D01*
X127840312Y-84760640D01*
X127816830Y-84755970D01*
X127791689Y-84739171D01*
X127771804Y-84730391D01*
X127758221Y-84716808D01*
X127735724Y-84701776D01*
X127720691Y-84679278D01*
X127707108Y-84665695D01*
X127698326Y-84645807D01*
X127681530Y-84620670D01*
X127676860Y-84597191D01*
X127669287Y-84580040D01*
X127663463Y-84529836D01*
X127662501Y-84524998D01*
X127662500Y-84521540D01*
X127662500Y-84521532D01*
X127662500Y-83278467D01*
X127662500Y-83278466D01*
X127662500Y-83275001D01*
X127663464Y-83270151D01*
X127669287Y-83219959D01*
X127676859Y-83202808D01*
X127681530Y-83179330D01*
X127698325Y-83154193D01*
X127707108Y-83134304D01*
X127720693Y-83120718D01*
X127735724Y-83098224D01*
X127758218Y-83083193D01*
X127771804Y-83069608D01*
X127791693Y-83060825D01*
X127816830Y-83044030D01*
X127840307Y-83039360D01*
X127857459Y-83031787D01*
X127907665Y-83025963D01*
X127912502Y-83025001D01*
X127915958Y-83025000D01*
X127915967Y-83025000D01*
X128834033Y-83025000D01*
X128837499Y-83025000D01*
X128842348Y-83025964D01*
G37*
G36*
X131817348Y-83025964D02*
G01*
X131867540Y-83031787D01*
X131884689Y-83039359D01*
X131908170Y-83044030D01*
X131933307Y-83060826D01*
X131953195Y-83069608D01*
X131966778Y-83083191D01*
X131989276Y-83098224D01*
X132004308Y-83120721D01*
X132017891Y-83134304D01*
X132026671Y-83154189D01*
X132043470Y-83179330D01*
X132048140Y-83202811D01*
X132055712Y-83219959D01*
X132061536Y-83270163D01*
X132062499Y-83275002D01*
X132062499Y-83278458D01*
X132062500Y-83278467D01*
X132062500Y-84150000D01*
X132062500Y-84524999D01*
X132061534Y-84529851D01*
X132055712Y-84580040D01*
X132048141Y-84597185D01*
X132043470Y-84620670D01*
X132026670Y-84645812D01*
X132017891Y-84665695D01*
X132004310Y-84679275D01*
X131989276Y-84701776D01*
X131966775Y-84716810D01*
X131953195Y-84730391D01*
X131933312Y-84739170D01*
X131908170Y-84755970D01*
X131884687Y-84760640D01*
X131867540Y-84768212D01*
X131817336Y-84774036D01*
X131812498Y-84774999D01*
X131809041Y-84774999D01*
X131809033Y-84775000D01*
X130890967Y-84775000D01*
X130890966Y-84774999D01*
X130887501Y-84775000D01*
X130882649Y-84774035D01*
X130832459Y-84768212D01*
X130815312Y-84760640D01*
X130791830Y-84755970D01*
X130766689Y-84739171D01*
X130746804Y-84730391D01*
X130733221Y-84716808D01*
X130710724Y-84701776D01*
X130695691Y-84679278D01*
X130682108Y-84665695D01*
X130673326Y-84645807D01*
X130656530Y-84620670D01*
X130651860Y-84597191D01*
X130644287Y-84580040D01*
X130638463Y-84529836D01*
X130637501Y-84524998D01*
X130637500Y-84521540D01*
X130637500Y-84521532D01*
X130637500Y-83278467D01*
X130637500Y-83278466D01*
X130637500Y-83275001D01*
X130638464Y-83270151D01*
X130644287Y-83219959D01*
X130651859Y-83202808D01*
X130656530Y-83179330D01*
X130673325Y-83154193D01*
X130682108Y-83134304D01*
X130695693Y-83120718D01*
X130710724Y-83098224D01*
X130733218Y-83083193D01*
X130746804Y-83069608D01*
X130766693Y-83060825D01*
X130791830Y-83044030D01*
X130815307Y-83039360D01*
X130832459Y-83031787D01*
X130882665Y-83025963D01*
X130887502Y-83025001D01*
X130890958Y-83025000D01*
X130890967Y-83025000D01*
X131809033Y-83025000D01*
X131812499Y-83025000D01*
X131817348Y-83025964D01*
G37*
G36*
X117029850Y-82400964D02*
G01*
X117080040Y-82406787D01*
X117097189Y-82414359D01*
X117120671Y-82419030D01*
X117145810Y-82435827D01*
X117165696Y-82444608D01*
X117179277Y-82458189D01*
X117201777Y-82473223D01*
X117216810Y-82495722D01*
X117230391Y-82509303D01*
X117239170Y-82529186D01*
X117255970Y-82554329D01*
X117260641Y-82577812D01*
X117268212Y-82594959D01*
X117274033Y-82645139D01*
X117275000Y-82650000D01*
X117275000Y-83550000D01*
X117274032Y-83554863D01*
X117268212Y-83605040D01*
X117260641Y-83622185D01*
X117255970Y-83645671D01*
X117239169Y-83670815D01*
X117230391Y-83690696D01*
X117216812Y-83704274D01*
X117201777Y-83726777D01*
X117179274Y-83741812D01*
X117165696Y-83755391D01*
X117145815Y-83764169D01*
X117120671Y-83780970D01*
X117097185Y-83785641D01*
X117080040Y-83793212D01*
X117029861Y-83799032D01*
X117025000Y-83800000D01*
X116375000Y-83800000D01*
X116370138Y-83799032D01*
X116319959Y-83793212D01*
X116302812Y-83785641D01*
X116279329Y-83780970D01*
X116254186Y-83764170D01*
X116234303Y-83755391D01*
X116220722Y-83741810D01*
X116198223Y-83726777D01*
X116183189Y-83704277D01*
X116169608Y-83690696D01*
X116160827Y-83670810D01*
X116144030Y-83645671D01*
X116139359Y-83622189D01*
X116131787Y-83605040D01*
X116125964Y-83554849D01*
X116125000Y-83550000D01*
X116125000Y-82650000D01*
X116125964Y-82645150D01*
X116131787Y-82594959D01*
X116139359Y-82577808D01*
X116144030Y-82554329D01*
X116160826Y-82529191D01*
X116169608Y-82509303D01*
X116183191Y-82495719D01*
X116198223Y-82473223D01*
X116220719Y-82458191D01*
X116234303Y-82444608D01*
X116254191Y-82435826D01*
X116279329Y-82419030D01*
X116302808Y-82414359D01*
X116319959Y-82406787D01*
X116370151Y-82400964D01*
X116375000Y-82400000D01*
X117025000Y-82400000D01*
X117029850Y-82400964D01*
G37*
G36*
X119079850Y-82400964D02*
G01*
X119130040Y-82406787D01*
X119147189Y-82414359D01*
X119170671Y-82419030D01*
X119195810Y-82435827D01*
X119215696Y-82444608D01*
X119229277Y-82458189D01*
X119251777Y-82473223D01*
X119266810Y-82495722D01*
X119280391Y-82509303D01*
X119289170Y-82529186D01*
X119305970Y-82554329D01*
X119310641Y-82577812D01*
X119318212Y-82594959D01*
X119324033Y-82645139D01*
X119325000Y-82650000D01*
X119325000Y-83550000D01*
X119324032Y-83554863D01*
X119318212Y-83605040D01*
X119310641Y-83622185D01*
X119305970Y-83645671D01*
X119289169Y-83670815D01*
X119280391Y-83690696D01*
X119266812Y-83704274D01*
X119251777Y-83726777D01*
X119229274Y-83741812D01*
X119215696Y-83755391D01*
X119195815Y-83764169D01*
X119170671Y-83780970D01*
X119147185Y-83785641D01*
X119130040Y-83793212D01*
X119079861Y-83799032D01*
X119075000Y-83800000D01*
X118425000Y-83800000D01*
X118420138Y-83799032D01*
X118369959Y-83793212D01*
X118352812Y-83785641D01*
X118329329Y-83780970D01*
X118304186Y-83764170D01*
X118284303Y-83755391D01*
X118270722Y-83741810D01*
X118248223Y-83726777D01*
X118233189Y-83704277D01*
X118219608Y-83690696D01*
X118210827Y-83670810D01*
X118194030Y-83645671D01*
X118189359Y-83622189D01*
X118181787Y-83605040D01*
X118175964Y-83554849D01*
X118175000Y-83550000D01*
X118175000Y-82650000D01*
X118175964Y-82645150D01*
X118181787Y-82594959D01*
X118189359Y-82577808D01*
X118194030Y-82554329D01*
X118210826Y-82529191D01*
X118219608Y-82509303D01*
X118233191Y-82495719D01*
X118248223Y-82473223D01*
X118270719Y-82458191D01*
X118284303Y-82444608D01*
X118304191Y-82435826D01*
X118329329Y-82419030D01*
X118352808Y-82414359D01*
X118369959Y-82406787D01*
X118420151Y-82400964D01*
X118425000Y-82400000D01*
X119075000Y-82400000D01*
X119079850Y-82400964D01*
G37*
G36*
X145171742Y-79766601D02*
G01*
X145325687Y-79830367D01*
X145464234Y-79922941D01*
X145582059Y-80040766D01*
X145674633Y-80179313D01*
X145738399Y-80333258D01*
X145770907Y-80496685D01*
X145770907Y-80663315D01*
X145738399Y-80826742D01*
X145674633Y-80980687D01*
X145582059Y-81119234D01*
X145464234Y-81237059D01*
X145325687Y-81329633D01*
X145171742Y-81393399D01*
X145008315Y-81425907D01*
X144841685Y-81425907D01*
X144678258Y-81393399D01*
X144524313Y-81329633D01*
X144385766Y-81237059D01*
X144267941Y-81119234D01*
X144175367Y-80980687D01*
X144111601Y-80826742D01*
X144079093Y-80663315D01*
X144079093Y-80496685D01*
X144111601Y-80333258D01*
X144175367Y-80179313D01*
X144267941Y-80040766D01*
X144385766Y-79922941D01*
X144524313Y-79830367D01*
X144678258Y-79766601D01*
X144841685Y-79734093D01*
X145008315Y-79734093D01*
X145171742Y-79766601D01*
G37*
G36*
X145775000Y-78890000D02*
G01*
X144075000Y-78890000D01*
X144075000Y-77190000D01*
X145775000Y-77190000D01*
X145775000Y-78890000D01*
G37*
G36*
X135466850Y-76796464D02*
G01*
X135517040Y-76802287D01*
X135534189Y-76809859D01*
X135557671Y-76814530D01*
X135582810Y-76831327D01*
X135602696Y-76840108D01*
X135616277Y-76853689D01*
X135638777Y-76868723D01*
X135653810Y-76891222D01*
X135667391Y-76904803D01*
X135676170Y-76924686D01*
X135692970Y-76949829D01*
X135697641Y-76973312D01*
X135705212Y-76990459D01*
X135711033Y-77040639D01*
X135712000Y-77045500D01*
X135712000Y-78069500D01*
X135711032Y-78074363D01*
X135705212Y-78124540D01*
X135697641Y-78141685D01*
X135692970Y-78165171D01*
X135676169Y-78190315D01*
X135667391Y-78210196D01*
X135653812Y-78223774D01*
X135638777Y-78246277D01*
X135616274Y-78261312D01*
X135602696Y-78274891D01*
X135582815Y-78283669D01*
X135557671Y-78300470D01*
X135534185Y-78305141D01*
X135517040Y-78312712D01*
X135466861Y-78318532D01*
X135462000Y-78319500D01*
X134438000Y-78319500D01*
X134433138Y-78318532D01*
X134382959Y-78312712D01*
X134365812Y-78305141D01*
X134342329Y-78300470D01*
X134317186Y-78283670D01*
X134297303Y-78274891D01*
X134283722Y-78261310D01*
X134261223Y-78246277D01*
X134246189Y-78223777D01*
X134232608Y-78210196D01*
X134223827Y-78190310D01*
X134207030Y-78165171D01*
X134202359Y-78141689D01*
X134194787Y-78124540D01*
X134188964Y-78074349D01*
X134188000Y-78069500D01*
X134188000Y-77045500D01*
X134188964Y-77040650D01*
X134194787Y-76990459D01*
X134202359Y-76973308D01*
X134207030Y-76949829D01*
X134223826Y-76924691D01*
X134232608Y-76904803D01*
X134246191Y-76891219D01*
X134261223Y-76868723D01*
X134283719Y-76853691D01*
X134297303Y-76840108D01*
X134317191Y-76831326D01*
X134342329Y-76814530D01*
X134365808Y-76809859D01*
X134382959Y-76802287D01*
X134433151Y-76796464D01*
X134438000Y-76795500D01*
X135462000Y-76795500D01*
X135466850Y-76796464D01*
G37*
G36*
X128171197Y-76828311D02*
G01*
X128309204Y-76885476D01*
X128433408Y-76968466D01*
X128539034Y-77074092D01*
X128622024Y-77198296D01*
X128679189Y-77336303D01*
X128708331Y-77482811D01*
X128708331Y-77632189D01*
X128679189Y-77778697D01*
X128622024Y-77916704D01*
X128539034Y-78040908D01*
X128433408Y-78146534D01*
X128309204Y-78229524D01*
X128171197Y-78286689D01*
X128024689Y-78315831D01*
X127875311Y-78315831D01*
X127728803Y-78286689D01*
X127590796Y-78229524D01*
X127466592Y-78146534D01*
X127360966Y-78040908D01*
X127277976Y-77916704D01*
X127220811Y-77778697D01*
X127191669Y-77632189D01*
X127191669Y-77482811D01*
X127220811Y-77336303D01*
X127277976Y-77198296D01*
X127360966Y-77074092D01*
X127466592Y-76968466D01*
X127590796Y-76885476D01*
X127728803Y-76828311D01*
X127875311Y-76799169D01*
X128024689Y-76799169D01*
X128171197Y-76828311D01*
G37*
G36*
X130671197Y-76828311D02*
G01*
X130809204Y-76885476D01*
X130933408Y-76968466D01*
X131039034Y-77074092D01*
X131122024Y-77198296D01*
X131179189Y-77336303D01*
X131208331Y-77482811D01*
X131208331Y-77632189D01*
X131179189Y-77778697D01*
X131122024Y-77916704D01*
X131039034Y-78040908D01*
X130933408Y-78146534D01*
X130809204Y-78229524D01*
X130671197Y-78286689D01*
X130524689Y-78315831D01*
X130375311Y-78315831D01*
X130228803Y-78286689D01*
X130090796Y-78229524D01*
X129966592Y-78146534D01*
X129860966Y-78040908D01*
X129777976Y-77916704D01*
X129720811Y-77778697D01*
X129691669Y-77632189D01*
X129691669Y-77482811D01*
X129720811Y-77336303D01*
X129777976Y-77198296D01*
X129860966Y-77074092D01*
X129966592Y-76968466D01*
X130090796Y-76885476D01*
X130228803Y-76828311D01*
X130375311Y-76799169D01*
X130524689Y-76799169D01*
X130671197Y-76828311D01*
G37*
G36*
X132671197Y-76828311D02*
G01*
X132809204Y-76885476D01*
X132933408Y-76968466D01*
X133039034Y-77074092D01*
X133122024Y-77198296D01*
X133179189Y-77336303D01*
X133208331Y-77482811D01*
X133208331Y-77632189D01*
X133179189Y-77778697D01*
X133122024Y-77916704D01*
X133039034Y-78040908D01*
X132933408Y-78146534D01*
X132809204Y-78229524D01*
X132671197Y-78286689D01*
X132524689Y-78315831D01*
X132375311Y-78315831D01*
X132228803Y-78286689D01*
X132090796Y-78229524D01*
X131966592Y-78146534D01*
X131860966Y-78040908D01*
X131777976Y-77916704D01*
X131720811Y-77778697D01*
X131691669Y-77632189D01*
X131691669Y-77482811D01*
X131720811Y-77336303D01*
X131777976Y-77198296D01*
X131860966Y-77074092D01*
X131966592Y-76968466D01*
X132090796Y-76885476D01*
X132228803Y-76828311D01*
X132375311Y-76799169D01*
X132524689Y-76799169D01*
X132671197Y-76828311D01*
G37*
G36*
X119929850Y-75823464D02*
G01*
X119980040Y-75829287D01*
X119997189Y-75836859D01*
X120020671Y-75841530D01*
X120045810Y-75858327D01*
X120065696Y-75867108D01*
X120079277Y-75880689D01*
X120101777Y-75895723D01*
X120116810Y-75918222D01*
X120130391Y-75931803D01*
X120139170Y-75951686D01*
X120155970Y-75976829D01*
X120160641Y-76000312D01*
X120168212Y-76017459D01*
X120174033Y-76067639D01*
X120175000Y-76072500D01*
X120175000Y-76722500D01*
X120174032Y-76727363D01*
X120168212Y-76777540D01*
X120160641Y-76794685D01*
X120155970Y-76818171D01*
X120139169Y-76843315D01*
X120130391Y-76863196D01*
X120116812Y-76876774D01*
X120101777Y-76899277D01*
X120079274Y-76914312D01*
X120065696Y-76927891D01*
X120045815Y-76936669D01*
X120020671Y-76953470D01*
X119997185Y-76958141D01*
X119980040Y-76965712D01*
X119929861Y-76971532D01*
X119925000Y-76972500D01*
X119025000Y-76972500D01*
X119020138Y-76971532D01*
X118969959Y-76965712D01*
X118952812Y-76958141D01*
X118929329Y-76953470D01*
X118904186Y-76936670D01*
X118884303Y-76927891D01*
X118870722Y-76914310D01*
X118848223Y-76899277D01*
X118833189Y-76876777D01*
X118819608Y-76863196D01*
X118810827Y-76843310D01*
X118794030Y-76818171D01*
X118789359Y-76794689D01*
X118781787Y-76777540D01*
X118775964Y-76727349D01*
X118775000Y-76722500D01*
X118775000Y-76072500D01*
X118775964Y-76067650D01*
X118781787Y-76017459D01*
X118789359Y-76000308D01*
X118794030Y-75976829D01*
X118810826Y-75951691D01*
X118819608Y-75931803D01*
X118833191Y-75918219D01*
X118848223Y-75895723D01*
X118870719Y-75880691D01*
X118884303Y-75867108D01*
X118904191Y-75858326D01*
X118929329Y-75841530D01*
X118952808Y-75836859D01*
X118969959Y-75829287D01*
X119020151Y-75823464D01*
X119025000Y-75822500D01*
X119925000Y-75822500D01*
X119929850Y-75823464D01*
G37*
G36*
X125221408Y-73131126D02*
G01*
X125442519Y-73190372D01*
X125654005Y-73277973D01*
X125852248Y-73392428D01*
X126033855Y-73531780D01*
X126195720Y-73693645D01*
X126335072Y-73875252D01*
X126449527Y-74073495D01*
X126537128Y-74284981D01*
X126596374Y-74506092D01*
X126626253Y-74733045D01*
X126626253Y-74961955D01*
X126596374Y-75188908D01*
X126537128Y-75410019D01*
X126449527Y-75621505D01*
X126335072Y-75819748D01*
X126195720Y-76001355D01*
X126033855Y-76163220D01*
X125852248Y-76302572D01*
X125654005Y-76417027D01*
X125442519Y-76504628D01*
X125221408Y-76563874D01*
X124994455Y-76593753D01*
X124765545Y-76593753D01*
X124538592Y-76563874D01*
X124317481Y-76504628D01*
X124105995Y-76417027D01*
X123907752Y-76302572D01*
X123726145Y-76163220D01*
X123564280Y-76001355D01*
X123424928Y-75819748D01*
X123310473Y-75621505D01*
X123222872Y-75410019D01*
X123163626Y-75188908D01*
X123133747Y-74961955D01*
X123133747Y-74733045D01*
X123163626Y-74506092D01*
X123222872Y-74284981D01*
X123310473Y-74073495D01*
X123424928Y-73875252D01*
X123564280Y-73693645D01*
X123726145Y-73531780D01*
X123907752Y-73392428D01*
X124105995Y-73277973D01*
X124317481Y-73190372D01*
X124538592Y-73131126D01*
X124765545Y-73101247D01*
X124994455Y-73101247D01*
X125221408Y-73131126D01*
G37*
G36*
X138361408Y-73131126D02*
G01*
X138582519Y-73190372D01*
X138794005Y-73277973D01*
X138992248Y-73392428D01*
X139173855Y-73531780D01*
X139335720Y-73693645D01*
X139475072Y-73875252D01*
X139589527Y-74073495D01*
X139677128Y-74284981D01*
X139736374Y-74506092D01*
X139766253Y-74733045D01*
X139766253Y-74961955D01*
X139736374Y-75188908D01*
X139677128Y-75410019D01*
X139589527Y-75621505D01*
X139475072Y-75819748D01*
X139335720Y-76001355D01*
X139173855Y-76163220D01*
X138992248Y-76302572D01*
X138794005Y-76417027D01*
X138582519Y-76504628D01*
X138361408Y-76563874D01*
X138134455Y-76593753D01*
X137905545Y-76593753D01*
X137678592Y-76563874D01*
X137457481Y-76504628D01*
X137245995Y-76417027D01*
X137047752Y-76302572D01*
X136866145Y-76163220D01*
X136704280Y-76001355D01*
X136564928Y-75819748D01*
X136450473Y-75621505D01*
X136362872Y-75410019D01*
X136303626Y-75188908D01*
X136273747Y-74961955D01*
X136273747Y-74733045D01*
X136303626Y-74506092D01*
X136362872Y-74284981D01*
X136450473Y-74073495D01*
X136564928Y-73875252D01*
X136704280Y-73693645D01*
X136866145Y-73531780D01*
X137047752Y-73392428D01*
X137245995Y-73277973D01*
X137457481Y-73190372D01*
X137678592Y-73131126D01*
X137905545Y-73101247D01*
X138134455Y-73101247D01*
X138361408Y-73131126D01*
G37*
G36*
X119929850Y-73773464D02*
G01*
X119980040Y-73779287D01*
X119997189Y-73786859D01*
X120020671Y-73791530D01*
X120045810Y-73808327D01*
X120065696Y-73817108D01*
X120079277Y-73830689D01*
X120101777Y-73845723D01*
X120116810Y-73868222D01*
X120130391Y-73881803D01*
X120139170Y-73901686D01*
X120155970Y-73926829D01*
X120160641Y-73950312D01*
X120168212Y-73967459D01*
X120174033Y-74017639D01*
X120175000Y-74022500D01*
X120175000Y-74672500D01*
X120174032Y-74677363D01*
X120168212Y-74727540D01*
X120160641Y-74744685D01*
X120155970Y-74768171D01*
X120139169Y-74793315D01*
X120130391Y-74813196D01*
X120116812Y-74826774D01*
X120101777Y-74849277D01*
X120079274Y-74864312D01*
X120065696Y-74877891D01*
X120045815Y-74886669D01*
X120020671Y-74903470D01*
X119997185Y-74908141D01*
X119980040Y-74915712D01*
X119929861Y-74921532D01*
X119925000Y-74922500D01*
X119025000Y-74922500D01*
X119020138Y-74921532D01*
X118969959Y-74915712D01*
X118952812Y-74908141D01*
X118929329Y-74903470D01*
X118904186Y-74886670D01*
X118884303Y-74877891D01*
X118870722Y-74864310D01*
X118848223Y-74849277D01*
X118833189Y-74826777D01*
X118819608Y-74813196D01*
X118810827Y-74793310D01*
X118794030Y-74768171D01*
X118789359Y-74744689D01*
X118781787Y-74727540D01*
X118775964Y-74677349D01*
X118775000Y-74672500D01*
X118775000Y-74022500D01*
X118775964Y-74017650D01*
X118781787Y-73967459D01*
X118789359Y-73950308D01*
X118794030Y-73926829D01*
X118810826Y-73901691D01*
X118819608Y-73881803D01*
X118833191Y-73868219D01*
X118848223Y-73845723D01*
X118870719Y-73830691D01*
X118884303Y-73817108D01*
X118904191Y-73808326D01*
X118929329Y-73791530D01*
X118952808Y-73786859D01*
X118969959Y-73779287D01*
X119020151Y-73773464D01*
X119025000Y-73772500D01*
X119925000Y-73772500D01*
X119929850Y-73773464D01*
G37*
M02*
