M48
; DRILL file {KiCad 9.0.2} date 2025-10-18T20:22:21+0100
; FORMAT={-:-/ absolute / inch / decimal}
; #@! TF.CreationDate,2025-10-18T20:22:21+01:00
; #@! TF.GenerationSoftware,Kicad,Pcbnew,9.0.2
; #@! TF.FileFunction,Plated,1,4,PTH
FMAT,2
INCH
; #@! TA.AperFunction,Plated,PTH,ViaDrill
T1C0.0118
; #@! TA.AperFunction,Plated,PTH,ViaDrill
T2C0.0157
; #@! TA.AperFunction,Plated,PTH,ComponentDrill
T3C0.0362
; #@! TA.AperFunction,Plated,PTH,ComponentDrill
T4C0.0394
; #@! TA.AperFunction,Plated,PTH,ComponentDrill
T5C0.0906
%
G90
G05
T1
X4.5217Y-3.5207
X4.5221Y-3.2697
X4.5221Y-3.3533
X4.5226Y-3.5994
X4.5236Y-3.436
X4.622Y-3.435
X4.623Y-3.2717
X4.6235Y-3.5177
X4.6235Y-3.6014
X4.624Y-3.3504
X4.7028Y-2.8543
X4.7037Y-2.9281
X4.7303Y-4.1193
X4.769Y-3.9029
X4.8002Y-4.1201
X4.8159Y-3.6178
X4.8268Y-3.8189
X4.828Y-3.8874
X4.8453Y-3.6178
X4.8628Y-3.4787
X4.8684Y-3.5116
X4.8739Y-3.6178
X4.8778Y-3.5484
X4.885Y-3.8849
X4.8917Y-3.6604
X4.8929Y-3.5792
X4.9026Y-3.6182
X4.9675Y-4.1329
X5.0042Y-3.5569
X5.0172Y-3.616
X5.0172Y-3.6878
X5.0193Y-3.4256
X5.0354Y-3.8868
X5.0422Y-3.5316
X5.0472Y-3.4016
X5.0535Y-3.3
X5.0659Y-4.0118
X5.0669Y-3.4281
X5.0679Y-3.8701
X5.0706Y-3.7663
X5.0984Y-3.8711
X5.0992Y-3.7658
X5.1014Y-3.9852
X5.1416Y-3.8664
X5.1457Y-3.7362
X5.1769Y-3.8704
X5.1959Y-3.436
X5.2002Y-3.5559
X5.2116Y-3.8661
X5.2152Y-3.7729
X5.2539Y-3.3268
X5.2935Y-4.1604
X5.2935Y-4.244
X5.3219Y-3.5482
T2
X5.3612Y-4.0384
T3
X5.0374Y-3.0534
X5.1358Y-3.0534
X5.2146Y-3.0534
X5.313Y-3.0534
T4
X4.5758Y-3.837
X4.5758Y-3.937
X5.3307Y-3.3465
X5.3307Y-3.4465
X5.6909Y-3.9488
X5.6909Y-4.0488
X5.6988Y-3.4409
X5.6988Y-3.5409
X5.6988Y-3.6409
X5.6988Y-3.7409
X5.7057Y-3.0724
X5.7057Y-3.1724
T5
X4.9165Y-2.9468
X5.4339Y-2.9468
M30
