%TF.GenerationSoftware,KiCad,Pcbnew,9.0.2*%
%TF.CreationDate,2025-10-18T20:22:23+01:00*%
%TF.ProjectId,RISKYX68000,5249534b-5958-4363-9830-30302e6b6963,rev?*%
%TF.SameCoordinates,Original*%
%TF.FileFunction,Copper,L4,Bot*%
%TF.FilePolarity,Positive*%
%FSLAX46Y46*%
G04 Gerber Fmt 4.6, Leading zero omitted, Abs format (unit mm)*
G04 Created by KiCad (PCBNEW 9.0.2) date 2025-10-18 20:22:23*
%MOMM*%
%LPD*%
G01*
G04 APERTURE LIST*
G04 Aperture macros list*
%AMRoundRect*
0 Rectangle with rounded corners*
0 $1 Rounding radius*
0 $2 $3 $4 $5 $6 $7 $8 $9 X,Y pos of 4 corners*
0 Add a 4 corners polygon primitive as box body*
4,1,4,$2,$3,$4,$5,$6,$7,$8,$9,$2,$3,0*
0 Add four circle primitives for the rounded corners*
1,1,$1+$1,$2,$3*
1,1,$1+$1,$4,$5*
1,1,$1+$1,$6,$7*
1,1,$1+$1,$8,$9*
0 Add four rect primitives between the rounded corners*
20,1,$1+$1,$2,$3,$4,$5,0*
20,1,$1+$1,$4,$5,$6,$7,0*
20,1,$1+$1,$6,$7,$8,$9,0*
20,1,$1+$1,$8,$9,$2,$3,0*%
G04 Aperture macros list end*
%TA.AperFunction,SMDPad,CuDef*%
%ADD10RoundRect,0.237500X-0.300000X-0.237500X0.300000X-0.237500X0.300000X0.237500X-0.300000X0.237500X0*%
%TD*%
%TA.AperFunction,ComponentPad*%
%ADD11R,1.700000X1.700000*%
%TD*%
%TA.AperFunction,ComponentPad*%
%ADD12C,1.700000*%
%TD*%
%TA.AperFunction,ComponentPad*%
%ADD13RoundRect,0.250000X0.512000X0.512000X-0.512000X0.512000X-0.512000X-0.512000X0.512000X-0.512000X0*%
%TD*%
%TA.AperFunction,ComponentPad*%
%ADD14C,1.524000*%
%TD*%
%TA.AperFunction,ComponentPad*%
%ADD15C,3.500000*%
%TD*%
%TA.AperFunction,SMDPad,CuDef*%
%ADD16R,1.846667X3.480000*%
%TD*%
%TA.AperFunction,ComponentPad*%
%ADD17O,1.700000X1.700000*%
%TD*%
%TA.AperFunction,SMDPad,CuDef*%
%ADD18RoundRect,0.237500X-0.250000X-0.237500X0.250000X-0.237500X0.250000X0.237500X-0.250000X0.237500X0*%
%TD*%
%TA.AperFunction,SMDPad,CuDef*%
%ADD19RoundRect,0.237500X0.250000X0.237500X-0.250000X0.237500X-0.250000X-0.237500X0.250000X-0.237500X0*%
%TD*%
%TA.AperFunction,SMDPad,CuDef*%
%ADD20RoundRect,0.237500X0.237500X-0.250000X0.237500X0.250000X-0.237500X0.250000X-0.237500X-0.250000X0*%
%TD*%
%TA.AperFunction,SMDPad,CuDef*%
%ADD21RoundRect,0.237500X-0.237500X0.300000X-0.237500X-0.300000X0.237500X-0.300000X0.237500X0.300000X0*%
%TD*%
%TA.AperFunction,SMDPad,CuDef*%
%ADD22RoundRect,0.237500X0.300000X0.237500X-0.300000X0.237500X-0.300000X-0.237500X0.300000X-0.237500X0*%
%TD*%
%TA.AperFunction,ViaPad*%
%ADD23C,0.600000*%
%TD*%
%TA.AperFunction,ViaPad*%
%ADD24C,0.900000*%
%TD*%
%TA.AperFunction,Conductor*%
%ADD25C,0.127000*%
%TD*%
%TA.AperFunction,Conductor*%
%ADD26C,0.200000*%
%TD*%
%TA.AperFunction,Conductor*%
%ADD27C,0.600000*%
%TD*%
G04 APERTURE END LIST*
D10*
%TO.P,C2,1*%
%TO.N,+3.3V*%
X127209700Y-90294000D03*
%TO.P,C2,2*%
%TO.N,GND*%
X128934700Y-90294000D03*
%TD*%
D11*
%TO.P,J7,1,Pin_1*%
%TO.N,/PB9*%
X144750000Y-95020000D03*
D12*
%TO.P,J7,2,Pin_2*%
%TO.N,/PB8*%
X144750000Y-92480000D03*
%TO.P,J7,3,Pin_3*%
%TO.N,/PB3*%
X144750000Y-89940000D03*
%TO.P,J7,4,Pin_4*%
%TO.N,/PA15*%
X144750000Y-87400000D03*
%TD*%
D11*
%TO.P,J5,1,Pin_1*%
%TO.N,/USART2_RX*%
X116225000Y-100000000D03*
D12*
%TO.P,J5,2,Pin_2*%
%TO.N,/USART2_TX*%
X116225000Y-97460000D03*
%TD*%
D11*
%TO.P,J4,1,Pin_1*%
%TO.N,/USART1_RX*%
X144925000Y-78040000D03*
D12*
%TO.P,J4,2,Pin_2*%
%TO.N,/USART1_TX*%
X144925000Y-80580000D03*
%TD*%
D13*
%TO.P,J3,1,VBUS*%
%TO.N,Net-(J3-VBUS)*%
X134950000Y-77557500D03*
D14*
%TO.P,J3,2,D-*%
%TO.N,/USB_DM*%
X132450000Y-77557500D03*
%TO.P,J3,3,D+*%
%TO.N,/USB_DP*%
X130450000Y-77557500D03*
%TO.P,J3,4,GND*%
%TO.N,GND*%
X127950000Y-77557500D03*
D15*
%TO.P,J3,5,Shield*%
X138020000Y-74847500D03*
X124880000Y-74847500D03*
%TD*%
D16*
%TO.P,J1,6,6*%
%TO.N,/PIN6*%
X126145000Y-108037500D03*
%TO.P,J1,7,7*%
%TO.N,/PIN7*%
X128915000Y-108037500D03*
%TO.P,J1,8,8*%
%TO.N,/PIN8*%
X131685000Y-108037500D03*
%TO.P,J1,9,9*%
%TO.N,GND*%
X134455000Y-108037500D03*
%TD*%
D11*
%TO.P,J6,1,Pin_1*%
%TO.N,/USART3_RX*%
X144550000Y-100300000D03*
D12*
%TO.P,J6,2,Pin_2*%
%TO.N,/USART3_TX*%
X144550000Y-102840000D03*
%TD*%
D11*
%TO.P,J2,1,Pin_1*%
%TO.N,/SWCLK*%
X135400000Y-85000000D03*
D17*
%TO.P,J2,2,Pin_2*%
%TO.N,/SWDIO*%
X135400000Y-87540000D03*
%TD*%
D18*
%TO.P,R1,1*%
%TO.N,Net-(D1-A)*%
X120080000Y-104720000D03*
%TO.P,R1,2*%
%TO.N,+3.3V*%
X121905000Y-104720000D03*
%TD*%
D19*
%TO.P,R5,1*%
%TO.N,Net-(D4-A)*%
X116675000Y-89425000D03*
%TO.P,R5,2*%
%TO.N,+3.3V*%
X114850000Y-89425000D03*
%TD*%
%TO.P,R4,1*%
%TO.N,Net-(D3-A)*%
X116700000Y-91425000D03*
%TO.P,R4,2*%
%TO.N,+3.3V*%
X114875000Y-91425000D03*
%TD*%
%TO.P,R7,1*%
%TO.N,Net-(D6-A)*%
X116687500Y-85175000D03*
%TO.P,R7,2*%
%TO.N,+3.3V*%
X114862500Y-85175000D03*
%TD*%
%TO.P,R6,1*%
%TO.N,Net-(D5-A)*%
X116725000Y-87275000D03*
%TO.P,R6,2*%
%TO.N,+3.3V*%
X114900000Y-87275000D03*
%TD*%
%TO.P,R8,1*%
%TO.N,Net-(D7-A)*%
X116687500Y-83050000D03*
%TO.P,R8,2*%
%TO.N,+3.3V*%
X114862500Y-83050000D03*
%TD*%
D20*
%TO.P,R3,1*%
%TO.N,Net-(D2-A)*%
X119450000Y-74287500D03*
%TO.P,R3,2*%
%TO.N,+3.3V*%
X119450000Y-72462500D03*
%TD*%
D21*
%TO.P,C4,1*%
%TO.N,+5V*%
X120990000Y-99265000D03*
%TO.P,C4,2*%
%TO.N,GND*%
X120990000Y-100990000D03*
%TD*%
D22*
%TO.P,C1,1*%
%TO.N,+3.3V*%
X124308400Y-96981500D03*
%TO.P,C1,2*%
%TO.N,GND*%
X122583400Y-96981500D03*
%TD*%
%TO.P,C6,1*%
%TO.N,+3.3V*%
X132439900Y-94891400D03*
%TO.P,C6,2*%
%TO.N,GND*%
X130714900Y-94891400D03*
%TD*%
D21*
%TO.P,C3,1*%
%TO.N,+3.3V*%
X132136200Y-90345900D03*
%TO.P,C3,2*%
%TO.N,GND*%
X132136200Y-92070900D03*
%TD*%
%TO.P,C5,1*%
%TO.N,+3.3V*%
X127513400Y-95248100D03*
%TO.P,C5,2*%
%TO.N,GND*%
X127513400Y-96973100D03*
%TD*%
D20*
%TO.P,R2,1*%
%TO.N,+3.3V*%
X127437200Y-93670300D03*
%TO.P,R2,2*%
%TO.N,/NRST*%
X127437200Y-91845300D03*
%TD*%
D21*
%TO.P,C9,1*%
%TO.N,/NRST*%
X128910400Y-91895300D03*
%TO.P,C9,2*%
%TO.N,GND*%
X128910400Y-93620300D03*
%TD*%
D23*
%TO.N,+3.3V*%
X122630000Y-98740000D03*
X114850000Y-89425000D03*
X114862500Y-83050000D03*
X114875000Y-91425000D03*
X132085400Y-90319400D03*
X114900000Y-87275000D03*
X114862500Y-85175000D03*
X119450000Y-72500000D03*
X132466400Y-95831200D03*
X121925000Y-104650000D03*
X127107000Y-90344800D03*
X127437200Y-93670300D03*
%TO.N,GND*%
X128700000Y-87075000D03*
X132375000Y-98200000D03*
X124077800Y-98676900D03*
X124250000Y-92975000D03*
X134455000Y-105675000D03*
X127490000Y-87010000D03*
X134455000Y-107797500D03*
X127900000Y-98725000D03*
X135175000Y-90125000D03*
X122600000Y-97000000D03*
X130700000Y-94900000D03*
%TO.N,+5V*%
X121131400Y-99134100D03*
X128360000Y-83820000D03*
D24*
X136175000Y-102575000D03*
D23*
%TO.N,/NRST*%
X127437200Y-91845300D03*
%TO.N,/PIN6*%
X126175000Y-104975000D03*
%TO.N,Net-(D1-A)*%
X120150000Y-104630000D03*
%TO.N,Net-(D3-A)*%
X117437500Y-91475000D03*
%TO.N,Net-(D4-A)*%
X117437500Y-89350000D03*
%TO.N,/LED3*%
X124278522Y-90912001D03*
X124525000Y-91902500D03*
%TO.N,Net-(D5-A)*%
X117400000Y-87250000D03*
%TO.N,/LED4*%
X123896836Y-90128164D03*
X123798062Y-91893000D03*
%TO.N,/LED5*%
X123656172Y-89193828D03*
X123071059Y-91893000D03*
%TO.N,Net-(D6-A)*%
X117450000Y-85100000D03*
%TO.N,/LED6*%
X123515508Y-88359492D03*
X122325000Y-91893000D03*
%TO.N,Net-(D7-A)*%
X117425000Y-83100000D03*
%TO.N,/PIN7*%
X128793924Y-95664839D03*
X128675000Y-101900000D03*
X128725000Y-98300000D03*
%TO.N,Net-(D2-A)*%
X119475000Y-74375000D03*
%TO.N,/PIN8*%
X129500000Y-98325000D03*
X129575000Y-101225000D03*
X129520783Y-95650437D03*
%TO.N,/USART3_RX*%
X131492457Y-98307543D03*
%TO.N,/USART3_TX*%
X130596512Y-98206366D03*
%TO.N,/PB8*%
X128200000Y-86400000D03*
%TO.N,/PB3*%
X133450000Y-84500000D03*
%TO.N,/PA15*%
X131975000Y-87275000D03*
%TO.N,/PB9*%
X128072201Y-89702272D03*
%TD*%
D25*
%TO.N,+3.3V*%
X127437200Y-93670300D02*
X127437200Y-95171900D01*
X127437200Y-95171900D02*
X127513400Y-95248100D01*
%TO.N,/USART3_RX*%
X131492457Y-98307543D02*
X132160414Y-98975500D01*
X132160414Y-98975500D02*
X143225500Y-98975500D01*
X143225500Y-98975500D02*
X144550000Y-100300000D01*
%TO.N,+3.3V*%
X132281300Y-95050000D02*
X132439900Y-94891400D01*
X129985900Y-95313178D02*
X130230622Y-95557900D01*
X131443900Y-95313178D02*
X131443900Y-95050000D01*
D26*
X132439900Y-94891400D02*
X132439900Y-95804700D01*
D25*
X122583400Y-98693400D02*
X122630000Y-98740000D01*
X131443900Y-95050000D02*
X132281300Y-95050000D01*
D26*
X132439900Y-95804700D02*
X132466400Y-95831200D01*
D25*
X127711500Y-95050000D02*
X129985900Y-95050000D01*
X126121900Y-95248100D02*
X122630000Y-98740000D01*
D26*
X127158900Y-90344800D02*
X127209700Y-90294000D01*
D25*
X131199178Y-95557900D02*
X131443900Y-95313178D01*
X130230622Y-95557900D02*
X131199178Y-95557900D01*
D26*
X127107000Y-90344800D02*
X127158900Y-90344800D01*
D25*
X127513400Y-95248100D02*
X126121900Y-95248100D01*
X129985900Y-95050000D02*
X129985900Y-95313178D01*
X127209700Y-90294000D02*
X127209700Y-90169700D01*
X127513400Y-95248100D02*
X127711500Y-95050000D01*
%TO.N,GND*%
X130714900Y-93492200D02*
X132136200Y-92070900D01*
D27*
X134455000Y-105675000D02*
X134455000Y-108037500D01*
D25*
X130700000Y-94900000D02*
X130700000Y-94876500D01*
X129443800Y-93620300D02*
X128910400Y-93620300D01*
X130714900Y-94891400D02*
X130723500Y-94900000D01*
D26*
X122640000Y-97020000D02*
X122600000Y-97000000D01*
D27*
X122200000Y-96125000D02*
X122200000Y-96598100D01*
D26*
X122600000Y-97000000D02*
X122707300Y-97330700D01*
D25*
X130723500Y-94900000D02*
X130700000Y-94900000D01*
D27*
X122200000Y-96598100D02*
X122583400Y-96981500D01*
D25*
X130714900Y-94891400D02*
X130714900Y-93492200D01*
X130700000Y-94876500D02*
X129443800Y-93620300D01*
D27*
%TO.N,+5V*%
X136175000Y-100925000D02*
X135550000Y-100300000D01*
X122025000Y-100300000D02*
X120990000Y-99265000D01*
X120990000Y-85785000D02*
X122955000Y-83820000D01*
X122955000Y-83820000D02*
X128360000Y-83820000D01*
X135550000Y-100300000D02*
X122025000Y-100300000D01*
X120990000Y-99265000D02*
X120990000Y-85785000D01*
X136175000Y-102575000D02*
X136175000Y-100925000D01*
D25*
%TO.N,/NRST*%
X127487200Y-91895300D02*
X127437200Y-91845300D01*
X128961200Y-91895300D02*
X127487200Y-91895300D01*
%TO.N,/PIN6*%
X126145000Y-105005000D02*
X126145000Y-108037500D01*
X126175000Y-104975000D02*
X126145000Y-105005000D01*
%TO.N,/LED3*%
X124525000Y-91158479D02*
X124278522Y-90912001D01*
X124525000Y-91902500D02*
X124525000Y-91158479D01*
X124278522Y-90912001D02*
X124112999Y-90912001D01*
%TO.N,/LED4*%
X123787022Y-91881960D02*
X123787022Y-90237978D01*
X123787022Y-90237978D02*
X123896836Y-90128164D01*
X123798062Y-91893000D02*
X123787022Y-91881960D01*
%TO.N,/LED5*%
X123071059Y-89778941D02*
X123656172Y-89193828D01*
X123071059Y-91893000D02*
X123071059Y-89778941D01*
%TO.N,/LED6*%
X122325000Y-89550000D02*
X123515508Y-88359492D01*
X122325000Y-91893000D02*
X122325000Y-89550000D01*
%TO.N,/PIN7*%
X128675000Y-101900000D02*
X128915000Y-102140000D01*
X128915000Y-102140000D02*
X128915000Y-108037500D01*
X128793924Y-98231076D02*
X128793924Y-95664839D01*
X128725000Y-98300000D02*
X128793924Y-98231076D01*
D27*
%TO.N,/PIN8*%
X131685000Y-107797500D02*
X131685000Y-106980833D01*
D25*
X131685000Y-102660000D02*
X131685000Y-108037500D01*
X130250000Y-101225000D02*
X131685000Y-102660000D01*
X129520783Y-95650437D02*
X129500000Y-95671220D01*
X129500000Y-95671220D02*
X129500000Y-98325000D01*
X129575000Y-101225000D02*
X130250000Y-101225000D01*
%TO.N,/USART3_TX*%
X140940499Y-99230499D02*
X131620645Y-99230499D01*
X144550000Y-102840000D02*
X140940499Y-99230499D01*
X131620645Y-99230499D02*
X130596512Y-98206366D01*
%TO.N,/PB8*%
X136484914Y-92480000D02*
X130404914Y-86400000D01*
X130404914Y-86400000D02*
X128200000Y-86400000D01*
X144750000Y-92480000D02*
X136484914Y-92480000D01*
%TO.N,/PB3*%
X142781404Y-83958500D02*
X145791500Y-86968596D01*
X145791500Y-88898500D02*
X144750000Y-89940000D01*
X145791500Y-86968596D02*
X145791500Y-88898500D01*
X133450000Y-84500000D02*
X133991500Y-83958500D01*
X133991500Y-83958500D02*
X142781404Y-83958500D01*
%TO.N,/PA15*%
X144750000Y-87400000D02*
X143650000Y-86300000D01*
X132950000Y-86300000D02*
X131975000Y-87275000D01*
X143650000Y-86300000D02*
X132950000Y-86300000D01*
%TO.N,/PB9*%
X129783478Y-91325000D02*
X129418978Y-90960500D01*
X136236078Y-95020000D02*
X132541078Y-91325000D01*
X128146972Y-90960500D02*
X128072201Y-90885729D01*
X132541078Y-91325000D02*
X129783478Y-91325000D01*
X128072201Y-90885729D02*
X128072201Y-89702272D01*
X144750000Y-95020000D02*
X136236078Y-95020000D01*
X129418978Y-90960500D02*
X128146972Y-90960500D01*
%TD*%
%TA.AperFunction,Conductor*%
%TO.N,GND*%
G36*
X118931005Y-71315585D02*
G01*
X118976760Y-71368389D01*
X118986704Y-71437547D01*
X118957679Y-71501103D01*
X118902971Y-71537604D01*
X118900246Y-71538508D01*
X118898486Y-71539091D01*
X118898481Y-71539093D01*
X118751648Y-71629661D01*
X118629661Y-71751648D01*
X118539093Y-71898481D01*
X118539092Y-71898484D01*
X118484826Y-72062247D01*
X118484826Y-72062248D01*
X118484825Y-72062248D01*
X118474500Y-72163315D01*
X118474500Y-72761669D01*
X118474501Y-72761687D01*
X118484825Y-72862752D01*
X118539092Y-73026515D01*
X118539093Y-73026518D01*
X118629661Y-73173351D01*
X118743629Y-73287319D01*
X118777114Y-73348642D01*
X118772130Y-73418334D01*
X118743629Y-73462681D01*
X118629661Y-73576648D01*
X118539093Y-73723481D01*
X118539092Y-73723484D01*
X118484826Y-73887247D01*
X118484826Y-73887248D01*
X118484825Y-73887248D01*
X118474500Y-73988315D01*
X118474500Y-74586669D01*
X118474501Y-74586687D01*
X118484825Y-74687752D01*
X118488895Y-74700033D01*
X118539092Y-74851516D01*
X118629660Y-74998350D01*
X118751650Y-75120340D01*
X118898484Y-75210908D01*
X119062247Y-75265174D01*
X119163323Y-75275500D01*
X119736676Y-75275499D01*
X119736684Y-75275498D01*
X119736687Y-75275498D01*
X119792030Y-75269844D01*
X119837753Y-75265174D01*
X120001516Y-75210908D01*
X120148350Y-75120340D01*
X120270340Y-74998350D01*
X120360908Y-74851516D01*
X120411105Y-74700033D01*
X122630000Y-74700033D01*
X122630000Y-74994966D01*
X122630001Y-74994983D01*
X122668496Y-75287384D01*
X122668499Y-75287397D01*
X122744835Y-75572290D01*
X122744838Y-75572300D01*
X122857704Y-75844781D01*
X122857709Y-75844792D01*
X123005174Y-76100207D01*
X123005180Y-76100215D01*
X123121777Y-76252167D01*
X123907912Y-75466031D01*
X124002829Y-75596675D01*
X124130825Y-75724671D01*
X124261466Y-75819586D01*
X123475331Y-76605721D01*
X123627284Y-76722319D01*
X123627292Y-76722325D01*
X123882707Y-76869790D01*
X123882718Y-76869795D01*
X124155199Y-76982661D01*
X124155209Y-76982664D01*
X124440102Y-77059000D01*
X124440115Y-77059003D01*
X124732516Y-77097498D01*
X124732534Y-77097500D01*
X125027466Y-77097500D01*
X125027483Y-77097498D01*
X125319884Y-77059003D01*
X125319897Y-77059000D01*
X125604790Y-76982664D01*
X125604800Y-76982661D01*
X125877281Y-76869795D01*
X125877292Y-76869790D01*
X126132707Y-76722325D01*
X126132725Y-76722313D01*
X126284667Y-76605722D01*
X126284667Y-76605720D01*
X125498533Y-75819586D01*
X125629175Y-75724671D01*
X125757171Y-75596675D01*
X125852086Y-75466033D01*
X126638220Y-76252167D01*
X126638222Y-76252167D01*
X126754813Y-76100225D01*
X126754825Y-76100207D01*
X126902290Y-75844792D01*
X126902295Y-75844781D01*
X127015161Y-75572300D01*
X127015164Y-75572290D01*
X127091500Y-75287397D01*
X127091503Y-75287384D01*
X127129998Y-74994983D01*
X127130000Y-74994966D01*
X127130000Y-74700033D01*
X135770000Y-74700033D01*
X135770000Y-74994966D01*
X135770001Y-74994983D01*
X135808496Y-75287384D01*
X135808499Y-75287397D01*
X135884835Y-75572290D01*
X135884838Y-75572300D01*
X135997704Y-75844781D01*
X135997709Y-75844792D01*
X136145174Y-76100207D01*
X136145180Y-76100215D01*
X136261777Y-76252167D01*
X137047912Y-75466031D01*
X137142829Y-75596675D01*
X137270825Y-75724671D01*
X137401466Y-75819586D01*
X136615331Y-76605721D01*
X136767284Y-76722319D01*
X136767292Y-76722325D01*
X137022707Y-76869790D01*
X137022718Y-76869795D01*
X137295199Y-76982661D01*
X137295209Y-76982664D01*
X137580102Y-77059000D01*
X137580115Y-77059003D01*
X137872516Y-77097498D01*
X137872534Y-77097500D01*
X138167466Y-77097500D01*
X138167483Y-77097498D01*
X138459884Y-77059003D01*
X138459897Y-77059000D01*
X138609068Y-77019031D01*
X138744790Y-76982664D01*
X138744800Y-76982661D01*
X139017281Y-76869795D01*
X139017292Y-76869790D01*
X139272707Y-76722325D01*
X139272725Y-76722313D01*
X139424667Y-76605722D01*
X139424667Y-76605720D01*
X138638533Y-75819586D01*
X138769175Y-75724671D01*
X138897171Y-75596675D01*
X138992086Y-75466033D01*
X139778220Y-76252167D01*
X139778222Y-76252167D01*
X139894813Y-76100225D01*
X139894825Y-76100207D01*
X140042290Y-75844792D01*
X140042295Y-75844781D01*
X140155161Y-75572300D01*
X140155164Y-75572290D01*
X140231500Y-75287397D01*
X140231503Y-75287384D01*
X140269998Y-74994983D01*
X140270000Y-74994966D01*
X140270000Y-74700033D01*
X140269998Y-74700016D01*
X140231503Y-74407615D01*
X140231500Y-74407602D01*
X140155164Y-74122709D01*
X140155161Y-74122699D01*
X140042295Y-73850218D01*
X140042290Y-73850207D01*
X139894825Y-73594792D01*
X139894819Y-73594784D01*
X139778221Y-73442831D01*
X138992086Y-74228966D01*
X138897171Y-74098325D01*
X138769175Y-73970329D01*
X138638532Y-73875412D01*
X139424667Y-73089277D01*
X139272715Y-72972680D01*
X139272707Y-72972674D01*
X139017292Y-72825209D01*
X139017281Y-72825204D01*
X138744800Y-72712338D01*
X138744790Y-72712335D01*
X138459897Y-72635999D01*
X138459884Y-72635996D01*
X138167483Y-72597501D01*
X138167466Y-72597500D01*
X137872534Y-72597500D01*
X137872516Y-72597501D01*
X137580115Y-72635996D01*
X137580102Y-72635999D01*
X137295209Y-72712335D01*
X137295199Y-72712338D01*
X137022718Y-72825204D01*
X137022707Y-72825209D01*
X136767292Y-72972674D01*
X136767276Y-72972685D01*
X136615331Y-73089275D01*
X136615331Y-73089277D01*
X137401466Y-73875412D01*
X137270825Y-73970329D01*
X137142829Y-74098325D01*
X137047912Y-74228966D01*
X136261777Y-73442831D01*
X136261775Y-73442831D01*
X136145185Y-73594776D01*
X136145174Y-73594792D01*
X135997709Y-73850207D01*
X135997704Y-73850218D01*
X135884838Y-74122699D01*
X135884835Y-74122709D01*
X135808499Y-74407602D01*
X135808496Y-74407615D01*
X135770001Y-74700016D01*
X135770000Y-74700033D01*
X127130000Y-74700033D01*
X127129998Y-74700016D01*
X127091503Y-74407615D01*
X127091500Y-74407602D01*
X127015164Y-74122709D01*
X127015161Y-74122699D01*
X126902295Y-73850218D01*
X126902290Y-73850207D01*
X126754825Y-73594792D01*
X126754819Y-73594784D01*
X126638221Y-73442831D01*
X125852086Y-74228966D01*
X125757171Y-74098325D01*
X125629175Y-73970329D01*
X125498532Y-73875412D01*
X126284667Y-73089277D01*
X126132715Y-72972680D01*
X126132707Y-72972674D01*
X125877292Y-72825209D01*
X125877281Y-72825204D01*
X125604800Y-72712338D01*
X125604790Y-72712335D01*
X125319897Y-72635999D01*
X125319884Y-72635996D01*
X125027483Y-72597501D01*
X125027466Y-72597500D01*
X124732534Y-72597500D01*
X124732516Y-72597501D01*
X124440115Y-72635996D01*
X124440102Y-72635999D01*
X124155209Y-72712335D01*
X124155199Y-72712338D01*
X123882718Y-72825204D01*
X123882707Y-72825209D01*
X123627292Y-72972674D01*
X123627276Y-72972685D01*
X123475331Y-73089275D01*
X123475331Y-73089277D01*
X124261466Y-73875412D01*
X124130825Y-73970329D01*
X124002829Y-74098325D01*
X123907912Y-74228966D01*
X123121777Y-73442831D01*
X123121775Y-73442831D01*
X123005185Y-73594776D01*
X123005174Y-73594792D01*
X122857709Y-73850207D01*
X122857704Y-73850218D01*
X122744838Y-74122699D01*
X122744835Y-74122709D01*
X122668499Y-74407602D01*
X122668496Y-74407615D01*
X122630001Y-74700016D01*
X122630000Y-74700033D01*
X120411105Y-74700033D01*
X120415174Y-74687753D01*
X120425500Y-74586677D01*
X120425499Y-73988324D01*
X120415174Y-73887247D01*
X120360908Y-73723484D01*
X120270340Y-73576650D01*
X120156371Y-73462681D01*
X120122886Y-73401358D01*
X120127870Y-73331666D01*
X120156371Y-73287319D01*
X120270340Y-73173350D01*
X120360908Y-73026516D01*
X120415174Y-72862753D01*
X120425500Y-72761677D01*
X120425499Y-72163324D01*
X120415174Y-72062247D01*
X120360908Y-71898484D01*
X120270340Y-71751650D01*
X120148350Y-71629660D01*
X120001516Y-71539092D01*
X119997028Y-71537604D01*
X119939585Y-71497834D01*
X119912762Y-71433318D01*
X119925077Y-71364542D01*
X119972620Y-71313342D01*
X120036034Y-71295900D01*
X148918700Y-71295900D01*
X148985739Y-71315585D01*
X149031494Y-71368389D01*
X149042700Y-71419900D01*
X149042700Y-109376000D01*
X149023015Y-109443039D01*
X148970211Y-109488794D01*
X148918700Y-109500000D01*
X136002334Y-109500000D01*
X135935295Y-109480315D01*
X135889540Y-109427511D01*
X135878334Y-109376000D01*
X135878334Y-108287500D01*
X134579000Y-108287500D01*
X134511961Y-108267815D01*
X134466206Y-108215011D01*
X134455000Y-108163500D01*
X134455000Y-108037500D01*
X134329000Y-108037500D01*
X134261961Y-108017815D01*
X134216206Y-107965011D01*
X134205000Y-107913500D01*
X134205000Y-107787500D01*
X134705000Y-107787500D01*
X135878334Y-107787500D01*
X135878334Y-106249672D01*
X135878333Y-106249655D01*
X135871932Y-106190127D01*
X135871930Y-106190120D01*
X135821688Y-106055413D01*
X135821684Y-106055406D01*
X135735524Y-105940312D01*
X135735521Y-105940309D01*
X135620427Y-105854149D01*
X135620420Y-105854145D01*
X135485713Y-105803903D01*
X135485706Y-105803901D01*
X135426178Y-105797500D01*
X134705000Y-105797500D01*
X134705000Y-107787500D01*
X134205000Y-107787500D01*
X134205000Y-105797500D01*
X133483821Y-105797500D01*
X133424293Y-105803901D01*
X133424286Y-105803903D01*
X133289579Y-105854145D01*
X133289572Y-105854149D01*
X133174479Y-105940309D01*
X133169577Y-105946857D01*
X133113642Y-105988726D01*
X133043950Y-105993708D01*
X132982628Y-105960221D01*
X132971047Y-105946856D01*
X132966146Y-105940309D01*
X132965880Y-105939954D01*
X132965879Y-105939953D01*
X132965878Y-105939952D01*
X132850669Y-105853706D01*
X132850662Y-105853702D01*
X132715816Y-105803408D01*
X132715817Y-105803408D01*
X132656217Y-105797001D01*
X132656215Y-105797000D01*
X132656207Y-105797000D01*
X132656199Y-105797000D01*
X132373000Y-105797000D01*
X132305961Y-105777315D01*
X132260206Y-105724511D01*
X132249000Y-105673000D01*
X132249000Y-102585749D01*
X132248999Y-102585745D01*
X132239556Y-102550501D01*
X132232390Y-102523757D01*
X132210565Y-102442303D01*
X132140869Y-102321588D01*
X132136313Y-102313696D01*
X132031304Y-102208687D01*
X132031301Y-102208685D01*
X131134797Y-101312181D01*
X131101312Y-101250858D01*
X131106296Y-101181166D01*
X131148168Y-101125233D01*
X131213632Y-101100816D01*
X131222478Y-101100500D01*
X135167060Y-101100500D01*
X135234099Y-101120185D01*
X135254741Y-101136819D01*
X135338181Y-101220259D01*
X135371666Y-101281582D01*
X135374500Y-101307940D01*
X135374500Y-102024562D01*
X135354815Y-102091601D01*
X135353603Y-102093451D01*
X135332678Y-102124768D01*
X135261027Y-102297748D01*
X135261025Y-102297756D01*
X135224500Y-102481379D01*
X135224500Y-102668620D01*
X135261025Y-102852243D01*
X135261027Y-102852251D01*
X135332676Y-103025228D01*
X135332681Y-103025237D01*
X135436697Y-103180907D01*
X135436700Y-103180911D01*
X135569088Y-103313299D01*
X135569092Y-103313302D01*
X135724762Y-103417318D01*
X135724768Y-103417321D01*
X135724769Y-103417322D01*
X135897749Y-103488973D01*
X136081379Y-103525499D01*
X136081383Y-103525500D01*
X136081384Y-103525500D01*
X136268617Y-103525500D01*
X136268618Y-103525499D01*
X136452251Y-103488973D01*
X136625231Y-103417322D01*
X136780908Y-103313302D01*
X136913302Y-103180908D01*
X137017322Y-103025231D01*
X137088973Y-102852251D01*
X137125500Y-102668616D01*
X137125500Y-102481384D01*
X137088973Y-102297749D01*
X137017322Y-102124769D01*
X137010590Y-102114693D01*
X136996397Y-102093451D01*
X136975520Y-102026774D01*
X136975500Y-102024562D01*
X136975500Y-100846157D01*
X136975499Y-100846153D01*
X136949354Y-100714712D01*
X136949354Y-100714711D01*
X136944737Y-100691502D01*
X136923754Y-100640845D01*
X136922496Y-100637807D01*
X136922484Y-100637780D01*
X136884394Y-100545821D01*
X136884392Y-100545819D01*
X136884392Y-100545817D01*
X136796790Y-100414712D01*
X136758266Y-100376188D01*
X136685289Y-100303211D01*
X136388258Y-100006180D01*
X136354773Y-99944857D01*
X136359757Y-99875165D01*
X136401629Y-99819232D01*
X136467093Y-99794815D01*
X136475939Y-99794499D01*
X140655521Y-99794499D01*
X140722560Y-99814184D01*
X140743202Y-99830818D01*
X143228900Y-102316516D01*
X143262385Y-102377839D01*
X143259150Y-102442515D01*
X143232754Y-102523752D01*
X143232754Y-102523755D01*
X143199500Y-102733713D01*
X143199500Y-102946286D01*
X143232753Y-103156239D01*
X143298444Y-103358414D01*
X143394951Y-103547820D01*
X143519890Y-103719786D01*
X143670213Y-103870109D01*
X143842179Y-103995048D01*
X143842181Y-103995049D01*
X143842184Y-103995051D01*
X144031588Y-104091557D01*
X144233757Y-104157246D01*
X144443713Y-104190500D01*
X144443714Y-104190500D01*
X144656286Y-104190500D01*
X144656287Y-104190500D01*
X144866243Y-104157246D01*
X145068412Y-104091557D01*
X145257816Y-103995051D01*
X145279789Y-103979086D01*
X145429786Y-103870109D01*
X145429788Y-103870106D01*
X145429792Y-103870104D01*
X145580104Y-103719792D01*
X145580106Y-103719788D01*
X145580109Y-103719786D01*
X145705048Y-103547820D01*
X145705047Y-103547820D01*
X145705051Y-103547816D01*
X145801557Y-103358412D01*
X145867246Y-103156243D01*
X145900500Y-102946287D01*
X145900500Y-102733713D01*
X145867246Y-102523757D01*
X145801557Y-102321588D01*
X145705051Y-102132184D01*
X145705049Y-102132181D01*
X145705048Y-102132179D01*
X145580109Y-101960213D01*
X145466569Y-101846673D01*
X145433084Y-101785350D01*
X145438068Y-101715658D01*
X145479940Y-101659725D01*
X145510915Y-101642810D01*
X145642331Y-101593796D01*
X145757546Y-101507546D01*
X145843796Y-101392331D01*
X145894091Y-101257483D01*
X145900500Y-101197873D01*
X145900499Y-99402128D01*
X145894091Y-99342517D01*
X145859693Y-99250292D01*
X145843797Y-99207671D01*
X145843793Y-99207664D01*
X145757547Y-99092455D01*
X145757544Y-99092452D01*
X145642335Y-99006206D01*
X145642328Y-99006202D01*
X145507482Y-98955908D01*
X145507483Y-98955908D01*
X145447883Y-98949501D01*
X145447881Y-98949500D01*
X145447873Y-98949500D01*
X145447865Y-98949500D01*
X144048478Y-98949500D01*
X143981439Y-98929815D01*
X143960797Y-98913181D01*
X143683883Y-98636267D01*
X143683881Y-98636264D01*
X143571806Y-98524189D01*
X143571804Y-98524187D01*
X143486065Y-98474685D01*
X143443198Y-98449936D01*
X143443197Y-98449935D01*
X143424401Y-98444899D01*
X143405606Y-98439863D01*
X143405605Y-98439862D01*
X143328115Y-98419099D01*
X143299753Y-98411500D01*
X143299752Y-98411500D01*
X132445392Y-98411500D01*
X132415951Y-98402855D01*
X132385965Y-98396332D01*
X132380949Y-98392577D01*
X132378353Y-98391815D01*
X132357711Y-98375181D01*
X132329276Y-98346746D01*
X132295791Y-98285423D01*
X132292957Y-98259065D01*
X132292957Y-98228698D01*
X132292956Y-98228696D01*
X132280846Y-98167816D01*
X132262194Y-98074046D01*
X132244201Y-98030606D01*
X132201854Y-97928370D01*
X132201847Y-97928357D01*
X132114246Y-97797254D01*
X132114243Y-97797250D01*
X132002749Y-97685756D01*
X132002745Y-97685753D01*
X131871642Y-97598152D01*
X131871629Y-97598145D01*
X131725958Y-97537807D01*
X131725946Y-97537804D01*
X131571302Y-97507043D01*
X131571299Y-97507043D01*
X131413615Y-97507043D01*
X131413612Y-97507043D01*
X131258962Y-97537804D01*
X131258958Y-97537806D01*
X131183050Y-97569247D01*
X131113580Y-97576714D01*
X131066708Y-97557787D01*
X130975697Y-97496975D01*
X130975684Y-97496968D01*
X130830013Y-97436630D01*
X130830001Y-97436627D01*
X130675357Y-97405866D01*
X130675354Y-97405866D01*
X130517670Y-97405866D01*
X130517667Y-97405866D01*
X130363022Y-97436627D01*
X130363010Y-97436630D01*
X130235452Y-97489466D01*
X130165983Y-97496935D01*
X130103504Y-97465659D01*
X130067852Y-97405570D01*
X130064000Y-97374905D01*
X130064000Y-96290660D01*
X130072644Y-96261222D01*
X130079168Y-96231232D01*
X130082922Y-96226216D01*
X130083685Y-96223621D01*
X130100320Y-96202978D01*
X130145081Y-96158218D01*
X130206404Y-96124733D01*
X130232761Y-96121900D01*
X131273429Y-96121900D01*
X131273431Y-96121900D01*
X131416874Y-96083465D01*
X131423728Y-96079508D01*
X131526487Y-96020179D01*
X131594386Y-96003706D01*
X131660413Y-96026558D01*
X131703048Y-96080113D01*
X131757004Y-96210376D01*
X131757009Y-96210385D01*
X131844610Y-96341488D01*
X131844613Y-96341492D01*
X131956107Y-96452986D01*
X131956111Y-96452989D01*
X132087214Y-96540590D01*
X132087227Y-96540597D01*
X132232898Y-96600935D01*
X132232903Y-96600937D01*
X132387553Y-96631699D01*
X132387556Y-96631700D01*
X132387558Y-96631700D01*
X132545244Y-96631700D01*
X132545245Y-96631699D01*
X132699897Y-96600937D01*
X132845579Y-96540594D01*
X132976689Y-96452989D01*
X133088189Y-96341489D01*
X133175794Y-96210379D01*
X133176379Y-96208968D01*
X133216405Y-96112335D01*
X133236137Y-96064697D01*
X133266900Y-95910042D01*
X133266900Y-95752358D01*
X133266900Y-95752354D01*
X133262117Y-95728314D01*
X133268341Y-95658722D01*
X133296053Y-95616435D01*
X133322740Y-95589750D01*
X133413308Y-95442916D01*
X133467574Y-95279153D01*
X133477900Y-95178077D01*
X133477899Y-94604724D01*
X133477282Y-94598687D01*
X133467574Y-94503647D01*
X133463136Y-94490253D01*
X133413308Y-94339884D01*
X133322740Y-94193050D01*
X133200750Y-94071060D01*
X133077228Y-93994871D01*
X133053918Y-93980493D01*
X133053913Y-93980491D01*
X133020651Y-93969469D01*
X132890153Y-93926226D01*
X132890151Y-93926225D01*
X132789078Y-93915900D01*
X132090730Y-93915900D01*
X132090712Y-93915901D01*
X131989647Y-93926225D01*
X131825884Y-93980492D01*
X131825881Y-93980493D01*
X131679048Y-94071061D01*
X131664725Y-94085384D01*
X131603401Y-94118868D01*
X131533709Y-94113882D01*
X131489365Y-94085382D01*
X131475438Y-94071455D01*
X131475434Y-94071452D01*
X131328711Y-93980951D01*
X131328700Y-93980946D01*
X131165052Y-93926719D01*
X131064054Y-93916400D01*
X130964900Y-93916400D01*
X130964900Y-94718425D01*
X130960750Y-94733912D01*
X130961405Y-94747658D01*
X130948288Y-94780423D01*
X130920011Y-94829400D01*
X130869446Y-94877615D01*
X130812625Y-94891400D01*
X130617175Y-94891400D01*
X130550136Y-94871715D01*
X130509789Y-94829401D01*
X130481511Y-94780423D01*
X130464900Y-94718425D01*
X130464900Y-93916399D01*
X130365760Y-93916400D01*
X130365744Y-93916401D01*
X130264747Y-93926719D01*
X130101099Y-93980946D01*
X130101090Y-93980951D01*
X130074496Y-93997354D01*
X130007103Y-94015794D01*
X129940440Y-93994871D01*
X129895671Y-93941228D01*
X129885400Y-93891815D01*
X129885400Y-93870300D01*
X129034400Y-93870300D01*
X128967361Y-93850615D01*
X128921606Y-93797811D01*
X128910400Y-93746300D01*
X128910400Y-93494300D01*
X128930085Y-93427261D01*
X128982889Y-93381506D01*
X129034400Y-93370300D01*
X129885399Y-93370300D01*
X129885399Y-93271160D01*
X129885398Y-93271145D01*
X129875080Y-93170147D01*
X129820853Y-93006499D01*
X129820848Y-93006488D01*
X129730347Y-92859765D01*
X129730344Y-92859761D01*
X129716417Y-92845834D01*
X129682932Y-92784511D01*
X129687916Y-92714819D01*
X129716417Y-92670472D01*
X129730740Y-92656150D01*
X129821308Y-92509316D01*
X129850887Y-92420054D01*
X131161201Y-92420054D01*
X131171519Y-92521052D01*
X131225746Y-92684700D01*
X131225751Y-92684711D01*
X131316252Y-92831434D01*
X131316255Y-92831438D01*
X131438161Y-92953344D01*
X131438165Y-92953347D01*
X131584888Y-93043848D01*
X131584899Y-93043853D01*
X131748547Y-93098080D01*
X131849552Y-93108399D01*
X131886200Y-93108399D01*
X131886200Y-92320900D01*
X131161201Y-92320900D01*
X131161201Y-92420054D01*
X129850887Y-92420054D01*
X129875574Y-92345553D01*
X129885900Y-92244477D01*
X129885899Y-92012999D01*
X129905583Y-91945961D01*
X129958387Y-91900206D01*
X130009899Y-91889000D01*
X132012200Y-91889000D01*
X132079239Y-91908685D01*
X132124994Y-91961489D01*
X132136200Y-92013000D01*
X132136200Y-92070900D01*
X132262200Y-92070900D01*
X132329239Y-92090585D01*
X132374994Y-92143389D01*
X132386200Y-92194900D01*
X132386200Y-93108399D01*
X132422840Y-93108399D01*
X132422854Y-93108398D01*
X132523852Y-93098080D01*
X132687500Y-93043853D01*
X132687511Y-93043848D01*
X132834234Y-92953347D01*
X132834238Y-92953344D01*
X132956143Y-92831439D01*
X132985881Y-92783226D01*
X133037829Y-92736500D01*
X133106791Y-92725277D01*
X133170873Y-92753120D01*
X133179102Y-92760640D01*
X135780424Y-95361962D01*
X135780434Y-95361973D01*
X135784764Y-95366303D01*
X135784765Y-95366304D01*
X135889774Y-95471313D01*
X136018382Y-95545565D01*
X136161825Y-95584000D01*
X136161826Y-95584000D01*
X143275501Y-95584000D01*
X143342540Y-95603685D01*
X143388295Y-95656489D01*
X143399501Y-95708000D01*
X143399501Y-95917876D01*
X143405908Y-95977483D01*
X143456202Y-96112328D01*
X143456206Y-96112335D01*
X143542452Y-96227544D01*
X143542455Y-96227547D01*
X143657664Y-96313793D01*
X143657671Y-96313797D01*
X143792517Y-96364091D01*
X143792516Y-96364091D01*
X143799444Y-96364835D01*
X143852127Y-96370500D01*
X145647872Y-96370499D01*
X145707483Y-96364091D01*
X145842331Y-96313796D01*
X145957546Y-96227546D01*
X146043796Y-96112331D01*
X146094091Y-95977483D01*
X146100500Y-95917873D01*
X146100499Y-94122128D01*
X146095052Y-94071455D01*
X146094091Y-94062516D01*
X146043797Y-93927671D01*
X146043793Y-93927664D01*
X145957547Y-93812455D01*
X145957544Y-93812452D01*
X145842335Y-93726206D01*
X145842328Y-93726202D01*
X145710917Y-93677189D01*
X145654983Y-93635318D01*
X145630566Y-93569853D01*
X145645418Y-93501580D01*
X145666563Y-93473332D01*
X145780104Y-93359792D01*
X145844499Y-93271160D01*
X145905048Y-93187820D01*
X145905050Y-93187817D01*
X145905051Y-93187816D01*
X146001557Y-92998412D01*
X146067246Y-92796243D01*
X146100500Y-92586287D01*
X146100500Y-92373713D01*
X146067246Y-92163757D01*
X146001557Y-91961588D01*
X145905051Y-91772184D01*
X145905049Y-91772181D01*
X145905048Y-91772179D01*
X145780109Y-91600213D01*
X145629786Y-91449890D01*
X145457820Y-91324951D01*
X145457115Y-91324591D01*
X145449054Y-91320485D01*
X145398259Y-91272512D01*
X145381463Y-91204692D01*
X145403999Y-91138556D01*
X145449054Y-91099515D01*
X145457816Y-91095051D01*
X145556897Y-91023065D01*
X145629786Y-90970109D01*
X145629788Y-90970106D01*
X145629792Y-90970104D01*
X145780104Y-90819792D01*
X145780106Y-90819788D01*
X145780109Y-90819786D01*
X145905048Y-90647820D01*
X145905047Y-90647820D01*
X145905051Y-90647816D01*
X146001557Y-90458412D01*
X146067246Y-90256243D01*
X146100500Y-90046287D01*
X146100500Y-89833713D01*
X146067246Y-89623757D01*
X146040847Y-89542513D01*
X146040413Y-89527302D01*
X146035095Y-89513043D01*
X146039436Y-89493087D01*
X146038853Y-89472675D01*
X146046940Y-89458588D01*
X146049947Y-89444770D01*
X146071095Y-89416519D01*
X146127594Y-89360021D01*
X146127599Y-89360017D01*
X146137802Y-89349813D01*
X146137804Y-89349813D01*
X146242813Y-89244804D01*
X146291779Y-89159992D01*
X146317065Y-89116197D01*
X146355500Y-88972753D01*
X146355500Y-88824248D01*
X146355500Y-87052851D01*
X146355501Y-87052838D01*
X146355501Y-86894346D01*
X146355501Y-86894344D01*
X146317065Y-86750900D01*
X146301237Y-86723486D01*
X146242815Y-86622295D01*
X146242810Y-86622289D01*
X143239787Y-83619267D01*
X143239785Y-83619264D01*
X143127710Y-83507189D01*
X143127708Y-83507187D01*
X143041969Y-83457685D01*
X142999102Y-83432936D01*
X142999101Y-83432935D01*
X142999100Y-83432935D01*
X142896079Y-83405331D01*
X142855657Y-83394500D01*
X142855656Y-83394500D01*
X134073365Y-83394500D01*
X134073349Y-83394499D01*
X134065753Y-83394499D01*
X133917248Y-83394499D01*
X133785563Y-83429784D01*
X133773800Y-83432936D01*
X133645199Y-83507184D01*
X133645193Y-83507189D01*
X133489202Y-83663181D01*
X133427879Y-83696666D01*
X133401521Y-83699500D01*
X133371155Y-83699500D01*
X133216510Y-83730261D01*
X133216498Y-83730264D01*
X133070827Y-83790602D01*
X133070814Y-83790609D01*
X132939711Y-83878210D01*
X132939707Y-83878213D01*
X132828213Y-83989707D01*
X132828210Y-83989711D01*
X132740609Y-84120814D01*
X132740602Y-84120827D01*
X132680264Y-84266498D01*
X132680261Y-84266510D01*
X132649500Y-84421153D01*
X132649500Y-84578846D01*
X132680261Y-84733489D01*
X132680264Y-84733501D01*
X132740602Y-84879172D01*
X132740609Y-84879185D01*
X132828210Y-85010288D01*
X132828213Y-85010292D01*
X132939707Y-85121786D01*
X132939711Y-85121789D01*
X133070814Y-85209390D01*
X133070827Y-85209397D01*
X133146280Y-85240650D01*
X133216503Y-85269737D01*
X133371153Y-85300499D01*
X133371156Y-85300500D01*
X133371158Y-85300500D01*
X133528844Y-85300500D01*
X133528845Y-85300499D01*
X133683497Y-85269737D01*
X133829179Y-85209394D01*
X133829184Y-85209390D01*
X133829187Y-85209389D01*
X133856608Y-85191067D01*
X133923285Y-85170188D01*
X133990666Y-85188672D01*
X134037356Y-85240650D01*
X134049500Y-85294168D01*
X134049501Y-85612000D01*
X134029817Y-85679039D01*
X133977013Y-85724794D01*
X133925501Y-85736000D01*
X132875747Y-85736000D01*
X132732304Y-85774435D01*
X132732301Y-85774436D01*
X132603699Y-85848685D01*
X132603693Y-85848689D01*
X132498685Y-85953698D01*
X132014203Y-86438181D01*
X131952880Y-86471666D01*
X131926522Y-86474500D01*
X131896155Y-86474500D01*
X131741510Y-86505261D01*
X131741498Y-86505264D01*
X131595827Y-86565602D01*
X131595816Y-86565608D01*
X131543946Y-86600267D01*
X131477269Y-86621144D01*
X131409889Y-86602659D01*
X131387375Y-86584845D01*
X130863297Y-86060767D01*
X130863295Y-86060764D01*
X130751220Y-85948689D01*
X130751218Y-85948687D01*
X130649062Y-85889707D01*
X130622612Y-85874436D01*
X130622611Y-85874435D01*
X130602843Y-85869138D01*
X130583076Y-85863842D01*
X130583075Y-85863841D01*
X130507008Y-85843459D01*
X130479167Y-85836000D01*
X130479166Y-85836000D01*
X128819441Y-85836000D01*
X128752402Y-85816315D01*
X128731760Y-85799681D01*
X128710292Y-85778213D01*
X128710288Y-85778210D01*
X128579185Y-85690609D01*
X128579172Y-85690602D01*
X128433501Y-85630264D01*
X128433489Y-85630261D01*
X128278845Y-85599500D01*
X128278842Y-85599500D01*
X128121158Y-85599500D01*
X128121155Y-85599500D01*
X127966510Y-85630261D01*
X127966498Y-85630264D01*
X127820827Y-85690602D01*
X127820814Y-85690609D01*
X127689711Y-85778210D01*
X127689707Y-85778213D01*
X127578213Y-85889707D01*
X127578210Y-85889711D01*
X127490609Y-86020814D01*
X127490602Y-86020827D01*
X127430264Y-86166498D01*
X127430261Y-86166510D01*
X127399500Y-86321153D01*
X127399500Y-86478846D01*
X127430261Y-86633489D01*
X127430264Y-86633501D01*
X127490602Y-86779172D01*
X127490609Y-86779185D01*
X127578210Y-86910288D01*
X127578213Y-86910292D01*
X127689707Y-87021786D01*
X127689711Y-87021789D01*
X127820814Y-87109390D01*
X127820827Y-87109397D01*
X127966498Y-87169735D01*
X127966503Y-87169737D01*
X128121153Y-87200499D01*
X128121156Y-87200500D01*
X128121158Y-87200500D01*
X128278844Y-87200500D01*
X128278845Y-87200499D01*
X128433497Y-87169737D01*
X128579179Y-87109394D01*
X128710289Y-87021789D01*
X128715580Y-87016498D01*
X128731760Y-87000319D01*
X128793083Y-86966834D01*
X128819441Y-86964000D01*
X130119936Y-86964000D01*
X130186975Y-86983685D01*
X130207617Y-87000319D01*
X132303517Y-89096219D01*
X132337002Y-89157542D01*
X132332018Y-89227234D01*
X132290146Y-89283167D01*
X132224682Y-89307584D01*
X132215836Y-89307900D01*
X131849530Y-89307900D01*
X131849512Y-89307901D01*
X131748447Y-89318225D01*
X131584684Y-89372492D01*
X131584681Y-89372493D01*
X131437848Y-89463061D01*
X131315861Y-89585048D01*
X131225293Y-89731881D01*
X131225291Y-89731886D01*
X131219625Y-89748985D01*
X131171026Y-89895647D01*
X131171026Y-89895648D01*
X131171025Y-89895648D01*
X131160700Y-89996715D01*
X131160700Y-89996723D01*
X131160700Y-90337835D01*
X131160701Y-90637000D01*
X131141017Y-90704039D01*
X131088213Y-90749794D01*
X131036701Y-90761000D01*
X130091088Y-90761000D01*
X130024049Y-90741315D01*
X129978294Y-90688511D01*
X129967730Y-90624396D01*
X129972199Y-90580651D01*
X129972200Y-90580641D01*
X129972200Y-90544000D01*
X129851457Y-90544000D01*
X129784418Y-90524315D01*
X129771749Y-90514106D01*
X129771728Y-90514134D01*
X129765286Y-90509191D01*
X129765282Y-90509187D01*
X129636676Y-90434936D01*
X129636675Y-90434935D01*
X129615600Y-90429288D01*
X129594527Y-90423642D01*
X129594526Y-90423641D01*
X129520372Y-90403772D01*
X129493231Y-90396500D01*
X129493230Y-90396500D01*
X129058700Y-90396500D01*
X128999132Y-90381255D01*
X128811995Y-90278755D01*
X128808826Y-90275578D01*
X128804524Y-90274315D01*
X128784384Y-90251073D01*
X128762654Y-90229286D01*
X128761705Y-90224900D01*
X128758769Y-90221511D01*
X128754390Y-90191058D01*
X128747891Y-90160993D01*
X128749463Y-90156793D01*
X128748825Y-90152353D01*
X128768460Y-90101110D01*
X128781592Y-90081455D01*
X128781595Y-90081451D01*
X128781772Y-90081025D01*
X128797108Y-90044000D01*
X129184700Y-90044000D01*
X129972199Y-90044000D01*
X129972199Y-90007360D01*
X129972198Y-90007345D01*
X129961880Y-89906347D01*
X129907653Y-89742699D01*
X129907648Y-89742688D01*
X129817147Y-89595965D01*
X129817144Y-89595961D01*
X129695238Y-89474055D01*
X129695234Y-89474052D01*
X129548511Y-89383551D01*
X129548500Y-89383546D01*
X129384852Y-89329319D01*
X129283854Y-89319000D01*
X129184700Y-89319000D01*
X129184700Y-90044000D01*
X128797108Y-90044000D01*
X128812290Y-90007345D01*
X128841938Y-89935769D01*
X128872701Y-89781114D01*
X128872701Y-89623430D01*
X128872701Y-89623427D01*
X128872700Y-89623425D01*
X128865066Y-89585048D01*
X128841938Y-89468775D01*
X128839571Y-89463060D01*
X128781595Y-89323092D01*
X128693990Y-89191983D01*
X128693987Y-89191979D01*
X128582493Y-89080485D01*
X128582489Y-89080482D01*
X128451386Y-88992881D01*
X128451373Y-88992874D01*
X128305702Y-88932536D01*
X128305690Y-88932533D01*
X128151046Y-88901772D01*
X128151043Y-88901772D01*
X127993359Y-88901772D01*
X127993356Y-88901772D01*
X127838711Y-88932533D01*
X127838699Y-88932536D01*
X127693028Y-88992874D01*
X127693015Y-88992881D01*
X127561912Y-89080482D01*
X127561908Y-89080485D01*
X127450414Y-89191979D01*
X127450409Y-89191985D01*
X127402696Y-89263392D01*
X127349084Y-89308196D01*
X127299595Y-89318500D01*
X126860530Y-89318500D01*
X126860512Y-89318501D01*
X126759447Y-89328825D01*
X126595684Y-89383092D01*
X126595681Y-89383093D01*
X126448848Y-89473661D01*
X126326861Y-89595648D01*
X126236293Y-89742481D01*
X126236291Y-89742486D01*
X126223490Y-89781118D01*
X126182026Y-89906247D01*
X126182026Y-89906248D01*
X126182025Y-89906248D01*
X126171700Y-90007315D01*
X126171700Y-90580669D01*
X126171701Y-90580687D01*
X126182025Y-90681752D01*
X126205341Y-90752114D01*
X126232197Y-90833159D01*
X126236292Y-90845515D01*
X126236293Y-90845518D01*
X126253541Y-90873481D01*
X126326860Y-90992350D01*
X126448850Y-91114340D01*
X126475631Y-91130859D01*
X126522355Y-91182804D01*
X126533579Y-91251767D01*
X126528241Y-91275401D01*
X126472026Y-91445047D01*
X126472025Y-91445048D01*
X126461700Y-91546115D01*
X126461700Y-92144469D01*
X126461701Y-92144487D01*
X126472025Y-92245552D01*
X126501967Y-92335908D01*
X126523370Y-92400499D01*
X126526292Y-92409315D01*
X126526293Y-92409318D01*
X126528434Y-92412789D01*
X126595211Y-92521052D01*
X126616861Y-92556151D01*
X126730829Y-92670119D01*
X126764314Y-92731442D01*
X126759330Y-92801134D01*
X126730829Y-92845481D01*
X126616861Y-92959448D01*
X126526293Y-93106281D01*
X126526292Y-93106284D01*
X126472026Y-93270047D01*
X126472026Y-93270048D01*
X126472025Y-93270048D01*
X126461700Y-93371115D01*
X126461700Y-93969469D01*
X126461701Y-93969487D01*
X126472025Y-94070552D01*
X126526292Y-94234315D01*
X126526293Y-94234318D01*
X126616861Y-94381151D01*
X126635137Y-94399427D01*
X126649312Y-94425387D01*
X126665766Y-94449976D01*
X126665872Y-94455714D01*
X126668622Y-94460750D01*
X126666512Y-94490253D01*
X126667060Y-94519833D01*
X126663871Y-94527170D01*
X126663638Y-94530442D01*
X126652995Y-94552204D01*
X126607974Y-94625196D01*
X126556027Y-94671921D01*
X126502435Y-94684100D01*
X126047647Y-94684100D01*
X125974513Y-94703695D01*
X125974513Y-94703696D01*
X125951076Y-94709975D01*
X125904202Y-94722535D01*
X125904201Y-94722536D01*
X125775599Y-94796785D01*
X125775593Y-94796789D01*
X125670585Y-94901798D01*
X124602701Y-95969681D01*
X124541378Y-96003166D01*
X124515020Y-96006000D01*
X123959230Y-96006000D01*
X123959212Y-96006001D01*
X123858147Y-96016325D01*
X123694384Y-96070592D01*
X123694381Y-96070593D01*
X123547548Y-96161161D01*
X123533225Y-96175484D01*
X123471901Y-96208968D01*
X123402209Y-96203982D01*
X123357865Y-96175482D01*
X123343938Y-96161555D01*
X123343934Y-96161552D01*
X123197211Y-96071051D01*
X123197200Y-96071046D01*
X123033552Y-96016819D01*
X122932554Y-96006500D01*
X122833400Y-96006500D01*
X122833400Y-96857500D01*
X122813715Y-96924539D01*
X122760911Y-96970294D01*
X122709400Y-96981500D01*
X122457400Y-96981500D01*
X122390361Y-96961815D01*
X122344606Y-96909011D01*
X122333400Y-96857500D01*
X122333400Y-96006499D01*
X122234260Y-96006500D01*
X122234244Y-96006501D01*
X122133247Y-96016819D01*
X121969594Y-96071048D01*
X121966897Y-96072306D01*
X121964870Y-96072613D01*
X121962742Y-96073319D01*
X121962621Y-96072955D01*
X121897819Y-96082793D01*
X121834037Y-96054269D01*
X121795801Y-95995790D01*
X121790500Y-95959920D01*
X121790500Y-92723637D01*
X121810185Y-92656598D01*
X121862989Y-92610843D01*
X121932147Y-92600899D01*
X121961952Y-92609076D01*
X122075598Y-92656149D01*
X122091503Y-92662737D01*
X122246153Y-92693499D01*
X122246156Y-92693500D01*
X122246158Y-92693500D01*
X122403844Y-92693500D01*
X122403845Y-92693499D01*
X122558497Y-92662737D01*
X122650578Y-92624595D01*
X122720045Y-92617127D01*
X122745477Y-92624594D01*
X122837562Y-92662737D01*
X122992212Y-92693499D01*
X122992215Y-92693500D01*
X122992217Y-92693500D01*
X123149903Y-92693500D01*
X123149904Y-92693499D01*
X123304556Y-92662737D01*
X123387110Y-92628541D01*
X123456575Y-92621073D01*
X123482006Y-92628540D01*
X123564565Y-92662737D01*
X123719215Y-92693499D01*
X123719218Y-92693500D01*
X123719220Y-92693500D01*
X123876906Y-92693500D01*
X123876907Y-92693499D01*
X124031559Y-92662737D01*
X124102612Y-92633305D01*
X124172079Y-92625837D01*
X124197511Y-92633304D01*
X124291503Y-92672237D01*
X124398394Y-92693499D01*
X124446153Y-92702999D01*
X124446156Y-92703000D01*
X124446158Y-92703000D01*
X124603844Y-92703000D01*
X124603845Y-92702999D01*
X124758497Y-92672237D01*
X124904179Y-92611894D01*
X125035289Y-92524289D01*
X125146789Y-92412789D01*
X125234394Y-92281679D01*
X125294737Y-92135997D01*
X125325500Y-91981342D01*
X125325500Y-91823658D01*
X125325500Y-91823655D01*
X125325499Y-91823653D01*
X125303224Y-91711669D01*
X125294737Y-91669003D01*
X125294735Y-91668998D01*
X125234397Y-91523327D01*
X125234390Y-91523314D01*
X125146789Y-91392211D01*
X125146786Y-91392207D01*
X125125319Y-91370740D01*
X125110615Y-91343812D01*
X125094023Y-91317994D01*
X125093131Y-91311793D01*
X125091834Y-91309417D01*
X125089000Y-91283059D01*
X125089000Y-91242734D01*
X125089001Y-91242721D01*
X125089001Y-91084228D01*
X125089001Y-91084227D01*
X125080095Y-91050994D01*
X125078255Y-90994698D01*
X125079022Y-90990843D01*
X125079022Y-90833156D01*
X125079021Y-90833154D01*
X125065584Y-90765602D01*
X125048259Y-90678504D01*
X125037607Y-90652787D01*
X124987919Y-90532828D01*
X124987912Y-90532815D01*
X124900311Y-90401712D01*
X124900308Y-90401708D01*
X124788814Y-90290214D01*
X124788808Y-90290209D01*
X124752444Y-90265911D01*
X124707640Y-90212299D01*
X124697336Y-90162810D01*
X124697336Y-90049319D01*
X124697335Y-90049317D01*
X124686874Y-89996728D01*
X124666573Y-89894667D01*
X124641325Y-89833713D01*
X124606233Y-89748991D01*
X124606226Y-89748978D01*
X124518625Y-89617875D01*
X124518622Y-89617871D01*
X124455693Y-89554942D01*
X124422208Y-89493619D01*
X124424714Y-89431262D01*
X124425904Y-89427337D01*
X124425909Y-89427325D01*
X124456672Y-89272670D01*
X124456672Y-89114986D01*
X124456672Y-89114983D01*
X124456671Y-89114981D01*
X124453430Y-89098687D01*
X124425909Y-88960331D01*
X124414395Y-88932533D01*
X124365569Y-88814655D01*
X124365567Y-88814651D01*
X124365566Y-88814649D01*
X124296125Y-88710724D01*
X124275248Y-88644048D01*
X124283810Y-88598917D01*
X124283477Y-88598816D01*
X124284417Y-88595715D01*
X124284672Y-88594370D01*
X124285245Y-88592989D01*
X124287777Y-88580263D01*
X124308518Y-88475990D01*
X124316008Y-88438334D01*
X124316008Y-88280650D01*
X124316008Y-88280647D01*
X124316007Y-88280645D01*
X124314797Y-88274560D01*
X124285245Y-88125995D01*
X124272548Y-88095341D01*
X124224905Y-87980319D01*
X124224898Y-87980306D01*
X124137297Y-87849203D01*
X124137294Y-87849199D01*
X124025800Y-87737705D01*
X124025796Y-87737702D01*
X123894693Y-87650101D01*
X123894680Y-87650094D01*
X123749009Y-87589756D01*
X123748997Y-87589753D01*
X123594353Y-87558992D01*
X123594350Y-87558992D01*
X123436666Y-87558992D01*
X123436663Y-87558992D01*
X123282018Y-87589753D01*
X123282006Y-87589756D01*
X123136335Y-87650094D01*
X123136322Y-87650101D01*
X123005219Y-87737702D01*
X123005215Y-87737705D01*
X122893721Y-87849199D01*
X122893718Y-87849203D01*
X122806117Y-87980306D01*
X122806110Y-87980319D01*
X122745772Y-88125990D01*
X122745769Y-88126002D01*
X122715008Y-88280645D01*
X122715008Y-88311013D01*
X122695323Y-88378052D01*
X122678689Y-88398694D01*
X122002181Y-89075202D01*
X121940858Y-89108687D01*
X121871166Y-89103703D01*
X121815233Y-89061831D01*
X121790816Y-88996367D01*
X121790500Y-88987521D01*
X121790500Y-86167940D01*
X121810185Y-86100901D01*
X121826819Y-86080259D01*
X123250259Y-84656819D01*
X123311582Y-84623334D01*
X123337940Y-84620500D01*
X128438844Y-84620500D01*
X128438845Y-84620499D01*
X128593497Y-84589737D01*
X128739179Y-84529394D01*
X128870289Y-84441789D01*
X128981789Y-84330289D01*
X129069394Y-84199179D01*
X129129737Y-84053497D01*
X129160500Y-83898842D01*
X129160500Y-83741158D01*
X129160500Y-83741155D01*
X129160499Y-83741153D01*
X129136254Y-83619267D01*
X129129737Y-83586503D01*
X129129735Y-83586498D01*
X129069397Y-83440827D01*
X129069390Y-83440814D01*
X128981789Y-83309711D01*
X128981786Y-83309707D01*
X128870292Y-83198213D01*
X128870288Y-83198210D01*
X128739185Y-83110609D01*
X128739172Y-83110602D01*
X128593501Y-83050264D01*
X128593489Y-83050261D01*
X128438845Y-83019500D01*
X128438842Y-83019500D01*
X123033843Y-83019500D01*
X122876158Y-83019500D01*
X122876153Y-83019500D01*
X122721510Y-83050260D01*
X122721502Y-83050262D01*
X122575824Y-83110604D01*
X122575814Y-83110609D01*
X122444711Y-83198210D01*
X122444707Y-83198213D01*
X120922108Y-84720814D01*
X120479711Y-85163211D01*
X120433533Y-85209389D01*
X120368209Y-85274712D01*
X120280609Y-85405814D01*
X120280602Y-85405827D01*
X120220264Y-85551498D01*
X120220261Y-85551510D01*
X120189500Y-85706153D01*
X120189500Y-98436818D01*
X120171039Y-98501915D01*
X120169661Y-98504148D01*
X120169660Y-98504150D01*
X120157301Y-98524187D01*
X120079093Y-98650981D01*
X120079092Y-98650984D01*
X120024826Y-98814747D01*
X120024826Y-98814748D01*
X120024825Y-98814748D01*
X120014500Y-98915815D01*
X120014500Y-99614169D01*
X120014501Y-99614187D01*
X120024825Y-99715252D01*
X120051190Y-99794815D01*
X120079092Y-99879016D01*
X120157527Y-100006180D01*
X120169661Y-100025851D01*
X120183982Y-100040172D01*
X120217467Y-100101495D01*
X120212483Y-100171187D01*
X120183985Y-100215532D01*
X120170052Y-100229465D01*
X120079551Y-100376188D01*
X120079546Y-100376199D01*
X120025319Y-100539847D01*
X120015000Y-100640845D01*
X120015000Y-100740000D01*
X120866000Y-100740000D01*
X120933039Y-100759685D01*
X120978794Y-100812489D01*
X120990000Y-100864000D01*
X120990000Y-100990000D01*
X121116000Y-100990000D01*
X121183039Y-101009685D01*
X121228794Y-101062489D01*
X121240000Y-101114000D01*
X121240000Y-102027499D01*
X121276640Y-102027499D01*
X121276654Y-102027498D01*
X121377652Y-102017180D01*
X121541300Y-101962953D01*
X121541311Y-101962948D01*
X121688034Y-101872447D01*
X121688038Y-101872444D01*
X121809944Y-101750538D01*
X121809947Y-101750534D01*
X121900448Y-101603811D01*
X121900453Y-101603800D01*
X121954680Y-101440152D01*
X121964999Y-101339154D01*
X121965000Y-101339141D01*
X121965000Y-101224500D01*
X121984685Y-101157461D01*
X122037489Y-101111706D01*
X122089000Y-101100500D01*
X128043059Y-101100500D01*
X128110098Y-101120185D01*
X128155853Y-101172989D01*
X128165797Y-101242147D01*
X128136772Y-101305703D01*
X128130740Y-101312181D01*
X128053213Y-101389707D01*
X128053210Y-101389711D01*
X127965609Y-101520814D01*
X127965602Y-101520827D01*
X127905264Y-101666498D01*
X127905261Y-101666510D01*
X127874500Y-101821153D01*
X127874500Y-101978846D01*
X127905261Y-102133489D01*
X127905264Y-102133501D01*
X127965602Y-102279172D01*
X127965609Y-102279185D01*
X128053210Y-102410288D01*
X128053213Y-102410292D01*
X128164708Y-102521787D01*
X128164711Y-102521789D01*
X128295821Y-102609394D01*
X128295825Y-102609395D01*
X128295890Y-102609439D01*
X128340696Y-102663051D01*
X128351000Y-102712542D01*
X128351000Y-105673000D01*
X128331315Y-105740039D01*
X128278511Y-105785794D01*
X128227000Y-105797000D01*
X127943796Y-105797000D01*
X127943789Y-105797001D01*
X127884182Y-105803408D01*
X127749337Y-105853702D01*
X127749330Y-105853706D01*
X127634121Y-105939952D01*
X127634119Y-105939954D01*
X127629265Y-105946439D01*
X127573330Y-105988309D01*
X127503638Y-105993291D01*
X127442316Y-105959805D01*
X127430735Y-105946439D01*
X127425880Y-105939954D01*
X127425878Y-105939952D01*
X127310669Y-105853706D01*
X127310662Y-105853702D01*
X127175816Y-105803408D01*
X127175817Y-105803408D01*
X127116217Y-105797001D01*
X127116215Y-105797000D01*
X127116207Y-105797000D01*
X127116199Y-105797000D01*
X126833000Y-105797000D01*
X126824314Y-105794449D01*
X126815353Y-105795738D01*
X126791312Y-105784759D01*
X126765961Y-105777315D01*
X126760033Y-105770474D01*
X126751797Y-105766713D01*
X126737507Y-105744478D01*
X126720206Y-105724511D01*
X126717918Y-105713996D01*
X126714023Y-105707935D01*
X126709000Y-105673000D01*
X126709000Y-105624440D01*
X126728685Y-105557401D01*
X126745320Y-105536758D01*
X126796786Y-105485292D01*
X126796789Y-105485289D01*
X126884394Y-105354179D01*
X126944737Y-105208497D01*
X126975500Y-105053842D01*
X126975500Y-104896158D01*
X126975500Y-104896155D01*
X126975499Y-104896153D01*
X126944738Y-104741510D01*
X126944737Y-104741503D01*
X126944735Y-104741498D01*
X126884397Y-104595827D01*
X126884390Y-104595814D01*
X126796789Y-104464711D01*
X126796786Y-104464707D01*
X126685292Y-104353213D01*
X126685288Y-104353210D01*
X126554185Y-104265609D01*
X126554172Y-104265602D01*
X126408501Y-104205264D01*
X126408489Y-104205261D01*
X126253845Y-104174500D01*
X126253842Y-104174500D01*
X126096158Y-104174500D01*
X126096155Y-104174500D01*
X125941510Y-104205261D01*
X125941498Y-104205264D01*
X125795827Y-104265602D01*
X125795814Y-104265609D01*
X125664711Y-104353210D01*
X125664707Y-104353213D01*
X125553213Y-104464707D01*
X125553210Y-104464711D01*
X125465609Y-104595814D01*
X125465602Y-104595827D01*
X125405264Y-104741498D01*
X125405261Y-104741510D01*
X125374500Y-104896153D01*
X125374500Y-105053846D01*
X125405261Y-105208489D01*
X125405264Y-105208501D01*
X125465602Y-105354172D01*
X125465609Y-105354185D01*
X125556595Y-105490354D01*
X125555499Y-105491085D01*
X125562556Y-105507700D01*
X125575977Y-105528583D01*
X125578305Y-105544779D01*
X125580166Y-105549159D01*
X125581000Y-105563518D01*
X125581000Y-105673000D01*
X125561315Y-105740039D01*
X125508511Y-105785794D01*
X125457000Y-105797000D01*
X125173796Y-105797000D01*
X125173789Y-105797001D01*
X125114182Y-105803408D01*
X124979337Y-105853702D01*
X124979330Y-105853706D01*
X124864121Y-105939952D01*
X124864118Y-105939955D01*
X124777872Y-106055164D01*
X124777868Y-106055171D01*
X124727574Y-106190017D01*
X124721167Y-106249616D01*
X124721166Y-106249627D01*
X124721166Y-108017815D01*
X124721167Y-109376000D01*
X124701482Y-109443039D01*
X124648678Y-109488794D01*
X124597167Y-109500000D01*
X113601300Y-109500000D01*
X113534261Y-109480315D01*
X113488506Y-109427511D01*
X113477300Y-109376000D01*
X113477300Y-104433315D01*
X119092000Y-104433315D01*
X119092000Y-105006669D01*
X119092001Y-105006687D01*
X119102325Y-105107752D01*
X119156592Y-105271515D01*
X119156593Y-105271518D01*
X119190895Y-105327129D01*
X119247160Y-105418350D01*
X119369150Y-105540340D01*
X119515984Y-105630908D01*
X119679747Y-105685174D01*
X119780823Y-105695500D01*
X120379176Y-105695499D01*
X120379184Y-105695498D01*
X120379187Y-105695498D01*
X120434530Y-105689844D01*
X120480253Y-105685174D01*
X120644016Y-105630908D01*
X120790850Y-105540340D01*
X120904819Y-105426371D01*
X120966142Y-105392886D01*
X121035834Y-105397870D01*
X121080181Y-105426371D01*
X121194150Y-105540340D01*
X121340984Y-105630908D01*
X121504747Y-105685174D01*
X121605823Y-105695500D01*
X122204176Y-105695499D01*
X122204184Y-105695498D01*
X122204187Y-105695498D01*
X122259530Y-105689844D01*
X122305253Y-105685174D01*
X122469016Y-105630908D01*
X122615850Y-105540340D01*
X122737840Y-105418350D01*
X122828408Y-105271516D01*
X122882674Y-105107753D01*
X122893000Y-105006677D01*
X122892999Y-104433324D01*
X122884815Y-104353211D01*
X122882674Y-104332247D01*
X122860591Y-104265606D01*
X122828408Y-104168484D01*
X122737840Y-104021650D01*
X122615850Y-103899660D01*
X122469016Y-103809092D01*
X122305253Y-103754826D01*
X122305251Y-103754825D01*
X122204178Y-103744500D01*
X121605830Y-103744500D01*
X121605812Y-103744501D01*
X121504747Y-103754825D01*
X121340984Y-103809092D01*
X121340981Y-103809093D01*
X121194148Y-103899661D01*
X121080181Y-104013629D01*
X121018858Y-104047114D01*
X120949166Y-104042130D01*
X120904819Y-104013629D01*
X120790851Y-103899661D01*
X120790850Y-103899660D01*
X120644016Y-103809092D01*
X120480253Y-103754826D01*
X120480251Y-103754825D01*
X120379178Y-103744500D01*
X119780830Y-103744500D01*
X119780812Y-103744501D01*
X119679747Y-103754825D01*
X119515984Y-103809092D01*
X119515981Y-103809093D01*
X119369148Y-103899661D01*
X119247161Y-104021648D01*
X119156593Y-104168481D01*
X119156591Y-104168486D01*
X119144404Y-104205264D01*
X119102326Y-104332247D01*
X119102326Y-104332248D01*
X119102325Y-104332248D01*
X119092000Y-104433315D01*
X113477300Y-104433315D01*
X113477300Y-97353713D01*
X114874500Y-97353713D01*
X114874500Y-97566287D01*
X114907754Y-97776243D01*
X114970795Y-97970263D01*
X114973444Y-97978414D01*
X115069951Y-98167820D01*
X115194890Y-98339786D01*
X115308430Y-98453326D01*
X115341915Y-98514649D01*
X115336931Y-98584341D01*
X115295059Y-98640274D01*
X115264083Y-98657189D01*
X115132669Y-98706203D01*
X115132664Y-98706206D01*
X115017455Y-98792452D01*
X115017452Y-98792455D01*
X114931206Y-98907664D01*
X114931202Y-98907671D01*
X114880908Y-99042517D01*
X114875294Y-99094738D01*
X114874501Y-99102123D01*
X114874500Y-99102135D01*
X114874500Y-100897870D01*
X114874501Y-100897876D01*
X114880908Y-100957483D01*
X114931202Y-101092328D01*
X114931206Y-101092335D01*
X115017452Y-101207544D01*
X115017455Y-101207547D01*
X115132664Y-101293793D01*
X115132671Y-101293797D01*
X115267517Y-101344091D01*
X115267516Y-101344091D01*
X115274444Y-101344835D01*
X115327127Y-101350500D01*
X117122872Y-101350499D01*
X117182483Y-101344091D01*
X117195720Y-101339154D01*
X120015001Y-101339154D01*
X120025319Y-101440152D01*
X120079546Y-101603800D01*
X120079551Y-101603811D01*
X120170052Y-101750534D01*
X120170055Y-101750538D01*
X120291961Y-101872444D01*
X120291965Y-101872447D01*
X120438688Y-101962948D01*
X120438699Y-101962953D01*
X120602347Y-102017180D01*
X120703352Y-102027499D01*
X120740000Y-102027499D01*
X120740000Y-101240000D01*
X120015001Y-101240000D01*
X120015001Y-101339154D01*
X117195720Y-101339154D01*
X117317331Y-101293796D01*
X117432546Y-101207546D01*
X117494166Y-101125233D01*
X117502331Y-101114326D01*
X117502332Y-101114325D01*
X117512444Y-101100816D01*
X117518796Y-101092331D01*
X117569091Y-100957483D01*
X117575500Y-100897873D01*
X117575499Y-99102128D01*
X117569091Y-99042517D01*
X117567444Y-99038102D01*
X117518797Y-98907671D01*
X117518793Y-98907664D01*
X117432547Y-98792455D01*
X117432544Y-98792452D01*
X117317335Y-98706206D01*
X117317328Y-98706202D01*
X117185917Y-98657189D01*
X117129983Y-98615318D01*
X117105566Y-98549853D01*
X117120418Y-98481580D01*
X117141563Y-98453332D01*
X117255104Y-98339792D01*
X117380051Y-98167816D01*
X117476557Y-97978412D01*
X117542246Y-97776243D01*
X117575500Y-97566287D01*
X117575500Y-97353713D01*
X117542246Y-97143757D01*
X117476557Y-96941588D01*
X117380051Y-96752184D01*
X117380049Y-96752181D01*
X117380048Y-96752179D01*
X117255109Y-96580213D01*
X117104786Y-96429890D01*
X116932820Y-96304951D01*
X116743414Y-96208444D01*
X116743413Y-96208443D01*
X116743412Y-96208443D01*
X116541243Y-96142754D01*
X116541241Y-96142753D01*
X116541240Y-96142753D01*
X116349186Y-96112335D01*
X116331287Y-96109500D01*
X116118713Y-96109500D01*
X116100814Y-96112335D01*
X115908760Y-96142753D01*
X115908757Y-96142754D01*
X115720318Y-96203982D01*
X115706585Y-96208444D01*
X115517179Y-96304951D01*
X115345213Y-96429890D01*
X115194890Y-96580213D01*
X115069951Y-96752179D01*
X114973444Y-96941585D01*
X114907753Y-97143760D01*
X114883190Y-97298849D01*
X114874500Y-97353713D01*
X113477300Y-97353713D01*
X113477300Y-89138315D01*
X113862000Y-89138315D01*
X113862000Y-89711669D01*
X113862001Y-89711687D01*
X113872325Y-89812752D01*
X113926592Y-89976515D01*
X113926593Y-89976518D01*
X113939051Y-89996715D01*
X114014931Y-90119737D01*
X114017161Y-90123351D01*
X114139149Y-90245339D01*
X114139153Y-90245342D01*
X114271819Y-90327172D01*
X114318544Y-90379120D01*
X114329765Y-90448082D01*
X114301922Y-90512164D01*
X114271819Y-90538248D01*
X114164153Y-90604657D01*
X114164149Y-90604660D01*
X114042161Y-90726648D01*
X113951593Y-90873481D01*
X113951592Y-90873484D01*
X113897326Y-91037247D01*
X113897326Y-91037248D01*
X113897325Y-91037248D01*
X113887000Y-91138315D01*
X113887000Y-91711669D01*
X113887001Y-91711687D01*
X113897325Y-91812752D01*
X113909103Y-91848294D01*
X113946645Y-91961588D01*
X113951592Y-91976515D01*
X113951593Y-91976518D01*
X113974096Y-92013001D01*
X114042160Y-92123350D01*
X114164150Y-92245340D01*
X114310984Y-92335908D01*
X114474747Y-92390174D01*
X114575823Y-92400500D01*
X115174176Y-92400499D01*
X115174184Y-92400498D01*
X115174187Y-92400498D01*
X115229530Y-92394844D01*
X115275253Y-92390174D01*
X115439016Y-92335908D01*
X115585850Y-92245340D01*
X115699819Y-92131371D01*
X115761142Y-92097886D01*
X115830834Y-92102870D01*
X115875181Y-92131371D01*
X115989150Y-92245340D01*
X116135984Y-92335908D01*
X116299747Y-92390174D01*
X116400823Y-92400500D01*
X116999176Y-92400499D01*
X116999184Y-92400498D01*
X116999187Y-92400498D01*
X117054530Y-92394844D01*
X117100253Y-92390174D01*
X117264016Y-92335908D01*
X117288348Y-92320900D01*
X117332024Y-92293961D01*
X117397120Y-92275500D01*
X117516344Y-92275500D01*
X117516345Y-92275499D01*
X117670997Y-92244737D01*
X117816679Y-92184394D01*
X117947789Y-92096789D01*
X118059289Y-91985289D01*
X118146894Y-91854179D01*
X118207237Y-91708497D01*
X118238000Y-91553842D01*
X118238000Y-91396158D01*
X118238000Y-91396155D01*
X118237999Y-91396153D01*
X118223836Y-91324951D01*
X118207237Y-91241503D01*
X118203604Y-91232732D01*
X118146897Y-91095827D01*
X118146890Y-91095814D01*
X118059289Y-90964711D01*
X118059286Y-90964707D01*
X117947792Y-90853213D01*
X117947788Y-90853210D01*
X117816685Y-90765609D01*
X117816672Y-90765602D01*
X117671001Y-90705264D01*
X117670989Y-90705261D01*
X117510368Y-90673311D01*
X117510792Y-90671176D01*
X117461498Y-90652787D01*
X117452885Y-90646695D01*
X117410850Y-90604660D01*
X117274865Y-90520784D01*
X117271673Y-90518526D01*
X117252309Y-90494064D01*
X117231455Y-90470879D01*
X117230807Y-90466902D01*
X117228307Y-90463743D01*
X117225242Y-90432695D01*
X117220234Y-90401917D01*
X117221839Y-90398222D01*
X117221443Y-90394211D01*
X117235649Y-90366436D01*
X117248077Y-90337835D01*
X117252033Y-90334406D01*
X117253261Y-90332007D01*
X117257951Y-90329278D01*
X117278177Y-90311752D01*
X117385850Y-90245340D01*
X117445424Y-90185765D01*
X117506743Y-90152283D01*
X117510372Y-90151712D01*
X117510368Y-90151689D01*
X117612509Y-90131371D01*
X117670997Y-90119737D01*
X117816679Y-90059394D01*
X117947789Y-89971789D01*
X118059289Y-89860289D01*
X118146894Y-89729179D01*
X118207237Y-89583497D01*
X118238000Y-89428842D01*
X118238000Y-89271158D01*
X118238000Y-89271155D01*
X118237999Y-89271153D01*
X118232757Y-89244800D01*
X118207237Y-89116503D01*
X118201935Y-89103703D01*
X118146897Y-88970827D01*
X118146890Y-88970814D01*
X118059289Y-88839711D01*
X118059286Y-88839707D01*
X117947792Y-88728213D01*
X117947788Y-88728210D01*
X117816685Y-88640609D01*
X117816672Y-88640602D01*
X117671001Y-88580264D01*
X117670989Y-88580261D01*
X117516345Y-88549500D01*
X117516342Y-88549500D01*
X117358658Y-88549500D01*
X117352596Y-88550097D01*
X117352461Y-88548734D01*
X117289790Y-88543116D01*
X117288824Y-88542731D01*
X117279066Y-88538794D01*
X117239016Y-88514092D01*
X117120298Y-88474752D01*
X117116650Y-88473281D01*
X117092206Y-88453955D01*
X117066587Y-88436217D01*
X117065027Y-88432466D01*
X117061841Y-88429947D01*
X117051724Y-88400468D01*
X117039764Y-88371701D01*
X117040479Y-88367703D01*
X117039161Y-88363861D01*
X117046586Y-88333596D01*
X117052079Y-88302925D01*
X117054843Y-88299948D01*
X117055811Y-88296004D01*
X117078418Y-88274560D01*
X117099622Y-88251726D01*
X117105155Y-88249198D01*
X117106504Y-88247920D01*
X117108990Y-88247447D01*
X117124032Y-88240578D01*
X117125250Y-88240174D01*
X117125253Y-88240174D01*
X117289016Y-88185908D01*
X117435850Y-88095340D01*
X117454551Y-88076637D01*
X117515868Y-88043154D01*
X117517878Y-88042734D01*
X117633497Y-88019737D01*
X117779179Y-87959394D01*
X117910289Y-87871789D01*
X118021789Y-87760289D01*
X118109394Y-87629179D01*
X118169737Y-87483497D01*
X118200500Y-87328842D01*
X118200500Y-87171158D01*
X118200500Y-87171155D01*
X118200499Y-87171153D01*
X118183115Y-87083757D01*
X118169737Y-87016503D01*
X118163632Y-87001764D01*
X118109397Y-86870827D01*
X118109390Y-86870814D01*
X118021789Y-86739711D01*
X118021786Y-86739707D01*
X117910292Y-86628213D01*
X117910288Y-86628210D01*
X117779185Y-86540609D01*
X117779172Y-86540602D01*
X117633501Y-86480264D01*
X117633489Y-86480261D01*
X117478845Y-86449500D01*
X117478842Y-86449500D01*
X117462651Y-86449500D01*
X117450525Y-86446690D01*
X117441701Y-86447717D01*
X117420675Y-86439773D01*
X117408117Y-86436864D01*
X117402686Y-86434204D01*
X117289016Y-86364092D01*
X117197750Y-86333849D01*
X117190196Y-86330150D01*
X117170376Y-86312017D01*
X117148280Y-86296719D01*
X117144981Y-86288785D01*
X117138645Y-86282988D01*
X117131773Y-86257016D01*
X117121458Y-86232203D01*
X117122972Y-86223746D01*
X117120775Y-86215442D01*
X117129037Y-86189875D01*
X117133773Y-86163427D01*
X117139618Y-86157132D01*
X117142260Y-86148958D01*
X117163032Y-86131917D01*
X117181317Y-86112227D01*
X117194216Y-86106336D01*
X117196279Y-86104644D01*
X117198483Y-86104387D01*
X117205714Y-86101085D01*
X117251516Y-86085908D01*
X117398350Y-85995340D01*
X117457924Y-85935765D01*
X117519243Y-85902283D01*
X117522872Y-85901712D01*
X117522868Y-85901689D01*
X117625009Y-85881371D01*
X117683497Y-85869737D01*
X117829179Y-85809394D01*
X117960289Y-85721789D01*
X118071789Y-85610289D01*
X118159394Y-85479179D01*
X118219737Y-85333497D01*
X118250500Y-85178842D01*
X118250500Y-85021158D01*
X118250500Y-85021155D01*
X118250499Y-85021153D01*
X118224077Y-84888323D01*
X118219737Y-84866503D01*
X118186909Y-84787248D01*
X118159397Y-84720827D01*
X118159390Y-84720814D01*
X118071789Y-84589711D01*
X118071786Y-84589707D01*
X117960292Y-84478213D01*
X117960288Y-84478210D01*
X117829185Y-84390609D01*
X117829172Y-84390602D01*
X117683501Y-84330264D01*
X117683489Y-84330261D01*
X117528845Y-84299500D01*
X117528842Y-84299500D01*
X117371158Y-84299500D01*
X117365096Y-84300097D01*
X117364973Y-84298854D01*
X117336675Y-84296198D01*
X117302290Y-84293116D01*
X117302079Y-84292952D01*
X117301811Y-84292927D01*
X117282614Y-84283273D01*
X117251522Y-84264095D01*
X117251517Y-84264093D01*
X117251516Y-84264092D01*
X117149252Y-84230205D01*
X117091809Y-84190433D01*
X117064986Y-84125917D01*
X117077301Y-84057142D01*
X117124844Y-84005942D01*
X117149250Y-83994795D01*
X117251516Y-83960908D01*
X117272894Y-83947721D01*
X117319524Y-83918961D01*
X117342012Y-83912583D01*
X117360955Y-83902779D01*
X117372698Y-83903880D01*
X117384620Y-83900500D01*
X117503844Y-83900500D01*
X117503845Y-83900499D01*
X117658497Y-83869737D01*
X117804179Y-83809394D01*
X117935289Y-83721789D01*
X118046789Y-83610289D01*
X118134394Y-83479179D01*
X118194737Y-83333497D01*
X118225500Y-83178842D01*
X118225500Y-83021158D01*
X118225500Y-83021155D01*
X118225499Y-83021153D01*
X118194738Y-82866510D01*
X118194737Y-82866503D01*
X118151999Y-82763323D01*
X118134397Y-82720827D01*
X118134390Y-82720814D01*
X118046789Y-82589711D01*
X118046786Y-82589707D01*
X117935292Y-82478213D01*
X117935288Y-82478210D01*
X117804185Y-82390609D01*
X117804172Y-82390602D01*
X117658501Y-82330264D01*
X117658489Y-82330261D01*
X117497868Y-82298311D01*
X117498350Y-82295884D01*
X117443628Y-82273766D01*
X117432921Y-82264231D01*
X117398351Y-82229661D01*
X117398350Y-82229660D01*
X117251516Y-82139092D01*
X117087753Y-82084826D01*
X117087751Y-82084825D01*
X116986678Y-82074500D01*
X116388330Y-82074500D01*
X116388312Y-82074501D01*
X116287247Y-82084825D01*
X116123484Y-82139092D01*
X116123481Y-82139093D01*
X115976648Y-82229661D01*
X115862681Y-82343629D01*
X115801358Y-82377114D01*
X115731666Y-82372130D01*
X115687319Y-82343629D01*
X115573351Y-82229661D01*
X115573350Y-82229660D01*
X115426516Y-82139092D01*
X115262753Y-82084826D01*
X115262751Y-82084825D01*
X115161678Y-82074500D01*
X114563330Y-82074500D01*
X114563312Y-82074501D01*
X114462247Y-82084825D01*
X114298484Y-82139092D01*
X114298481Y-82139093D01*
X114151648Y-82229661D01*
X114029661Y-82351648D01*
X113939093Y-82498481D01*
X113939092Y-82498484D01*
X113884826Y-82662247D01*
X113884826Y-82662248D01*
X113884825Y-82662248D01*
X113874500Y-82763315D01*
X113874500Y-83336669D01*
X113874501Y-83336687D01*
X113884825Y-83437752D01*
X113907834Y-83507187D01*
X113934119Y-83586510D01*
X113939092Y-83601515D01*
X113939093Y-83601518D01*
X113950039Y-83619264D01*
X114029660Y-83748350D01*
X114151650Y-83870340D01*
X114298484Y-83960908D01*
X114400746Y-83994794D01*
X114458190Y-84034565D01*
X114485013Y-84099081D01*
X114472698Y-84167857D01*
X114425156Y-84219057D01*
X114400746Y-84230204D01*
X114298492Y-84264088D01*
X114298481Y-84264093D01*
X114151648Y-84354661D01*
X114029661Y-84476648D01*
X113939093Y-84623481D01*
X113939092Y-84623484D01*
X113884826Y-84787247D01*
X113884826Y-84787248D01*
X113884825Y-84787248D01*
X113874500Y-84888315D01*
X113874500Y-85461669D01*
X113874501Y-85461687D01*
X113884825Y-85562752D01*
X113907197Y-85630264D01*
X113938521Y-85724794D01*
X113939092Y-85726515D01*
X113939093Y-85726518D01*
X113968649Y-85774435D01*
X114029660Y-85873350D01*
X114151650Y-85995340D01*
X114298484Y-86085908D01*
X114381774Y-86113507D01*
X114439218Y-86153280D01*
X114466041Y-86217796D01*
X114453726Y-86286571D01*
X114406183Y-86337771D01*
X114381777Y-86348917D01*
X114335984Y-86364092D01*
X114335981Y-86364093D01*
X114189148Y-86454661D01*
X114067161Y-86576648D01*
X113976593Y-86723481D01*
X113976591Y-86723486D01*
X113967507Y-86750900D01*
X113922326Y-86887247D01*
X113922326Y-86887248D01*
X113922325Y-86887248D01*
X113912000Y-86988315D01*
X113912000Y-87561669D01*
X113912001Y-87561687D01*
X113922325Y-87662752D01*
X113976592Y-87826515D01*
X113976593Y-87826518D01*
X113990583Y-87849199D01*
X114067160Y-87973350D01*
X114189150Y-88095340D01*
X114335984Y-88185908D01*
X114450969Y-88224010D01*
X114508412Y-88263781D01*
X114535235Y-88328297D01*
X114522920Y-88397073D01*
X114475377Y-88448273D01*
X114450968Y-88459421D01*
X114285984Y-88514092D01*
X114285981Y-88514093D01*
X114139148Y-88604661D01*
X114017161Y-88726648D01*
X113926593Y-88873481D01*
X113926592Y-88873484D01*
X113872326Y-89037247D01*
X113872326Y-89037248D01*
X113872325Y-89037248D01*
X113862000Y-89138315D01*
X113477300Y-89138315D01*
X113477300Y-77458178D01*
X126688000Y-77458178D01*
X126688000Y-77656821D01*
X126719075Y-77853020D01*
X126719075Y-77853023D01*
X126780457Y-78041937D01*
X126870641Y-78218932D01*
X126897730Y-78256215D01*
X126897731Y-78256216D01*
X127499697Y-77654249D01*
X127521349Y-77735053D01*
X127581909Y-77839946D01*
X127667554Y-77925591D01*
X127772447Y-77986151D01*
X127853250Y-78007802D01*
X127251283Y-78609768D01*
X127251283Y-78609769D01*
X127288567Y-78636858D01*
X127465562Y-78727042D01*
X127654477Y-78788424D01*
X127850679Y-78819500D01*
X128049321Y-78819500D01*
X128245520Y-78788424D01*
X128245523Y-78788424D01*
X128434437Y-78727042D01*
X128611425Y-78636862D01*
X128648716Y-78609768D01*
X128046750Y-78007802D01*
X128127553Y-77986151D01*
X128232446Y-77925591D01*
X128318091Y-77839946D01*
X128378651Y-77735053D01*
X128400302Y-77654249D01*
X129002268Y-78256215D01*
X129029364Y-78218922D01*
X129089234Y-78101421D01*
X129137208Y-78050624D01*
X129205029Y-78033829D01*
X129271164Y-78056366D01*
X129310203Y-78101419D01*
X129370213Y-78219194D01*
X129487019Y-78379964D01*
X129627536Y-78520481D01*
X129788306Y-78637287D01*
X129837220Y-78662210D01*
X129965367Y-78727505D01*
X129965370Y-78727506D01*
X130047872Y-78754312D01*
X130154364Y-78788913D01*
X130350639Y-78820000D01*
X130350640Y-78820000D01*
X130549360Y-78820000D01*
X130549361Y-78820000D01*
X130745636Y-78788913D01*
X130934632Y-78727505D01*
X131111694Y-78637287D01*
X131272464Y-78520481D01*
X131362319Y-78430626D01*
X131423642Y-78397141D01*
X131493334Y-78402125D01*
X131537681Y-78430626D01*
X131627536Y-78520481D01*
X131788306Y-78637287D01*
X131837220Y-78662210D01*
X131965367Y-78727505D01*
X131965370Y-78727506D01*
X132047872Y-78754312D01*
X132154364Y-78788913D01*
X132350639Y-78820000D01*
X132350640Y-78820000D01*
X132549360Y-78820000D01*
X132549361Y-78820000D01*
X132745636Y-78788913D01*
X132934632Y-78727505D01*
X133111694Y-78637287D01*
X133272464Y-78520481D01*
X133412981Y-78379964D01*
X133502583Y-78256636D01*
X133557913Y-78213971D01*
X133627526Y-78207992D01*
X133689321Y-78240598D01*
X133720606Y-78290516D01*
X133753186Y-78388834D01*
X133845288Y-78538156D01*
X133969344Y-78662212D01*
X134118666Y-78754314D01*
X134285203Y-78809499D01*
X134387991Y-78820000D01*
X135512008Y-78819999D01*
X135614797Y-78809499D01*
X135781334Y-78754314D01*
X135930656Y-78662212D01*
X136054712Y-78538156D01*
X136146814Y-78388834D01*
X136201999Y-78222297D01*
X136212500Y-78119509D01*
X136212499Y-77142135D01*
X143574500Y-77142135D01*
X143574500Y-78937870D01*
X143574501Y-78937876D01*
X143580908Y-78997483D01*
X143631202Y-79132328D01*
X143631206Y-79132335D01*
X143717452Y-79247544D01*
X143717455Y-79247547D01*
X143832664Y-79333793D01*
X143832671Y-79333797D01*
X143964082Y-79382810D01*
X144020016Y-79424681D01*
X144044433Y-79490145D01*
X144029582Y-79558418D01*
X144008431Y-79586673D01*
X143894889Y-79700215D01*
X143769951Y-79872179D01*
X143673444Y-80061585D01*
X143607753Y-80263760D01*
X143574500Y-80473713D01*
X143574500Y-80686286D01*
X143607753Y-80896239D01*
X143673444Y-81098414D01*
X143769951Y-81287820D01*
X143894890Y-81459786D01*
X144045213Y-81610109D01*
X144217179Y-81735048D01*
X144217181Y-81735049D01*
X144217184Y-81735051D01*
X144406588Y-81831557D01*
X144608757Y-81897246D01*
X144818713Y-81930500D01*
X144818714Y-81930500D01*
X145031286Y-81930500D01*
X145031287Y-81930500D01*
X145241243Y-81897246D01*
X145443412Y-81831557D01*
X145632816Y-81735051D01*
X145654789Y-81719086D01*
X145804786Y-81610109D01*
X145804788Y-81610106D01*
X145804792Y-81610104D01*
X145955104Y-81459792D01*
X145955106Y-81459788D01*
X145955109Y-81459786D01*
X146080048Y-81287820D01*
X146080047Y-81287820D01*
X146080051Y-81287816D01*
X146176557Y-81098412D01*
X146242246Y-80896243D01*
X146275500Y-80686287D01*
X146275500Y-80473713D01*
X146242246Y-80263757D01*
X146176557Y-80061588D01*
X146080051Y-79872184D01*
X146080049Y-79872181D01*
X146080048Y-79872179D01*
X145955109Y-79700213D01*
X145841569Y-79586673D01*
X145808084Y-79525350D01*
X145813068Y-79455658D01*
X145854940Y-79399725D01*
X145885915Y-79382810D01*
X146017331Y-79333796D01*
X146132546Y-79247546D01*
X146218796Y-79132331D01*
X146269091Y-78997483D01*
X146275500Y-78937873D01*
X146275499Y-77142128D01*
X146269091Y-77082517D01*
X146265492Y-77072868D01*
X146218797Y-76947671D01*
X146218793Y-76947664D01*
X146132547Y-76832455D01*
X146132544Y-76832452D01*
X146017335Y-76746206D01*
X146017328Y-76746202D01*
X145882482Y-76695908D01*
X145882483Y-76695908D01*
X145822883Y-76689501D01*
X145822881Y-76689500D01*
X145822873Y-76689500D01*
X145822864Y-76689500D01*
X144027129Y-76689500D01*
X144027123Y-76689501D01*
X143967516Y-76695908D01*
X143832671Y-76746202D01*
X143832664Y-76746206D01*
X143717455Y-76832452D01*
X143717452Y-76832455D01*
X143631206Y-76947664D01*
X143631202Y-76947671D01*
X143580908Y-77082517D01*
X143574501Y-77142116D01*
X143574501Y-77142123D01*
X143574500Y-77142135D01*
X136212499Y-77142135D01*
X136212499Y-76995492D01*
X136201999Y-76892703D01*
X136146814Y-76726166D01*
X136144437Y-76722313D01*
X136083099Y-76622867D01*
X136083098Y-76622866D01*
X136054712Y-76576844D01*
X135930656Y-76452788D01*
X135781334Y-76360686D01*
X135614797Y-76305501D01*
X135614795Y-76305500D01*
X135512010Y-76295000D01*
X134387998Y-76295000D01*
X134387981Y-76295001D01*
X134285203Y-76305500D01*
X134285200Y-76305501D01*
X134118668Y-76360685D01*
X134118663Y-76360687D01*
X133969342Y-76452789D01*
X133845289Y-76576842D01*
X133753187Y-76726163D01*
X133753186Y-76726166D01*
X133720607Y-76824482D01*
X133680834Y-76881927D01*
X133616317Y-76908749D01*
X133547542Y-76896434D01*
X133502583Y-76858363D01*
X133483759Y-76832454D01*
X133412981Y-76735036D01*
X133272464Y-76594519D01*
X133111694Y-76477713D01*
X132934632Y-76387494D01*
X132934629Y-76387493D01*
X132745637Y-76326087D01*
X132647498Y-76310543D01*
X132549361Y-76295000D01*
X132350639Y-76295000D01*
X132285214Y-76305362D01*
X132154362Y-76326087D01*
X131965370Y-76387493D01*
X131965367Y-76387494D01*
X131788305Y-76477713D01*
X131627533Y-76594521D01*
X131537681Y-76684374D01*
X131476358Y-76717859D01*
X131406666Y-76712875D01*
X131362319Y-76684374D01*
X131272466Y-76594521D01*
X131272464Y-76594519D01*
X131111694Y-76477713D01*
X130934632Y-76387494D01*
X130934629Y-76387493D01*
X130745637Y-76326087D01*
X130647498Y-76310543D01*
X130549361Y-76295000D01*
X130350639Y-76295000D01*
X130285214Y-76305362D01*
X130154362Y-76326087D01*
X129965370Y-76387493D01*
X129965367Y-76387494D01*
X129788305Y-76477713D01*
X129627533Y-76594521D01*
X129487021Y-76735033D01*
X129370213Y-76895805D01*
X129310204Y-77013579D01*
X129262229Y-77064375D01*
X129194408Y-77081170D01*
X129128273Y-77058632D01*
X129089234Y-77013579D01*
X129029358Y-76896067D01*
X129002268Y-76858783D01*
X128400302Y-77460749D01*
X128378651Y-77379947D01*
X128318091Y-77275054D01*
X128232446Y-77189409D01*
X128127553Y-77128849D01*
X128046749Y-77107197D01*
X128648716Y-76505231D01*
X128648715Y-76505230D01*
X128611432Y-76478141D01*
X128434437Y-76387957D01*
X128245522Y-76326575D01*
X128049321Y-76295500D01*
X127850679Y-76295500D01*
X127654479Y-76326575D01*
X127654476Y-76326575D01*
X127465562Y-76387957D01*
X127288564Y-76478143D01*
X127251283Y-76505229D01*
X127251282Y-76505230D01*
X127853250Y-77107197D01*
X127772447Y-77128849D01*
X127667554Y-77189409D01*
X127581909Y-77275054D01*
X127521349Y-77379947D01*
X127499697Y-77460750D01*
X126897730Y-76858782D01*
X126897729Y-76858783D01*
X126870643Y-76896064D01*
X126780457Y-77073062D01*
X126719075Y-77261976D01*
X126719075Y-77261979D01*
X126688000Y-77458178D01*
X113477300Y-77458178D01*
X113477300Y-71419900D01*
X113496985Y-71352861D01*
X113549789Y-71307106D01*
X113601300Y-71295900D01*
X118863966Y-71295900D01*
X118931005Y-71315585D01*
G37*
%TD.AperFunction*%
%TA.AperFunction,Conductor*%
G36*
X126509948Y-95814306D02*
G01*
X126517678Y-95813040D01*
X126543001Y-95824011D01*
X126569474Y-95831785D01*
X126575788Y-95838217D01*
X126581789Y-95840817D01*
X126605419Y-95867033D01*
X126606737Y-95868998D01*
X126693060Y-96008950D01*
X126715942Y-96031832D01*
X126722685Y-96041886D01*
X126743677Y-96108528D01*
X126725308Y-96175939D01*
X126707385Y-96198632D01*
X126693452Y-96212565D01*
X126602951Y-96359288D01*
X126602946Y-96359299D01*
X126548719Y-96522947D01*
X126538400Y-96623945D01*
X126538400Y-96723100D01*
X127389400Y-96723100D01*
X127456439Y-96742785D01*
X127502194Y-96795589D01*
X127513400Y-96847100D01*
X127513400Y-96973100D01*
X127639400Y-96973100D01*
X127706439Y-96992785D01*
X127752194Y-97045589D01*
X127763400Y-97097100D01*
X127763400Y-98010599D01*
X127800040Y-98010599D01*
X127800046Y-98010598D01*
X127802860Y-98010311D01*
X127871554Y-98023075D01*
X127922443Y-98070951D01*
X127939369Y-98138739D01*
X127937090Y-98157859D01*
X127924500Y-98221153D01*
X127924500Y-98378846D01*
X127955261Y-98533489D01*
X127955264Y-98533501D01*
X128015602Y-98679172D01*
X128015609Y-98679185D01*
X128103210Y-98810288D01*
X128103213Y-98810292D01*
X128214707Y-98921786D01*
X128214711Y-98921789D01*
X128345814Y-99009390D01*
X128345827Y-99009397D01*
X128427400Y-99043185D01*
X128491503Y-99069737D01*
X128617176Y-99094735D01*
X128646153Y-99100499D01*
X128646156Y-99100500D01*
X128646158Y-99100500D01*
X128803844Y-99100500D01*
X128803845Y-99100499D01*
X128958497Y-99069737D01*
X129034871Y-99038101D01*
X129104336Y-99030633D01*
X129129770Y-99038100D01*
X129266503Y-99094737D01*
X129389411Y-99119185D01*
X129421153Y-99125499D01*
X129421156Y-99125500D01*
X129421158Y-99125500D01*
X129578844Y-99125500D01*
X129578845Y-99125499D01*
X129733497Y-99094737D01*
X129846166Y-99048067D01*
X129879172Y-99034397D01*
X129879172Y-99034396D01*
X129879179Y-99034394D01*
X130010289Y-98946789D01*
X130039862Y-98917214D01*
X130101182Y-98883731D01*
X130170874Y-98888715D01*
X130196432Y-98901794D01*
X130217333Y-98915760D01*
X130217334Y-98915760D01*
X130217335Y-98915761D01*
X130356733Y-98973501D01*
X130363015Y-98976103D01*
X130514332Y-99006202D01*
X130517665Y-99006865D01*
X130517668Y-99006866D01*
X130517670Y-99006866D01*
X130548034Y-99006866D01*
X130615073Y-99026551D01*
X130635715Y-99043185D01*
X130880349Y-99287819D01*
X130913834Y-99349142D01*
X130908850Y-99418834D01*
X130866978Y-99474767D01*
X130801514Y-99499184D01*
X130792668Y-99499500D01*
X123301941Y-99499500D01*
X123234902Y-99479815D01*
X123189147Y-99427011D01*
X123179203Y-99357853D01*
X123208228Y-99294297D01*
X123214260Y-99287819D01*
X123251786Y-99250292D01*
X123251789Y-99250289D01*
X123339394Y-99119179D01*
X123399737Y-98973497D01*
X123430500Y-98818842D01*
X123430500Y-98788477D01*
X123450185Y-98721438D01*
X123466815Y-98700800D01*
X124174297Y-97993317D01*
X124235620Y-97959833D01*
X124261978Y-97956999D01*
X124657570Y-97956999D01*
X124657576Y-97956999D01*
X124758653Y-97946674D01*
X124922416Y-97892408D01*
X125069250Y-97801840D01*
X125191240Y-97679850D01*
X125281808Y-97533016D01*
X125336074Y-97369253D01*
X125340875Y-97322254D01*
X126538401Y-97322254D01*
X126548719Y-97423252D01*
X126602946Y-97586900D01*
X126602951Y-97586911D01*
X126693452Y-97733634D01*
X126693455Y-97733638D01*
X126815361Y-97855544D01*
X126815365Y-97855547D01*
X126962088Y-97946048D01*
X126962099Y-97946053D01*
X127125747Y-98000280D01*
X127226752Y-98010599D01*
X127263400Y-98010599D01*
X127263400Y-97223100D01*
X126538401Y-97223100D01*
X126538401Y-97322254D01*
X125340875Y-97322254D01*
X125346400Y-97268177D01*
X125346399Y-96872576D01*
X125366083Y-96805538D01*
X125382713Y-96784901D01*
X126319197Y-95848419D01*
X126380520Y-95814934D01*
X126406878Y-95812100D01*
X126502435Y-95812100D01*
X126509948Y-95814306D01*
G37*
%TD.AperFunction*%
%TA.AperFunction,Conductor*%
G36*
X134055966Y-86871925D02*
G01*
X134083686Y-86876723D01*
X134089040Y-86881637D01*
X134096014Y-86883685D01*
X134114435Y-86904944D01*
X134135162Y-86923967D01*
X134137009Y-86930996D01*
X134141769Y-86936489D01*
X134145772Y-86964335D01*
X134152924Y-86991541D01*
X134151154Y-87001764D01*
X134151713Y-87005647D01*
X134146906Y-87026318D01*
X134082753Y-87223759D01*
X134049500Y-87433713D01*
X134049500Y-87646286D01*
X134080846Y-87844200D01*
X134082754Y-87856243D01*
X134143485Y-88043154D01*
X134148444Y-88058414D01*
X134244951Y-88247820D01*
X134369890Y-88419786D01*
X134520213Y-88570109D01*
X134692179Y-88695048D01*
X134692181Y-88695049D01*
X134692184Y-88695051D01*
X134881588Y-88791557D01*
X135083757Y-88857246D01*
X135293713Y-88890500D01*
X135293714Y-88890500D01*
X135506286Y-88890500D01*
X135506287Y-88890500D01*
X135716243Y-88857246D01*
X135918412Y-88791557D01*
X136107816Y-88695051D01*
X136149338Y-88664884D01*
X136279786Y-88570109D01*
X136279788Y-88570106D01*
X136279792Y-88570104D01*
X136430104Y-88419792D01*
X136430106Y-88419788D01*
X136430109Y-88419786D01*
X136555048Y-88247820D01*
X136555047Y-88247820D01*
X136555051Y-88247816D01*
X136651557Y-88058412D01*
X136717246Y-87856243D01*
X136750500Y-87646287D01*
X136750500Y-87433713D01*
X136717246Y-87223757D01*
X136653094Y-87026318D01*
X136651099Y-86956477D01*
X136687179Y-86896644D01*
X136749880Y-86865816D01*
X136771025Y-86864000D01*
X143333486Y-86864000D01*
X143400525Y-86883685D01*
X143446280Y-86936489D01*
X143456224Y-87005647D01*
X143451417Y-87026319D01*
X143432753Y-87083756D01*
X143399500Y-87293713D01*
X143399500Y-87506286D01*
X143431139Y-87706051D01*
X143432754Y-87716243D01*
X143483294Y-87871789D01*
X143498444Y-87918414D01*
X143594951Y-88107820D01*
X143719890Y-88279786D01*
X143870213Y-88430109D01*
X144042182Y-88555050D01*
X144050946Y-88559516D01*
X144101742Y-88607491D01*
X144118536Y-88675312D01*
X144095998Y-88741447D01*
X144050946Y-88780484D01*
X144042182Y-88784949D01*
X143870213Y-88909890D01*
X143719890Y-89060213D01*
X143594951Y-89232179D01*
X143498444Y-89421585D01*
X143432753Y-89623760D01*
X143407830Y-89781118D01*
X143399500Y-89833713D01*
X143399500Y-90046287D01*
X143405070Y-90081455D01*
X143427789Y-90224900D01*
X143432754Y-90256243D01*
X143495547Y-90449500D01*
X143498444Y-90458414D01*
X143594951Y-90647820D01*
X143719890Y-90819786D01*
X143870213Y-90970109D01*
X144042182Y-91095050D01*
X144050946Y-91099516D01*
X144101742Y-91147491D01*
X144118536Y-91215312D01*
X144095998Y-91281447D01*
X144050946Y-91320484D01*
X144042182Y-91324949D01*
X143870213Y-91449890D01*
X143719890Y-91600213D01*
X143594949Y-91772182D01*
X143556169Y-91848294D01*
X143508195Y-91899091D01*
X143445684Y-91916000D01*
X136769892Y-91916000D01*
X136702853Y-91896315D01*
X136682211Y-91879681D01*
X132665154Y-87862624D01*
X132631669Y-87801301D01*
X132636653Y-87731609D01*
X132649734Y-87706051D01*
X132678665Y-87662753D01*
X132684394Y-87654179D01*
X132744737Y-87508497D01*
X132775500Y-87353842D01*
X132775500Y-87323478D01*
X132795185Y-87256439D01*
X132811819Y-87235797D01*
X133147297Y-86900319D01*
X133208620Y-86866834D01*
X133234978Y-86864000D01*
X134028975Y-86864000D01*
X134055966Y-86871925D01*
G37*
%TD.AperFunction*%
%TD*%
M02*
