%TF.GenerationSoftware,KiCad,Pcbnew,9.0.2*%
%TF.CreationDate,2025-10-18T20:22:23+01:00*%
%TF.ProjectId,RISKYX68000,5249534b-5958-4363-9830-30302e6b6963,rev?*%
%TF.SameCoordinates,Original*%
%TF.FileFunction,Legend,Top*%
%TF.FilePolarity,Positive*%
%FSLAX46Y46*%
G04 Gerber Fmt 4.6, Leading zero omitted, Abs format (unit mm)*
G04 Created by KiCad (PCBNEW 9.0.2) date 2025-10-18 20:22:23*
%MOMM*%
%LPD*%
G01*
G04 APERTURE LIST*
%ADD10C,0.304800*%
%ADD11C,0.152400*%
%ADD12C,0.150000*%
%ADD13C,0.120000*%
G04 APERTURE END LIST*
D10*
X120318240Y-86523641D02*
X121261668Y-86523641D01*
X121261668Y-86523641D02*
X120753668Y-87104212D01*
X120753668Y-87104212D02*
X120971383Y-87104212D01*
X120971383Y-87104212D02*
X121116526Y-87176784D01*
X121116526Y-87176784D02*
X121189097Y-87249355D01*
X121189097Y-87249355D02*
X121261668Y-87394498D01*
X121261668Y-87394498D02*
X121261668Y-87757355D01*
X121261668Y-87757355D02*
X121189097Y-87902498D01*
X121189097Y-87902498D02*
X121116526Y-87975070D01*
X121116526Y-87975070D02*
X120971383Y-88047641D01*
X120971383Y-88047641D02*
X120535954Y-88047641D01*
X120535954Y-88047641D02*
X120390811Y-87975070D01*
X120390811Y-87975070D02*
X120318240Y-87902498D01*
X114445668Y-93998641D02*
X115316526Y-93998641D01*
X114881097Y-95522641D02*
X114881097Y-93998641D01*
X115679383Y-93998641D02*
X116695383Y-95522641D01*
X116695383Y-93998641D02*
X115679383Y-95522641D01*
X117203383Y-94143784D02*
X117275955Y-94071212D01*
X117275955Y-94071212D02*
X117421098Y-93998641D01*
X117421098Y-93998641D02*
X117783955Y-93998641D01*
X117783955Y-93998641D02*
X117929098Y-94071212D01*
X117929098Y-94071212D02*
X118001669Y-94143784D01*
X118001669Y-94143784D02*
X118074240Y-94288927D01*
X118074240Y-94288927D02*
X118074240Y-94434070D01*
X118074240Y-94434070D02*
X118001669Y-94651784D01*
X118001669Y-94651784D02*
X117130812Y-95522641D01*
X117130812Y-95522641D02*
X118074240Y-95522641D01*
X139445668Y-79523641D02*
X140316526Y-79523641D01*
X139881097Y-81047641D02*
X139881097Y-79523641D01*
X140679383Y-79523641D02*
X141695383Y-81047641D01*
X141695383Y-79523641D02*
X140679383Y-81047641D01*
X143074240Y-81047641D02*
X142203383Y-81047641D01*
X142638812Y-81047641D02*
X142638812Y-79523641D01*
X142638812Y-79523641D02*
X142493669Y-79741355D01*
X142493669Y-79741355D02*
X142348526Y-79886498D01*
X142348526Y-79886498D02*
X142203383Y-79959070D01*
D11*
X146527672Y-102379803D02*
X146992129Y-102379803D01*
X146759901Y-103192603D02*
X146759901Y-102379803D01*
X147185653Y-102379803D02*
X147727519Y-103192603D01*
X147727519Y-102379803D02*
X147185653Y-103192603D01*
X147959748Y-102379803D02*
X148462910Y-102379803D01*
X148462910Y-102379803D02*
X148191976Y-102689441D01*
X148191976Y-102689441D02*
X148308091Y-102689441D01*
X148308091Y-102689441D02*
X148385500Y-102728146D01*
X148385500Y-102728146D02*
X148424205Y-102766851D01*
X148424205Y-102766851D02*
X148462910Y-102844260D01*
X148462910Y-102844260D02*
X148462910Y-103037784D01*
X148462910Y-103037784D02*
X148424205Y-103115194D01*
X148424205Y-103115194D02*
X148385500Y-103153899D01*
X148385500Y-103153899D02*
X148308091Y-103192603D01*
X148308091Y-103192603D02*
X148075862Y-103192603D01*
X148075862Y-103192603D02*
X147998453Y-103153899D01*
X147998453Y-103153899D02*
X147959748Y-103115194D01*
X139058243Y-105575479D02*
X138787310Y-105188432D01*
X138593786Y-105575479D02*
X138593786Y-104762679D01*
X138593786Y-104762679D02*
X138903424Y-104762679D01*
X138903424Y-104762679D02*
X138980834Y-104801384D01*
X138980834Y-104801384D02*
X139019539Y-104840089D01*
X139019539Y-104840089D02*
X139058243Y-104917498D01*
X139058243Y-104917498D02*
X139058243Y-105033613D01*
X139058243Y-105033613D02*
X139019539Y-105111022D01*
X139019539Y-105111022D02*
X138980834Y-105149727D01*
X138980834Y-105149727D02*
X138903424Y-105188432D01*
X138903424Y-105188432D02*
X138593786Y-105188432D01*
X139406586Y-105575479D02*
X139406586Y-104762679D01*
X139754930Y-105536775D02*
X139871044Y-105575479D01*
X139871044Y-105575479D02*
X140064568Y-105575479D01*
X140064568Y-105575479D02*
X140141977Y-105536775D01*
X140141977Y-105536775D02*
X140180682Y-105498070D01*
X140180682Y-105498070D02*
X140219387Y-105420660D01*
X140219387Y-105420660D02*
X140219387Y-105343251D01*
X140219387Y-105343251D02*
X140180682Y-105265841D01*
X140180682Y-105265841D02*
X140141977Y-105227136D01*
X140141977Y-105227136D02*
X140064568Y-105188432D01*
X140064568Y-105188432D02*
X139909749Y-105149727D01*
X139909749Y-105149727D02*
X139832339Y-105111022D01*
X139832339Y-105111022D02*
X139793634Y-105072317D01*
X139793634Y-105072317D02*
X139754930Y-104994908D01*
X139754930Y-104994908D02*
X139754930Y-104917498D01*
X139754930Y-104917498D02*
X139793634Y-104840089D01*
X139793634Y-104840089D02*
X139832339Y-104801384D01*
X139832339Y-104801384D02*
X139909749Y-104762679D01*
X139909749Y-104762679D02*
X140103272Y-104762679D01*
X140103272Y-104762679D02*
X140219387Y-104801384D01*
X140567729Y-105575479D02*
X140567729Y-104762679D01*
X141032186Y-105575479D02*
X140683844Y-105111022D01*
X141032186Y-104762679D02*
X140567729Y-105227136D01*
X141535348Y-105188432D02*
X141535348Y-105575479D01*
X141264415Y-104762679D02*
X141535348Y-105188432D01*
X141535348Y-105188432D02*
X141806282Y-104762679D01*
X138516377Y-106071241D02*
X139058243Y-106884041D01*
X139058243Y-106071241D02*
X138516377Y-106884041D01*
X139716224Y-106071241D02*
X139561405Y-106071241D01*
X139561405Y-106071241D02*
X139483996Y-106109946D01*
X139483996Y-106109946D02*
X139445291Y-106148651D01*
X139445291Y-106148651D02*
X139367881Y-106264765D01*
X139367881Y-106264765D02*
X139329177Y-106419584D01*
X139329177Y-106419584D02*
X139329177Y-106729222D01*
X139329177Y-106729222D02*
X139367881Y-106806632D01*
X139367881Y-106806632D02*
X139406586Y-106845337D01*
X139406586Y-106845337D02*
X139483996Y-106884041D01*
X139483996Y-106884041D02*
X139638815Y-106884041D01*
X139638815Y-106884041D02*
X139716224Y-106845337D01*
X139716224Y-106845337D02*
X139754929Y-106806632D01*
X139754929Y-106806632D02*
X139793634Y-106729222D01*
X139793634Y-106729222D02*
X139793634Y-106535698D01*
X139793634Y-106535698D02*
X139754929Y-106458289D01*
X139754929Y-106458289D02*
X139716224Y-106419584D01*
X139716224Y-106419584D02*
X139638815Y-106380879D01*
X139638815Y-106380879D02*
X139483996Y-106380879D01*
X139483996Y-106380879D02*
X139406586Y-106419584D01*
X139406586Y-106419584D02*
X139367881Y-106458289D01*
X139367881Y-106458289D02*
X139329177Y-106535698D01*
X140258091Y-106419584D02*
X140180681Y-106380879D01*
X140180681Y-106380879D02*
X140141976Y-106342175D01*
X140141976Y-106342175D02*
X140103272Y-106264765D01*
X140103272Y-106264765D02*
X140103272Y-106226060D01*
X140103272Y-106226060D02*
X140141976Y-106148651D01*
X140141976Y-106148651D02*
X140180681Y-106109946D01*
X140180681Y-106109946D02*
X140258091Y-106071241D01*
X140258091Y-106071241D02*
X140412910Y-106071241D01*
X140412910Y-106071241D02*
X140490319Y-106109946D01*
X140490319Y-106109946D02*
X140529024Y-106148651D01*
X140529024Y-106148651D02*
X140567729Y-106226060D01*
X140567729Y-106226060D02*
X140567729Y-106264765D01*
X140567729Y-106264765D02*
X140529024Y-106342175D01*
X140529024Y-106342175D02*
X140490319Y-106380879D01*
X140490319Y-106380879D02*
X140412910Y-106419584D01*
X140412910Y-106419584D02*
X140258091Y-106419584D01*
X140258091Y-106419584D02*
X140180681Y-106458289D01*
X140180681Y-106458289D02*
X140141976Y-106496994D01*
X140141976Y-106496994D02*
X140103272Y-106574403D01*
X140103272Y-106574403D02*
X140103272Y-106729222D01*
X140103272Y-106729222D02*
X140141976Y-106806632D01*
X140141976Y-106806632D02*
X140180681Y-106845337D01*
X140180681Y-106845337D02*
X140258091Y-106884041D01*
X140258091Y-106884041D02*
X140412910Y-106884041D01*
X140412910Y-106884041D02*
X140490319Y-106845337D01*
X140490319Y-106845337D02*
X140529024Y-106806632D01*
X140529024Y-106806632D02*
X140567729Y-106729222D01*
X140567729Y-106729222D02*
X140567729Y-106574403D01*
X140567729Y-106574403D02*
X140529024Y-106496994D01*
X140529024Y-106496994D02*
X140490319Y-106458289D01*
X140490319Y-106458289D02*
X140412910Y-106419584D01*
X141070890Y-106071241D02*
X141148300Y-106071241D01*
X141148300Y-106071241D02*
X141225709Y-106109946D01*
X141225709Y-106109946D02*
X141264414Y-106148651D01*
X141264414Y-106148651D02*
X141303119Y-106226060D01*
X141303119Y-106226060D02*
X141341824Y-106380879D01*
X141341824Y-106380879D02*
X141341824Y-106574403D01*
X141341824Y-106574403D02*
X141303119Y-106729222D01*
X141303119Y-106729222D02*
X141264414Y-106806632D01*
X141264414Y-106806632D02*
X141225709Y-106845337D01*
X141225709Y-106845337D02*
X141148300Y-106884041D01*
X141148300Y-106884041D02*
X141070890Y-106884041D01*
X141070890Y-106884041D02*
X140993481Y-106845337D01*
X140993481Y-106845337D02*
X140954776Y-106806632D01*
X140954776Y-106806632D02*
X140916071Y-106729222D01*
X140916071Y-106729222D02*
X140877367Y-106574403D01*
X140877367Y-106574403D02*
X140877367Y-106380879D01*
X140877367Y-106380879D02*
X140916071Y-106226060D01*
X140916071Y-106226060D02*
X140954776Y-106148651D01*
X140954776Y-106148651D02*
X140993481Y-106109946D01*
X140993481Y-106109946D02*
X141070890Y-106071241D01*
X141844985Y-106071241D02*
X141922395Y-106071241D01*
X141922395Y-106071241D02*
X141999804Y-106109946D01*
X141999804Y-106109946D02*
X142038509Y-106148651D01*
X142038509Y-106148651D02*
X142077214Y-106226060D01*
X142077214Y-106226060D02*
X142115919Y-106380879D01*
X142115919Y-106380879D02*
X142115919Y-106574403D01*
X142115919Y-106574403D02*
X142077214Y-106729222D01*
X142077214Y-106729222D02*
X142038509Y-106806632D01*
X142038509Y-106806632D02*
X141999804Y-106845337D01*
X141999804Y-106845337D02*
X141922395Y-106884041D01*
X141922395Y-106884041D02*
X141844985Y-106884041D01*
X141844985Y-106884041D02*
X141767576Y-106845337D01*
X141767576Y-106845337D02*
X141728871Y-106806632D01*
X141728871Y-106806632D02*
X141690166Y-106729222D01*
X141690166Y-106729222D02*
X141651462Y-106574403D01*
X141651462Y-106574403D02*
X141651462Y-106380879D01*
X141651462Y-106380879D02*
X141690166Y-106226060D01*
X141690166Y-106226060D02*
X141728871Y-106148651D01*
X141728871Y-106148651D02*
X141767576Y-106109946D01*
X141767576Y-106109946D02*
X141844985Y-106071241D01*
X142619080Y-106071241D02*
X142696490Y-106071241D01*
X142696490Y-106071241D02*
X142773899Y-106109946D01*
X142773899Y-106109946D02*
X142812604Y-106148651D01*
X142812604Y-106148651D02*
X142851309Y-106226060D01*
X142851309Y-106226060D02*
X142890014Y-106380879D01*
X142890014Y-106380879D02*
X142890014Y-106574403D01*
X142890014Y-106574403D02*
X142851309Y-106729222D01*
X142851309Y-106729222D02*
X142812604Y-106806632D01*
X142812604Y-106806632D02*
X142773899Y-106845337D01*
X142773899Y-106845337D02*
X142696490Y-106884041D01*
X142696490Y-106884041D02*
X142619080Y-106884041D01*
X142619080Y-106884041D02*
X142541671Y-106845337D01*
X142541671Y-106845337D02*
X142502966Y-106806632D01*
X142502966Y-106806632D02*
X142464261Y-106729222D01*
X142464261Y-106729222D02*
X142425557Y-106574403D01*
X142425557Y-106574403D02*
X142425557Y-106380879D01*
X142425557Y-106380879D02*
X142464261Y-106226060D01*
X142464261Y-106226060D02*
X142502966Y-106148651D01*
X142502966Y-106148651D02*
X142541671Y-106109946D01*
X142541671Y-106109946D02*
X142619080Y-106071241D01*
X138593786Y-108192603D02*
X138593786Y-107379803D01*
X138593786Y-107379803D02*
X138903424Y-107379803D01*
X138903424Y-107379803D02*
X138980834Y-107418508D01*
X138980834Y-107418508D02*
X139019539Y-107457213D01*
X139019539Y-107457213D02*
X139058243Y-107534622D01*
X139058243Y-107534622D02*
X139058243Y-107650737D01*
X139058243Y-107650737D02*
X139019539Y-107728146D01*
X139019539Y-107728146D02*
X138980834Y-107766851D01*
X138980834Y-107766851D02*
X138903424Y-107805556D01*
X138903424Y-107805556D02*
X138593786Y-107805556D01*
X139406586Y-108192603D02*
X139406586Y-107650737D01*
X139406586Y-107805556D02*
X139445291Y-107728146D01*
X139445291Y-107728146D02*
X139483996Y-107689441D01*
X139483996Y-107689441D02*
X139561405Y-107650737D01*
X139561405Y-107650737D02*
X139638815Y-107650737D01*
X140025863Y-108192603D02*
X139948453Y-108153899D01*
X139948453Y-108153899D02*
X139909748Y-108115194D01*
X139909748Y-108115194D02*
X139871044Y-108037784D01*
X139871044Y-108037784D02*
X139871044Y-107805556D01*
X139871044Y-107805556D02*
X139909748Y-107728146D01*
X139909748Y-107728146D02*
X139948453Y-107689441D01*
X139948453Y-107689441D02*
X140025863Y-107650737D01*
X140025863Y-107650737D02*
X140141977Y-107650737D01*
X140141977Y-107650737D02*
X140219386Y-107689441D01*
X140219386Y-107689441D02*
X140258091Y-107728146D01*
X140258091Y-107728146D02*
X140296796Y-107805556D01*
X140296796Y-107805556D02*
X140296796Y-108037784D01*
X140296796Y-108037784D02*
X140258091Y-108115194D01*
X140258091Y-108115194D02*
X140219386Y-108153899D01*
X140219386Y-108153899D02*
X140141977Y-108192603D01*
X140141977Y-108192603D02*
X140025863Y-108192603D01*
X140529024Y-107650737D02*
X140838662Y-107650737D01*
X140645138Y-107379803D02*
X140645138Y-108076489D01*
X140645138Y-108076489D02*
X140683843Y-108153899D01*
X140683843Y-108153899D02*
X140761253Y-108192603D01*
X140761253Y-108192603D02*
X140838662Y-108192603D01*
X141225710Y-108192603D02*
X141148300Y-108153899D01*
X141148300Y-108153899D02*
X141109595Y-108115194D01*
X141109595Y-108115194D02*
X141070891Y-108037784D01*
X141070891Y-108037784D02*
X141070891Y-107805556D01*
X141070891Y-107805556D02*
X141109595Y-107728146D01*
X141109595Y-107728146D02*
X141148300Y-107689441D01*
X141148300Y-107689441D02*
X141225710Y-107650737D01*
X141225710Y-107650737D02*
X141341824Y-107650737D01*
X141341824Y-107650737D02*
X141419233Y-107689441D01*
X141419233Y-107689441D02*
X141457938Y-107728146D01*
X141457938Y-107728146D02*
X141496643Y-107805556D01*
X141496643Y-107805556D02*
X141496643Y-108037784D01*
X141496643Y-108037784D02*
X141457938Y-108115194D01*
X141457938Y-108115194D02*
X141419233Y-108153899D01*
X141419233Y-108153899D02*
X141341824Y-108192603D01*
X141341824Y-108192603D02*
X141225710Y-108192603D01*
X119093786Y-103392603D02*
X119093786Y-102579803D01*
X119093786Y-102579803D02*
X119403424Y-102579803D01*
X119403424Y-102579803D02*
X119480834Y-102618508D01*
X119480834Y-102618508D02*
X119519539Y-102657213D01*
X119519539Y-102657213D02*
X119558243Y-102734622D01*
X119558243Y-102734622D02*
X119558243Y-102850737D01*
X119558243Y-102850737D02*
X119519539Y-102928146D01*
X119519539Y-102928146D02*
X119480834Y-102966851D01*
X119480834Y-102966851D02*
X119403424Y-103005556D01*
X119403424Y-103005556D02*
X119093786Y-103005556D01*
X119829177Y-102579803D02*
X120022701Y-103392603D01*
X120022701Y-103392603D02*
X120177520Y-102812032D01*
X120177520Y-102812032D02*
X120332339Y-103392603D01*
X120332339Y-103392603D02*
X120525863Y-102579803D01*
X121299957Y-103392603D02*
X121029024Y-103005556D01*
X120835500Y-103392603D02*
X120835500Y-102579803D01*
X120835500Y-102579803D02*
X121145138Y-102579803D01*
X121145138Y-102579803D02*
X121222548Y-102618508D01*
X121222548Y-102618508D02*
X121261253Y-102657213D01*
X121261253Y-102657213D02*
X121299957Y-102734622D01*
X121299957Y-102734622D02*
X121299957Y-102850737D01*
X121299957Y-102850737D02*
X121261253Y-102928146D01*
X121261253Y-102928146D02*
X121222548Y-102966851D01*
X121222548Y-102966851D02*
X121145138Y-103005556D01*
X121145138Y-103005556D02*
X120835500Y-103005556D01*
X119033243Y-78617603D02*
X118762310Y-78230556D01*
X118568786Y-78617603D02*
X118568786Y-77804803D01*
X118568786Y-77804803D02*
X118878424Y-77804803D01*
X118878424Y-77804803D02*
X118955834Y-77843508D01*
X118955834Y-77843508D02*
X118994539Y-77882213D01*
X118994539Y-77882213D02*
X119033243Y-77959622D01*
X119033243Y-77959622D02*
X119033243Y-78075737D01*
X119033243Y-78075737D02*
X118994539Y-78153146D01*
X118994539Y-78153146D02*
X118955834Y-78191851D01*
X118955834Y-78191851D02*
X118878424Y-78230556D01*
X118878424Y-78230556D02*
X118568786Y-78230556D01*
X119381586Y-78617603D02*
X119381586Y-77804803D01*
X119381586Y-77804803D02*
X119575110Y-77804803D01*
X119575110Y-77804803D02*
X119691224Y-77843508D01*
X119691224Y-77843508D02*
X119768634Y-77920918D01*
X119768634Y-77920918D02*
X119807339Y-77998327D01*
X119807339Y-77998327D02*
X119846043Y-78153146D01*
X119846043Y-78153146D02*
X119846043Y-78269260D01*
X119846043Y-78269260D02*
X119807339Y-78424079D01*
X119807339Y-78424079D02*
X119768634Y-78501489D01*
X119768634Y-78501489D02*
X119691224Y-78578899D01*
X119691224Y-78578899D02*
X119575110Y-78617603D01*
X119575110Y-78617603D02*
X119381586Y-78617603D01*
X120349205Y-78230556D02*
X120349205Y-78617603D01*
X120078272Y-77804803D02*
X120349205Y-78230556D01*
X120349205Y-78230556D02*
X120620139Y-77804803D01*
X137558243Y-85390194D02*
X137519539Y-85428899D01*
X137519539Y-85428899D02*
X137403424Y-85467603D01*
X137403424Y-85467603D02*
X137326015Y-85467603D01*
X137326015Y-85467603D02*
X137209901Y-85428899D01*
X137209901Y-85428899D02*
X137132491Y-85351489D01*
X137132491Y-85351489D02*
X137093786Y-85274079D01*
X137093786Y-85274079D02*
X137055082Y-85119260D01*
X137055082Y-85119260D02*
X137055082Y-85003146D01*
X137055082Y-85003146D02*
X137093786Y-84848327D01*
X137093786Y-84848327D02*
X137132491Y-84770918D01*
X137132491Y-84770918D02*
X137209901Y-84693508D01*
X137209901Y-84693508D02*
X137326015Y-84654803D01*
X137326015Y-84654803D02*
X137403424Y-84654803D01*
X137403424Y-84654803D02*
X137519539Y-84693508D01*
X137519539Y-84693508D02*
X137558243Y-84732213D01*
X138293634Y-85467603D02*
X137906586Y-85467603D01*
X137906586Y-85467603D02*
X137906586Y-84654803D01*
X138564567Y-85467603D02*
X138564567Y-84654803D01*
X139029024Y-85467603D02*
X138680682Y-85003146D01*
X139029024Y-84654803D02*
X138564567Y-85119260D01*
D10*
X115359240Y-103247641D02*
X114851240Y-102521927D01*
X114488383Y-103247641D02*
X114488383Y-101723641D01*
X114488383Y-101723641D02*
X115068954Y-101723641D01*
X115068954Y-101723641D02*
X115214097Y-101796212D01*
X115214097Y-101796212D02*
X115286668Y-101868784D01*
X115286668Y-101868784D02*
X115359240Y-102013927D01*
X115359240Y-102013927D02*
X115359240Y-102231641D01*
X115359240Y-102231641D02*
X115286668Y-102376784D01*
X115286668Y-102376784D02*
X115214097Y-102449355D01*
X115214097Y-102449355D02*
X115068954Y-102521927D01*
X115068954Y-102521927D02*
X114488383Y-102521927D01*
X115867240Y-101723641D02*
X116883240Y-103247641D01*
X116883240Y-101723641D02*
X115867240Y-103247641D01*
X117391240Y-101868784D02*
X117463812Y-101796212D01*
X117463812Y-101796212D02*
X117608955Y-101723641D01*
X117608955Y-101723641D02*
X117971812Y-101723641D01*
X117971812Y-101723641D02*
X118116955Y-101796212D01*
X118116955Y-101796212D02*
X118189526Y-101868784D01*
X118189526Y-101868784D02*
X118262097Y-102013927D01*
X118262097Y-102013927D02*
X118262097Y-102159070D01*
X118262097Y-102159070D02*
X118189526Y-102376784D01*
X118189526Y-102376784D02*
X117318669Y-103247641D01*
X117318669Y-103247641D02*
X118262097Y-103247641D01*
D11*
X137023786Y-87992603D02*
X137023786Y-87179803D01*
X137023786Y-87179803D02*
X137217310Y-87179803D01*
X137217310Y-87179803D02*
X137333424Y-87218508D01*
X137333424Y-87218508D02*
X137410834Y-87295918D01*
X137410834Y-87295918D02*
X137449539Y-87373327D01*
X137449539Y-87373327D02*
X137488243Y-87528146D01*
X137488243Y-87528146D02*
X137488243Y-87644260D01*
X137488243Y-87644260D02*
X137449539Y-87799079D01*
X137449539Y-87799079D02*
X137410834Y-87876489D01*
X137410834Y-87876489D02*
X137333424Y-87953899D01*
X137333424Y-87953899D02*
X137217310Y-87992603D01*
X137217310Y-87992603D02*
X137023786Y-87992603D01*
X137836586Y-87992603D02*
X137836586Y-87179803D01*
X138378453Y-87179803D02*
X138533272Y-87179803D01*
X138533272Y-87179803D02*
X138610682Y-87218508D01*
X138610682Y-87218508D02*
X138688091Y-87295918D01*
X138688091Y-87295918D02*
X138726796Y-87450737D01*
X138726796Y-87450737D02*
X138726796Y-87721670D01*
X138726796Y-87721670D02*
X138688091Y-87876489D01*
X138688091Y-87876489D02*
X138610682Y-87953899D01*
X138610682Y-87953899D02*
X138533272Y-87992603D01*
X138533272Y-87992603D02*
X138378453Y-87992603D01*
X138378453Y-87992603D02*
X138301044Y-87953899D01*
X138301044Y-87953899D02*
X138223634Y-87876489D01*
X138223634Y-87876489D02*
X138184930Y-87721670D01*
X138184930Y-87721670D02*
X138184930Y-87450737D01*
X138184930Y-87450737D02*
X138223634Y-87295918D01*
X138223634Y-87295918D02*
X138301044Y-87218508D01*
X138301044Y-87218508D02*
X138378453Y-87179803D01*
D10*
X121164097Y-90848641D02*
X120438383Y-90848641D01*
X120438383Y-90848641D02*
X120365811Y-91574355D01*
X120365811Y-91574355D02*
X120438383Y-91501784D01*
X120438383Y-91501784D02*
X120583526Y-91429212D01*
X120583526Y-91429212D02*
X120946383Y-91429212D01*
X120946383Y-91429212D02*
X121091526Y-91501784D01*
X121091526Y-91501784D02*
X121164097Y-91574355D01*
X121164097Y-91574355D02*
X121236668Y-91719498D01*
X121236668Y-91719498D02*
X121236668Y-92082355D01*
X121236668Y-92082355D02*
X121164097Y-92227498D01*
X121164097Y-92227498D02*
X121091526Y-92300070D01*
X121091526Y-92300070D02*
X120946383Y-92372641D01*
X120946383Y-92372641D02*
X120583526Y-92372641D01*
X120583526Y-92372641D02*
X120438383Y-92300070D01*
X120438383Y-92300070D02*
X120365811Y-92227498D01*
X121211668Y-83747641D02*
X120340811Y-83747641D01*
X120776240Y-83747641D02*
X120776240Y-82223641D01*
X120776240Y-82223641D02*
X120631097Y-82441355D01*
X120631097Y-82441355D02*
X120485954Y-82586498D01*
X120485954Y-82586498D02*
X120340811Y-82659070D01*
D11*
X146933243Y-100442603D02*
X146662310Y-100055556D01*
X146468786Y-100442603D02*
X146468786Y-99629803D01*
X146468786Y-99629803D02*
X146778424Y-99629803D01*
X146778424Y-99629803D02*
X146855834Y-99668508D01*
X146855834Y-99668508D02*
X146894539Y-99707213D01*
X146894539Y-99707213D02*
X146933243Y-99784622D01*
X146933243Y-99784622D02*
X146933243Y-99900737D01*
X146933243Y-99900737D02*
X146894539Y-99978146D01*
X146894539Y-99978146D02*
X146855834Y-100016851D01*
X146855834Y-100016851D02*
X146778424Y-100055556D01*
X146778424Y-100055556D02*
X146468786Y-100055556D01*
X147204177Y-99629803D02*
X147746043Y-100442603D01*
X147746043Y-99629803D02*
X147204177Y-100442603D01*
X147978272Y-99629803D02*
X148481434Y-99629803D01*
X148481434Y-99629803D02*
X148210500Y-99939441D01*
X148210500Y-99939441D02*
X148326615Y-99939441D01*
X148326615Y-99939441D02*
X148404024Y-99978146D01*
X148404024Y-99978146D02*
X148442729Y-100016851D01*
X148442729Y-100016851D02*
X148481434Y-100094260D01*
X148481434Y-100094260D02*
X148481434Y-100287784D01*
X148481434Y-100287784D02*
X148442729Y-100365194D01*
X148442729Y-100365194D02*
X148404024Y-100403899D01*
X148404024Y-100403899D02*
X148326615Y-100442603D01*
X148326615Y-100442603D02*
X148094386Y-100442603D01*
X148094386Y-100442603D02*
X148016977Y-100403899D01*
X148016977Y-100403899D02*
X147978272Y-100365194D01*
D10*
X140209240Y-78547641D02*
X139701240Y-77821927D01*
X139338383Y-78547641D02*
X139338383Y-77023641D01*
X139338383Y-77023641D02*
X139918954Y-77023641D01*
X139918954Y-77023641D02*
X140064097Y-77096212D01*
X140064097Y-77096212D02*
X140136668Y-77168784D01*
X140136668Y-77168784D02*
X140209240Y-77313927D01*
X140209240Y-77313927D02*
X140209240Y-77531641D01*
X140209240Y-77531641D02*
X140136668Y-77676784D01*
X140136668Y-77676784D02*
X140064097Y-77749355D01*
X140064097Y-77749355D02*
X139918954Y-77821927D01*
X139918954Y-77821927D02*
X139338383Y-77821927D01*
X140717240Y-77023641D02*
X141733240Y-78547641D01*
X141733240Y-77023641D02*
X140717240Y-78547641D01*
X143112097Y-78547641D02*
X142241240Y-78547641D01*
X142676669Y-78547641D02*
X142676669Y-77023641D01*
X142676669Y-77023641D02*
X142531526Y-77241355D01*
X142531526Y-77241355D02*
X142386383Y-77386498D01*
X142386383Y-77386498D02*
X142241240Y-77459070D01*
X121116526Y-89281641D02*
X121116526Y-90297641D01*
X120753668Y-88701070D02*
X120390811Y-89789641D01*
X120390811Y-89789641D02*
X121334240Y-89789641D01*
X120340811Y-84468784D02*
X120413383Y-84396212D01*
X120413383Y-84396212D02*
X120558526Y-84323641D01*
X120558526Y-84323641D02*
X120921383Y-84323641D01*
X120921383Y-84323641D02*
X121066526Y-84396212D01*
X121066526Y-84396212D02*
X121139097Y-84468784D01*
X121139097Y-84468784D02*
X121211668Y-84613927D01*
X121211668Y-84613927D02*
X121211668Y-84759070D01*
X121211668Y-84759070D02*
X121139097Y-84976784D01*
X121139097Y-84976784D02*
X120268240Y-85847641D01*
X120268240Y-85847641D02*
X121211668Y-85847641D01*
D12*
X144591666Y-75114819D02*
X144591666Y-75829104D01*
X144591666Y-75829104D02*
X144544047Y-75971961D01*
X144544047Y-75971961D02*
X144448809Y-76067200D01*
X144448809Y-76067200D02*
X144305952Y-76114819D01*
X144305952Y-76114819D02*
X144210714Y-76114819D01*
X145496428Y-75448152D02*
X145496428Y-76114819D01*
X145258333Y-75067200D02*
X145020238Y-75781485D01*
X145020238Y-75781485D02*
X145639285Y-75781485D01*
X129413095Y-86254819D02*
X129413095Y-87064342D01*
X129413095Y-87064342D02*
X129460714Y-87159580D01*
X129460714Y-87159580D02*
X129508333Y-87207200D01*
X129508333Y-87207200D02*
X129603571Y-87254819D01*
X129603571Y-87254819D02*
X129794047Y-87254819D01*
X129794047Y-87254819D02*
X129889285Y-87207200D01*
X129889285Y-87207200D02*
X129936904Y-87159580D01*
X129936904Y-87159580D02*
X129984523Y-87064342D01*
X129984523Y-87064342D02*
X129984523Y-86254819D01*
X130984523Y-87254819D02*
X130413095Y-87254819D01*
X130698809Y-87254819D02*
X130698809Y-86254819D01*
X130698809Y-86254819D02*
X130603571Y-86397676D01*
X130603571Y-86397676D02*
X130508333Y-86492914D01*
X130508333Y-86492914D02*
X130413095Y-86540533D01*
D13*
%TO.C,U2*%
X120270000Y-101962500D02*
X120270000Y-99242500D01*
X121580000Y-101962500D02*
X120270000Y-101962500D01*
X124990000Y-99242500D02*
X124990000Y-101962500D01*
X124990000Y-101962500D02*
X123680000Y-101962500D01*
%TO.C,D3*%
X116750000Y-92385000D02*
X119610000Y-92385000D01*
X119610000Y-90465000D02*
X116750000Y-90465000D01*
X119610000Y-92385000D02*
X119610000Y-90465000D01*
%TO.C,J7*%
X143370000Y-93750000D02*
X143370000Y-86020000D01*
X146130000Y-86020000D02*
X143370000Y-86020000D01*
X146130000Y-93750000D02*
X143370000Y-93750000D01*
X146130000Y-93750000D02*
X146130000Y-86020000D01*
X146130000Y-95020000D02*
X146130000Y-96400000D01*
X146130000Y-96400000D02*
X144750000Y-96400000D01*
%TO.C,J5*%
X114845000Y-98730000D02*
X114845000Y-96080000D01*
X117605000Y-96080000D02*
X114845000Y-96080000D01*
X117605000Y-98730000D02*
X114845000Y-98730000D01*
X117605000Y-98730000D02*
X117605000Y-96080000D01*
X117605000Y-100000000D02*
X117605000Y-101380000D01*
X117605000Y-101380000D02*
X116225000Y-101380000D01*
%TO.C,D4*%
X116725000Y-90310000D02*
X119585000Y-90310000D01*
X119585000Y-88390000D02*
X116725000Y-88390000D01*
X119585000Y-90310000D02*
X119585000Y-88390000D01*
%TO.C,D2*%
X118515000Y-74372500D02*
X118515000Y-77232500D01*
X118515000Y-77232500D02*
X120435000Y-77232500D01*
X120435000Y-77232500D02*
X120435000Y-74372500D01*
%TO.C,D6*%
X116725000Y-86185000D02*
X119585000Y-86185000D01*
X119585000Y-84265000D02*
X116725000Y-84265000D01*
X119585000Y-86185000D02*
X119585000Y-84265000D01*
%TO.C,J4*%
X143545000Y-76660000D02*
X144925000Y-76660000D01*
X143545000Y-78040000D02*
X143545000Y-76660000D01*
X143545000Y-79310000D02*
X143545000Y-81960000D01*
X143545000Y-79310000D02*
X146305000Y-79310000D01*
X143545000Y-81960000D02*
X146305000Y-81960000D01*
X146305000Y-79310000D02*
X146305000Y-81960000D01*
%TO.C,F1*%
X130464564Y-82990000D02*
X129260436Y-82990000D01*
X130464564Y-84810000D02*
X129260436Y-84810000D01*
%TO.C,J3*%
X124690000Y-76857500D02*
X124690000Y-78677500D01*
X134650000Y-78677500D02*
X124690000Y-78677500D01*
X138210000Y-76857500D02*
X138210000Y-78677500D01*
X138210000Y-78677500D02*
X135250000Y-78677500D01*
X135290000Y-79147500D02*
X134610000Y-79147500D01*
X134950000Y-78677500D01*
X135290000Y-79147500D01*
G36*
X135290000Y-79147500D02*
G01*
X134610000Y-79147500D01*
X134950000Y-78677500D01*
X135290000Y-79147500D01*
G37*
%TO.C,J1*%
X123336667Y-105797500D02*
X127530000Y-105797500D01*
X123336667Y-108037500D02*
X123336667Y-105797500D01*
X123576667Y-106037500D02*
X123576667Y-109777500D01*
X137023333Y-106037500D02*
X123576667Y-106037500D01*
X137023333Y-109777500D02*
X137023333Y-106037500D01*
%TO.C,J6*%
X143170000Y-98920000D02*
X144550000Y-98920000D01*
X143170000Y-100300000D02*
X143170000Y-98920000D01*
X143170000Y-101570000D02*
X143170000Y-104220000D01*
X143170000Y-101570000D02*
X145930000Y-101570000D01*
X143170000Y-104220000D02*
X145930000Y-104220000D01*
X145930000Y-101570000D02*
X145930000Y-104220000D01*
%TO.C,D1*%
X119100000Y-104705000D02*
X119100000Y-107565000D01*
X119100000Y-107565000D02*
X121020000Y-107565000D01*
X121020000Y-107565000D02*
X121020000Y-104705000D01*
%TO.C,U1*%
X126130000Y-89042500D02*
X126130000Y-89492500D01*
X126130000Y-89492500D02*
X124840000Y-89492500D01*
X126130000Y-96262500D02*
X126130000Y-95812500D01*
X126580000Y-89042500D02*
X126130000Y-89042500D01*
X126580000Y-96262500D02*
X126130000Y-96262500D01*
X132900000Y-89042500D02*
X133350000Y-89042500D01*
X132900000Y-96262500D02*
X133350000Y-96262500D01*
X133350000Y-89042500D02*
X133350000Y-89492500D01*
X133350000Y-96262500D02*
X133350000Y-95812500D01*
%TO.C,D7*%
X116725000Y-84060000D02*
X119585000Y-84060000D01*
X119585000Y-82140000D02*
X116725000Y-82140000D01*
X119585000Y-84060000D02*
X119585000Y-82140000D01*
%TO.C,D5*%
X116725000Y-88235000D02*
X119585000Y-88235000D01*
X119585000Y-86315000D02*
X116725000Y-86315000D01*
X119585000Y-88235000D02*
X119585000Y-86315000D01*
%TO.C,J2*%
X134070000Y-83670000D02*
X135400000Y-83670000D01*
X134070000Y-85000000D02*
X134070000Y-83670000D01*
X134070000Y-86270000D02*
X134070000Y-88870000D01*
X134070000Y-86270000D02*
X136730000Y-86270000D01*
X134070000Y-88870000D02*
X136730000Y-88870000D01*
X136730000Y-86270000D02*
X136730000Y-88870000D01*
%TD*%
M02*
