%TF.GenerationSoftware,KiCad,Pcbnew,9.0.2*%
%TF.CreationDate,2025-10-18T20:22:23+01:00*%
%TF.ProjectId,RISKYX68000,5249534b-5958-4363-9830-30302e6b6963,rev?*%
%TF.SameCoordinates,Original*%
%TF.FileFunction,Copper,L3,Inr*%
%TF.FilePolarity,Positive*%
%FSLAX46Y46*%
G04 Gerber Fmt 4.6, Leading zero omitted, Abs format (unit mm)*
G04 Created by KiCad (PCBNEW 9.0.2) date 2025-10-18 20:22:23*
%MOMM*%
%LPD*%
G01*
G04 APERTURE LIST*
G04 Aperture macros list*
%AMRoundRect*
0 Rectangle with rounded corners*
0 $1 Rounding radius*
0 $2 $3 $4 $5 $6 $7 $8 $9 X,Y pos of 4 corners*
0 Add a 4 corners polygon primitive as box body*
4,1,4,$2,$3,$4,$5,$6,$7,$8,$9,$2,$3,0*
0 Add four circle primitives for the rounded corners*
1,1,$1+$1,$2,$3*
1,1,$1+$1,$4,$5*
1,1,$1+$1,$6,$7*
1,1,$1+$1,$8,$9*
0 Add four rect primitives between the rounded corners*
20,1,$1+$1,$2,$3,$4,$5,0*
20,1,$1+$1,$4,$5,$6,$7,0*
20,1,$1+$1,$6,$7,$8,$9,0*
20,1,$1+$1,$8,$9,$2,$3,0*%
G04 Aperture macros list end*
%TA.AperFunction,ComponentPad*%
%ADD10R,1.700000X1.700000*%
%TD*%
%TA.AperFunction,ComponentPad*%
%ADD11C,1.700000*%
%TD*%
%TA.AperFunction,ComponentPad*%
%ADD12RoundRect,0.250000X0.512000X0.512000X-0.512000X0.512000X-0.512000X-0.512000X0.512000X-0.512000X0*%
%TD*%
%TA.AperFunction,ComponentPad*%
%ADD13C,1.524000*%
%TD*%
%TA.AperFunction,ComponentPad*%
%ADD14C,3.500000*%
%TD*%
%TA.AperFunction,ComponentPad*%
%ADD15O,1.700000X1.700000*%
%TD*%
%TA.AperFunction,ViaPad*%
%ADD16C,0.600000*%
%TD*%
%TA.AperFunction,ViaPad*%
%ADD17C,0.900000*%
%TD*%
G04 APERTURE END LIST*
D10*
%TO.N,/PB9*%
%TO.C,J7*%
X144750000Y-95020000D03*
D11*
%TO.N,/PB8*%
X144750000Y-92480000D03*
%TO.N,/PB3*%
X144750000Y-89940000D03*
%TO.N,/PA15*%
X144750000Y-87400000D03*
%TD*%
D10*
%TO.N,/USART2_RX*%
%TO.C,J5*%
X116225000Y-100000000D03*
D11*
%TO.N,/USART2_TX*%
X116225000Y-97460000D03*
%TD*%
D10*
%TO.N,/USART1_RX*%
%TO.C,J4*%
X144925000Y-78040000D03*
D11*
%TO.N,/USART1_TX*%
X144925000Y-80580000D03*
%TD*%
D12*
%TO.N,Net-(J3-VBUS)*%
%TO.C,J3*%
X134950000Y-77557500D03*
D13*
%TO.N,/USB_DM*%
X132450000Y-77557500D03*
%TO.N,/USB_DP*%
X130450000Y-77557500D03*
%TO.N,GND*%
X127950000Y-77557500D03*
D14*
X138020000Y-74847500D03*
X124880000Y-74847500D03*
%TD*%
D10*
%TO.N,/USART3_RX*%
%TO.C,J6*%
X144550000Y-100300000D03*
D11*
%TO.N,/USART3_TX*%
X144550000Y-102840000D03*
%TD*%
D10*
%TO.N,/SWCLK*%
%TO.C,J2*%
X135400000Y-85000000D03*
D15*
%TO.N,/SWDIO*%
X135400000Y-87540000D03*
%TD*%
D16*
%TO.N,+3.3V*%
X122630000Y-98740000D03*
X114850000Y-89425000D03*
X114862500Y-83050000D03*
X114875000Y-91425000D03*
X132085400Y-90319400D03*
X114900000Y-87275000D03*
X114862500Y-85175000D03*
X119450000Y-72500000D03*
X132466400Y-95831200D03*
X121925000Y-104650000D03*
X127107000Y-90344800D03*
X127437200Y-93670300D03*
%TO.N,GND*%
X128700000Y-87075000D03*
X132375000Y-98200000D03*
X124077800Y-98676900D03*
X124250000Y-92975000D03*
X134455000Y-105675000D03*
X127490000Y-87010000D03*
X134455000Y-107797500D03*
X127900000Y-98725000D03*
X135175000Y-90125000D03*
X122600000Y-97000000D03*
X130700000Y-94900000D03*
%TO.N,+5V*%
X121131400Y-99134100D03*
X128360000Y-83820000D03*
D17*
X136175000Y-102575000D03*
D16*
%TO.N,/NRST*%
X127437200Y-91845300D03*
%TO.N,/PIN6*%
X126175000Y-104975000D03*
%TO.N,Net-(D1-A)*%
X120150000Y-104630000D03*
%TO.N,Net-(D3-A)*%
X117437500Y-91475000D03*
%TO.N,Net-(D4-A)*%
X117437500Y-89350000D03*
%TO.N,/LED3*%
X124278522Y-90912001D03*
X124525000Y-91902500D03*
%TO.N,Net-(D5-A)*%
X117400000Y-87250000D03*
%TO.N,/LED4*%
X123896836Y-90128164D03*
X123798062Y-91893000D03*
%TO.N,/LED5*%
X123656172Y-89193828D03*
X123071059Y-91893000D03*
%TO.N,Net-(D6-A)*%
X117450000Y-85100000D03*
%TO.N,/LED6*%
X123515508Y-88359492D03*
X122325000Y-91893000D03*
%TO.N,Net-(D7-A)*%
X117425000Y-83100000D03*
%TO.N,/PIN7*%
X128793924Y-95664839D03*
X128675000Y-101900000D03*
X128725000Y-98300000D03*
%TO.N,Net-(D2-A)*%
X119475000Y-74375000D03*
%TO.N,/PIN8*%
X129500000Y-98325000D03*
X129575000Y-101225000D03*
X129520783Y-95650437D03*
%TO.N,/USART3_RX*%
X131492457Y-98307543D03*
%TO.N,/USART3_TX*%
X130596512Y-98206366D03*
%TO.N,/PB8*%
X128200000Y-86400000D03*
%TO.N,/PB3*%
X133450000Y-84500000D03*
%TO.N,/PA15*%
X131975000Y-87275000D03*
%TO.N,/PB9*%
X128072201Y-89702272D03*
%TD*%
%TA.AperFunction,Conductor*%
%TO.N,+3.3V*%
G36*
X148985739Y-71315585D02*
G01*
X149031494Y-71368389D01*
X149042700Y-71419900D01*
X149042700Y-109775500D01*
X149023015Y-109842539D01*
X148970211Y-109888294D01*
X148918700Y-109899500D01*
X113601300Y-109899500D01*
X113534261Y-109879815D01*
X113488506Y-109827011D01*
X113477300Y-109775500D01*
X113477300Y-107718653D01*
X133654500Y-107718653D01*
X133654500Y-107876346D01*
X133685261Y-108030989D01*
X133685264Y-108031001D01*
X133745602Y-108176672D01*
X133745609Y-108176685D01*
X133833210Y-108307788D01*
X133833213Y-108307792D01*
X133944707Y-108419286D01*
X133944711Y-108419289D01*
X134075814Y-108506890D01*
X134075827Y-108506897D01*
X134221498Y-108567235D01*
X134221503Y-108567237D01*
X134376153Y-108597999D01*
X134376156Y-108598000D01*
X134376158Y-108598000D01*
X134533844Y-108598000D01*
X134533845Y-108597999D01*
X134688497Y-108567237D01*
X134834179Y-108506894D01*
X134965289Y-108419289D01*
X135076789Y-108307789D01*
X135164394Y-108176679D01*
X135224737Y-108030997D01*
X135255500Y-107876342D01*
X135255500Y-107718658D01*
X135255500Y-107718655D01*
X135255499Y-107718653D01*
X135224738Y-107564010D01*
X135224737Y-107564003D01*
X135224735Y-107563998D01*
X135164397Y-107418327D01*
X135164390Y-107418314D01*
X135076789Y-107287211D01*
X135076786Y-107287207D01*
X134965292Y-107175713D01*
X134965288Y-107175710D01*
X134834185Y-107088109D01*
X134834172Y-107088102D01*
X134688501Y-107027764D01*
X134688489Y-107027761D01*
X134533845Y-106997000D01*
X134533842Y-106997000D01*
X134376158Y-106997000D01*
X134376155Y-106997000D01*
X134221510Y-107027761D01*
X134221498Y-107027764D01*
X134075827Y-107088102D01*
X134075814Y-107088109D01*
X133944711Y-107175710D01*
X133944707Y-107175713D01*
X133833213Y-107287207D01*
X133833210Y-107287211D01*
X133745609Y-107418314D01*
X133745602Y-107418327D01*
X133685264Y-107563998D01*
X133685261Y-107564010D01*
X133654500Y-107718653D01*
X113477300Y-107718653D01*
X113477300Y-104551153D01*
X119349500Y-104551153D01*
X119349500Y-104708846D01*
X119380261Y-104863489D01*
X119380264Y-104863501D01*
X119440602Y-105009172D01*
X119440609Y-105009185D01*
X119528210Y-105140288D01*
X119528213Y-105140292D01*
X119639707Y-105251786D01*
X119639711Y-105251789D01*
X119770814Y-105339390D01*
X119770827Y-105339397D01*
X119916498Y-105399735D01*
X119916503Y-105399737D01*
X120071153Y-105430499D01*
X120071156Y-105430500D01*
X120071158Y-105430500D01*
X120228844Y-105430500D01*
X120228845Y-105430499D01*
X120383497Y-105399737D01*
X120529179Y-105339394D01*
X120660289Y-105251789D01*
X120771789Y-105140289D01*
X120859394Y-105009179D01*
X120906211Y-104896153D01*
X125374500Y-104896153D01*
X125374500Y-105053846D01*
X125405261Y-105208489D01*
X125405264Y-105208501D01*
X125465602Y-105354172D01*
X125465609Y-105354185D01*
X125553210Y-105485288D01*
X125553213Y-105485292D01*
X125664707Y-105596786D01*
X125664711Y-105596789D01*
X125795814Y-105684390D01*
X125795827Y-105684397D01*
X125941498Y-105744735D01*
X125941503Y-105744737D01*
X126096153Y-105775499D01*
X126096156Y-105775500D01*
X126096158Y-105775500D01*
X126253844Y-105775500D01*
X126253845Y-105775499D01*
X126408497Y-105744737D01*
X126554179Y-105684394D01*
X126685289Y-105596789D01*
X126685925Y-105596153D01*
X133654500Y-105596153D01*
X133654500Y-105753846D01*
X133685261Y-105908489D01*
X133685264Y-105908501D01*
X133745602Y-106054172D01*
X133745609Y-106054185D01*
X133833210Y-106185288D01*
X133833213Y-106185292D01*
X133944707Y-106296786D01*
X133944711Y-106296789D01*
X134075814Y-106384390D01*
X134075827Y-106384397D01*
X134221498Y-106444735D01*
X134221503Y-106444737D01*
X134376153Y-106475499D01*
X134376156Y-106475500D01*
X134376158Y-106475500D01*
X134533844Y-106475500D01*
X134533845Y-106475499D01*
X134688497Y-106444737D01*
X134834179Y-106384394D01*
X134965289Y-106296789D01*
X135076789Y-106185289D01*
X135164394Y-106054179D01*
X135224737Y-105908497D01*
X135255500Y-105753842D01*
X135255500Y-105596158D01*
X135255500Y-105596155D01*
X135255499Y-105596153D01*
X135233447Y-105485292D01*
X135224737Y-105441503D01*
X135224735Y-105441498D01*
X135164397Y-105295827D01*
X135164390Y-105295814D01*
X135076789Y-105164711D01*
X135076786Y-105164707D01*
X134965292Y-105053213D01*
X134965288Y-105053210D01*
X134834185Y-104965609D01*
X134834172Y-104965602D01*
X134688501Y-104905264D01*
X134688489Y-104905261D01*
X134533845Y-104874500D01*
X134533842Y-104874500D01*
X134376158Y-104874500D01*
X134376155Y-104874500D01*
X134221510Y-104905261D01*
X134221498Y-104905264D01*
X134075827Y-104965602D01*
X134075814Y-104965609D01*
X133944711Y-105053210D01*
X133944707Y-105053213D01*
X133833213Y-105164707D01*
X133833210Y-105164711D01*
X133745609Y-105295814D01*
X133745602Y-105295827D01*
X133685264Y-105441498D01*
X133685261Y-105441510D01*
X133654500Y-105596153D01*
X126685925Y-105596153D01*
X126779694Y-105502385D01*
X126796786Y-105485292D01*
X126796789Y-105485289D01*
X126884394Y-105354179D01*
X126944737Y-105208497D01*
X126975500Y-105053842D01*
X126975500Y-104896158D01*
X126975500Y-104896155D01*
X126975499Y-104896153D01*
X126944738Y-104741510D01*
X126944737Y-104741503D01*
X126931209Y-104708844D01*
X126884397Y-104595827D01*
X126884390Y-104595814D01*
X126796789Y-104464711D01*
X126796786Y-104464707D01*
X126685292Y-104353213D01*
X126685288Y-104353210D01*
X126554185Y-104265609D01*
X126554172Y-104265602D01*
X126408501Y-104205264D01*
X126408489Y-104205261D01*
X126253845Y-104174500D01*
X126253842Y-104174500D01*
X126096158Y-104174500D01*
X126096155Y-104174500D01*
X125941510Y-104205261D01*
X125941498Y-104205264D01*
X125795827Y-104265602D01*
X125795814Y-104265609D01*
X125664711Y-104353210D01*
X125664707Y-104353213D01*
X125553213Y-104464707D01*
X125553210Y-104464711D01*
X125465609Y-104595814D01*
X125465602Y-104595827D01*
X125405264Y-104741498D01*
X125405261Y-104741510D01*
X125374500Y-104896153D01*
X120906211Y-104896153D01*
X120919737Y-104863497D01*
X120944004Y-104741498D01*
X120950500Y-104708844D01*
X120950500Y-104551155D01*
X120950499Y-104551153D01*
X120919737Y-104396503D01*
X120901805Y-104353210D01*
X120859397Y-104250827D01*
X120859390Y-104250814D01*
X120771789Y-104119711D01*
X120771786Y-104119707D01*
X120660292Y-104008213D01*
X120660288Y-104008210D01*
X120529185Y-103920609D01*
X120529172Y-103920602D01*
X120383501Y-103860264D01*
X120383489Y-103860261D01*
X120228845Y-103829500D01*
X120228842Y-103829500D01*
X120071158Y-103829500D01*
X120071155Y-103829500D01*
X119916510Y-103860261D01*
X119916498Y-103860264D01*
X119770827Y-103920602D01*
X119770814Y-103920609D01*
X119639711Y-104008210D01*
X119639707Y-104008213D01*
X119528213Y-104119707D01*
X119528210Y-104119711D01*
X119440609Y-104250814D01*
X119440602Y-104250827D01*
X119380264Y-104396498D01*
X119380261Y-104396510D01*
X119349500Y-104551153D01*
X113477300Y-104551153D01*
X113477300Y-101821153D01*
X127874500Y-101821153D01*
X127874500Y-101978846D01*
X127905261Y-102133489D01*
X127905264Y-102133501D01*
X127965602Y-102279172D01*
X127965609Y-102279185D01*
X128053210Y-102410288D01*
X128053213Y-102410292D01*
X128164707Y-102521786D01*
X128164711Y-102521789D01*
X128295814Y-102609390D01*
X128295827Y-102609397D01*
X128438799Y-102668617D01*
X128441503Y-102669737D01*
X128596153Y-102700499D01*
X128596156Y-102700500D01*
X128596158Y-102700500D01*
X128753844Y-102700500D01*
X128753845Y-102700499D01*
X128908497Y-102669737D01*
X129054179Y-102609394D01*
X129185289Y-102521789D01*
X129225699Y-102481379D01*
X135224500Y-102481379D01*
X135224500Y-102668620D01*
X135261025Y-102852243D01*
X135261027Y-102852251D01*
X135332676Y-103025228D01*
X135332681Y-103025237D01*
X135436697Y-103180907D01*
X135436700Y-103180911D01*
X135569088Y-103313299D01*
X135569092Y-103313302D01*
X135724762Y-103417318D01*
X135724768Y-103417321D01*
X135724769Y-103417322D01*
X135897749Y-103488973D01*
X136081379Y-103525499D01*
X136081383Y-103525500D01*
X136081384Y-103525500D01*
X136268617Y-103525500D01*
X136268618Y-103525499D01*
X136452251Y-103488973D01*
X136625231Y-103417322D01*
X136780908Y-103313302D01*
X136913302Y-103180908D01*
X137017322Y-103025231D01*
X137088973Y-102852251D01*
X137125500Y-102668616D01*
X137125500Y-102481384D01*
X137088973Y-102297749D01*
X137020934Y-102133488D01*
X137017323Y-102124771D01*
X137017318Y-102124762D01*
X136913302Y-101969092D01*
X136913299Y-101969088D01*
X136780911Y-101836700D01*
X136780907Y-101836697D01*
X136625237Y-101732681D01*
X136625228Y-101732676D01*
X136452251Y-101661027D01*
X136452243Y-101661025D01*
X136268620Y-101624500D01*
X136268616Y-101624500D01*
X136081384Y-101624500D01*
X136081379Y-101624500D01*
X135897756Y-101661025D01*
X135897748Y-101661027D01*
X135724771Y-101732676D01*
X135724762Y-101732681D01*
X135569092Y-101836697D01*
X135569088Y-101836700D01*
X135436700Y-101969088D01*
X135436697Y-101969092D01*
X135332681Y-102124762D01*
X135332676Y-102124771D01*
X135261027Y-102297748D01*
X135261025Y-102297756D01*
X135224500Y-102481379D01*
X129225699Y-102481379D01*
X129296789Y-102410289D01*
X129384394Y-102279179D01*
X129444737Y-102133497D01*
X129446366Y-102125309D01*
X129478751Y-102063398D01*
X129539466Y-102028824D01*
X129567983Y-102025500D01*
X129653844Y-102025500D01*
X129653845Y-102025499D01*
X129808497Y-101994737D01*
X129954179Y-101934394D01*
X130085289Y-101846789D01*
X130196789Y-101735289D01*
X130284394Y-101604179D01*
X130344737Y-101458497D01*
X130375500Y-101303842D01*
X130375500Y-101146158D01*
X130375500Y-101146155D01*
X130375499Y-101146153D01*
X130358680Y-101061601D01*
X130344737Y-100991503D01*
X130305956Y-100897876D01*
X130284397Y-100845827D01*
X130284390Y-100845814D01*
X130196789Y-100714711D01*
X130196786Y-100714707D01*
X130085292Y-100603213D01*
X130085288Y-100603210D01*
X129954185Y-100515609D01*
X129954172Y-100515602D01*
X129808501Y-100455264D01*
X129808489Y-100455261D01*
X129653845Y-100424500D01*
X129653842Y-100424500D01*
X129496158Y-100424500D01*
X129496155Y-100424500D01*
X129341510Y-100455261D01*
X129341498Y-100455264D01*
X129195827Y-100515602D01*
X129195814Y-100515609D01*
X129064711Y-100603210D01*
X129064707Y-100603213D01*
X128953213Y-100714707D01*
X128953210Y-100714711D01*
X128865609Y-100845814D01*
X128865602Y-100845827D01*
X128805264Y-100991498D01*
X128805263Y-100991501D01*
X128804576Y-100994955D01*
X128803634Y-100999691D01*
X128771250Y-101061601D01*
X128710535Y-101096176D01*
X128682017Y-101099500D01*
X128596155Y-101099500D01*
X128441510Y-101130261D01*
X128441498Y-101130264D01*
X128295827Y-101190602D01*
X128295814Y-101190609D01*
X128164711Y-101278210D01*
X128164707Y-101278213D01*
X128053213Y-101389707D01*
X128053210Y-101389711D01*
X127965609Y-101520814D01*
X127965602Y-101520827D01*
X127905264Y-101666498D01*
X127905261Y-101666510D01*
X127874500Y-101821153D01*
X113477300Y-101821153D01*
X113477300Y-97353713D01*
X114874500Y-97353713D01*
X114874500Y-97566287D01*
X114878300Y-97590281D01*
X114906723Y-97769738D01*
X114907754Y-97776243D01*
X114969900Y-97967509D01*
X114973444Y-97978414D01*
X115069951Y-98167820D01*
X115194890Y-98339786D01*
X115308430Y-98453326D01*
X115341915Y-98514649D01*
X115336931Y-98584341D01*
X115295059Y-98640274D01*
X115264083Y-98657189D01*
X115132669Y-98706203D01*
X115132664Y-98706206D01*
X115017455Y-98792452D01*
X115017452Y-98792455D01*
X114931206Y-98907664D01*
X114931202Y-98907671D01*
X114880908Y-99042517D01*
X114874501Y-99102116D01*
X114874500Y-99102135D01*
X114874500Y-100897870D01*
X114874501Y-100897876D01*
X114880908Y-100957483D01*
X114931202Y-101092328D01*
X114931206Y-101092335D01*
X115017452Y-101207544D01*
X115017455Y-101207547D01*
X115132664Y-101293793D01*
X115132671Y-101293797D01*
X115267517Y-101344091D01*
X115267516Y-101344091D01*
X115274444Y-101344835D01*
X115327127Y-101350500D01*
X117122872Y-101350499D01*
X117182483Y-101344091D01*
X117317331Y-101293796D01*
X117432546Y-101207546D01*
X117518796Y-101092331D01*
X117569091Y-100957483D01*
X117575500Y-100897873D01*
X117575499Y-99102128D01*
X117574705Y-99094738D01*
X117571231Y-99062418D01*
X117571231Y-99062415D01*
X117570461Y-99055253D01*
X120330900Y-99055253D01*
X120330900Y-99212946D01*
X120361661Y-99367589D01*
X120361664Y-99367601D01*
X120422002Y-99513272D01*
X120422009Y-99513285D01*
X120509610Y-99644388D01*
X120509613Y-99644392D01*
X120621107Y-99755886D01*
X120621111Y-99755889D01*
X120752214Y-99843490D01*
X120752227Y-99843497D01*
X120897898Y-99903835D01*
X120897903Y-99903837D01*
X121052553Y-99934599D01*
X121052556Y-99934600D01*
X121052558Y-99934600D01*
X121210244Y-99934600D01*
X121210245Y-99934599D01*
X121364897Y-99903837D01*
X121510579Y-99843494D01*
X121641689Y-99755889D01*
X121753189Y-99644389D01*
X121840794Y-99513279D01*
X121901137Y-99367597D01*
X121931900Y-99212942D01*
X121931900Y-99055258D01*
X121931900Y-99055255D01*
X121931899Y-99055253D01*
X121916155Y-98976102D01*
X121901137Y-98900603D01*
X121896213Y-98888715D01*
X121840797Y-98754927D01*
X121840790Y-98754914D01*
X121777943Y-98660857D01*
X121753189Y-98623811D01*
X121753186Y-98623807D01*
X121727432Y-98598053D01*
X123277300Y-98598053D01*
X123277300Y-98755746D01*
X123308061Y-98910389D01*
X123308064Y-98910401D01*
X123368402Y-99056072D01*
X123368409Y-99056085D01*
X123456010Y-99187188D01*
X123456013Y-99187192D01*
X123567507Y-99298686D01*
X123567511Y-99298689D01*
X123698614Y-99386290D01*
X123698627Y-99386297D01*
X123844298Y-99446635D01*
X123844303Y-99446637D01*
X123998953Y-99477399D01*
X123998956Y-99477400D01*
X123998958Y-99477400D01*
X124156644Y-99477400D01*
X124156645Y-99477399D01*
X124311297Y-99446637D01*
X124456979Y-99386294D01*
X124588089Y-99298689D01*
X124699589Y-99187189D01*
X124787194Y-99056079D01*
X124847537Y-98910397D01*
X124878300Y-98755742D01*
X124878300Y-98646153D01*
X127099500Y-98646153D01*
X127099500Y-98803846D01*
X127130261Y-98958489D01*
X127130264Y-98958501D01*
X127190602Y-99104172D01*
X127190609Y-99104185D01*
X127278210Y-99235288D01*
X127278213Y-99235292D01*
X127389707Y-99346786D01*
X127389711Y-99346789D01*
X127520814Y-99434390D01*
X127520827Y-99434397D01*
X127624645Y-99477399D01*
X127666503Y-99494737D01*
X127821153Y-99525499D01*
X127821156Y-99525500D01*
X127821158Y-99525500D01*
X127978844Y-99525500D01*
X127978845Y-99525499D01*
X128133497Y-99494737D01*
X128279179Y-99434394D01*
X128327458Y-99402135D01*
X143199500Y-99402135D01*
X143199500Y-101197870D01*
X143199501Y-101197876D01*
X143205908Y-101257483D01*
X143256202Y-101392328D01*
X143256206Y-101392335D01*
X143342452Y-101507544D01*
X143342455Y-101507547D01*
X143457664Y-101593793D01*
X143457671Y-101593797D01*
X143589082Y-101642810D01*
X143645016Y-101684681D01*
X143669433Y-101750145D01*
X143654582Y-101818418D01*
X143633431Y-101846673D01*
X143519889Y-101960215D01*
X143394951Y-102132179D01*
X143298444Y-102321585D01*
X143232753Y-102523760D01*
X143199500Y-102733713D01*
X143199500Y-102946286D01*
X143232753Y-103156239D01*
X143298444Y-103358414D01*
X143394951Y-103547820D01*
X143519890Y-103719786D01*
X143670213Y-103870109D01*
X143842179Y-103995048D01*
X143842181Y-103995049D01*
X143842184Y-103995051D01*
X144031588Y-104091557D01*
X144233757Y-104157246D01*
X144443713Y-104190500D01*
X144443714Y-104190500D01*
X144656286Y-104190500D01*
X144656287Y-104190500D01*
X144866243Y-104157246D01*
X145068412Y-104091557D01*
X145257816Y-103995051D01*
X145279789Y-103979086D01*
X145429786Y-103870109D01*
X145429788Y-103870106D01*
X145429792Y-103870104D01*
X145580104Y-103719792D01*
X145580106Y-103719788D01*
X145580109Y-103719786D01*
X145705048Y-103547820D01*
X145705047Y-103547820D01*
X145705051Y-103547816D01*
X145801557Y-103358412D01*
X145867246Y-103156243D01*
X145900500Y-102946287D01*
X145900500Y-102733713D01*
X145867246Y-102523757D01*
X145801557Y-102321588D01*
X145705051Y-102132184D01*
X145705049Y-102132181D01*
X145705048Y-102132179D01*
X145580109Y-101960213D01*
X145466569Y-101846673D01*
X145433084Y-101785350D01*
X145438068Y-101715658D01*
X145479940Y-101659725D01*
X145510915Y-101642810D01*
X145642331Y-101593796D01*
X145757546Y-101507546D01*
X145843796Y-101392331D01*
X145894091Y-101257483D01*
X145900500Y-101197873D01*
X145900499Y-99402128D01*
X145894091Y-99342517D01*
X145877744Y-99298689D01*
X145843797Y-99207671D01*
X145843793Y-99207664D01*
X145757547Y-99092455D01*
X145757544Y-99092452D01*
X145642335Y-99006206D01*
X145642328Y-99006202D01*
X145507482Y-98955908D01*
X145507483Y-98955908D01*
X145447883Y-98949501D01*
X145447881Y-98949500D01*
X145447873Y-98949500D01*
X145447864Y-98949500D01*
X143652129Y-98949500D01*
X143652123Y-98949501D01*
X143592516Y-98955908D01*
X143457671Y-99006202D01*
X143457664Y-99006206D01*
X143342455Y-99092452D01*
X143342452Y-99092455D01*
X143256206Y-99207664D01*
X143256202Y-99207671D01*
X143205908Y-99342517D01*
X143201202Y-99386294D01*
X143199501Y-99402123D01*
X143199500Y-99402135D01*
X128327458Y-99402135D01*
X128410289Y-99346789D01*
X128521789Y-99235289D01*
X128578582Y-99150290D01*
X128582669Y-99145362D01*
X128606546Y-99129269D01*
X128628642Y-99110804D01*
X128636316Y-99109206D01*
X128640608Y-99106314D01*
X128651331Y-99106079D01*
X128678132Y-99100500D01*
X128803844Y-99100500D01*
X128803845Y-99100499D01*
X128958497Y-99069737D01*
X129034871Y-99038101D01*
X129104336Y-99030633D01*
X129129770Y-99038100D01*
X129266503Y-99094737D01*
X129421153Y-99125499D01*
X129421156Y-99125500D01*
X129421158Y-99125500D01*
X129578844Y-99125500D01*
X129578845Y-99125499D01*
X129733497Y-99094737D01*
X129879179Y-99034394D01*
X130010289Y-98946789D01*
X130039862Y-98917214D01*
X130101182Y-98883731D01*
X130170874Y-98888715D01*
X130196432Y-98901794D01*
X130217333Y-98915760D01*
X130217334Y-98915760D01*
X130217335Y-98915761D01*
X130347646Y-98969737D01*
X130363015Y-98976103D01*
X130514332Y-99006202D01*
X130517665Y-99006865D01*
X130517668Y-99006866D01*
X130517670Y-99006866D01*
X130675356Y-99006866D01*
X130675357Y-99006865D01*
X130830009Y-98976103D01*
X130905917Y-98944660D01*
X130975384Y-98937192D01*
X131022259Y-98956120D01*
X131113278Y-99016937D01*
X131113280Y-99016938D01*
X131113284Y-99016940D01*
X131240749Y-99069737D01*
X131258960Y-99077280D01*
X131404923Y-99106314D01*
X131413610Y-99108042D01*
X131413613Y-99108043D01*
X131413615Y-99108043D01*
X131571301Y-99108043D01*
X131571302Y-99108042D01*
X131725954Y-99077280D01*
X131871636Y-99016937D01*
X131963409Y-98955615D01*
X132030084Y-98934739D01*
X132079749Y-98944157D01*
X132141503Y-98969737D01*
X132296153Y-99000499D01*
X132296156Y-99000500D01*
X132296158Y-99000500D01*
X132453844Y-99000500D01*
X132453845Y-99000499D01*
X132608497Y-98969737D01*
X132735186Y-98917261D01*
X132754172Y-98909397D01*
X132754172Y-98909396D01*
X132754179Y-98909394D01*
X132885289Y-98821789D01*
X132996789Y-98710289D01*
X133084394Y-98579179D01*
X133144737Y-98433497D01*
X133175500Y-98278842D01*
X133175500Y-98121158D01*
X133175500Y-98121155D01*
X133175499Y-98121153D01*
X133144937Y-97967509D01*
X133144737Y-97966503D01*
X133140081Y-97955263D01*
X133084397Y-97820827D01*
X133084390Y-97820814D01*
X132996789Y-97689711D01*
X132996786Y-97689707D01*
X132885292Y-97578213D01*
X132885288Y-97578210D01*
X132754185Y-97490609D01*
X132754172Y-97490602D01*
X132608501Y-97430264D01*
X132608489Y-97430261D01*
X132453845Y-97399500D01*
X132453842Y-97399500D01*
X132296158Y-97399500D01*
X132296155Y-97399500D01*
X132141510Y-97430261D01*
X132141498Y-97430264D01*
X131995827Y-97490602D01*
X131995809Y-97490612D01*
X131904048Y-97551925D01*
X131837371Y-97572803D01*
X131787706Y-97563384D01*
X131725958Y-97537807D01*
X131725946Y-97537804D01*
X131571302Y-97507043D01*
X131571299Y-97507043D01*
X131413615Y-97507043D01*
X131413612Y-97507043D01*
X131258962Y-97537804D01*
X131258958Y-97537806D01*
X131183050Y-97569247D01*
X131113580Y-97576714D01*
X131066708Y-97557787D01*
X130975697Y-97496975D01*
X130975684Y-97496968D01*
X130830013Y-97436630D01*
X130830001Y-97436627D01*
X130675357Y-97405866D01*
X130675354Y-97405866D01*
X130517670Y-97405866D01*
X130517667Y-97405866D01*
X130363022Y-97436627D01*
X130363010Y-97436630D01*
X130217339Y-97496968D01*
X130217326Y-97496975D01*
X130086226Y-97584574D01*
X130056649Y-97614151D01*
X129995325Y-97647635D01*
X129925634Y-97642649D01*
X129900079Y-97629571D01*
X129888432Y-97621789D01*
X129879179Y-97615606D01*
X129879176Y-97615604D01*
X129879171Y-97615602D01*
X129733501Y-97555264D01*
X129733489Y-97555261D01*
X129578845Y-97524500D01*
X129578842Y-97524500D01*
X129421158Y-97524500D01*
X129421155Y-97524500D01*
X129266511Y-97555260D01*
X129266510Y-97555261D01*
X129266507Y-97555262D01*
X129266503Y-97555263D01*
X129190127Y-97586898D01*
X129120660Y-97594366D01*
X129095226Y-97586897D01*
X128958501Y-97530264D01*
X128958489Y-97530261D01*
X128803845Y-97499500D01*
X128803842Y-97499500D01*
X128646158Y-97499500D01*
X128646155Y-97499500D01*
X128491510Y-97530261D01*
X128491498Y-97530264D01*
X128345827Y-97590602D01*
X128345814Y-97590609D01*
X128214711Y-97678210D01*
X128214707Y-97678213D01*
X128103213Y-97789707D01*
X128103210Y-97789711D01*
X128049970Y-97869391D01*
X127996358Y-97914196D01*
X127946868Y-97924500D01*
X127821155Y-97924500D01*
X127666510Y-97955261D01*
X127666498Y-97955264D01*
X127520827Y-98015602D01*
X127520814Y-98015609D01*
X127389711Y-98103210D01*
X127389707Y-98103213D01*
X127278213Y-98214707D01*
X127278210Y-98214711D01*
X127190609Y-98345814D01*
X127190602Y-98345827D01*
X127130264Y-98491498D01*
X127130261Y-98491510D01*
X127099500Y-98646153D01*
X124878300Y-98646153D01*
X124878300Y-98598058D01*
X124878300Y-98598055D01*
X124878299Y-98598053D01*
X124847537Y-98443403D01*
X124847535Y-98443398D01*
X124787197Y-98297727D01*
X124787190Y-98297714D01*
X124699589Y-98166611D01*
X124699586Y-98166607D01*
X124588092Y-98055113D01*
X124588088Y-98055110D01*
X124456985Y-97967509D01*
X124456972Y-97967502D01*
X124311301Y-97907164D01*
X124311289Y-97907161D01*
X124156645Y-97876400D01*
X124156642Y-97876400D01*
X123998958Y-97876400D01*
X123998955Y-97876400D01*
X123844310Y-97907161D01*
X123844298Y-97907164D01*
X123698627Y-97967502D01*
X123698614Y-97967509D01*
X123567511Y-98055110D01*
X123567507Y-98055113D01*
X123456013Y-98166607D01*
X123456010Y-98166611D01*
X123368409Y-98297714D01*
X123368402Y-98297727D01*
X123308064Y-98443398D01*
X123308061Y-98443410D01*
X123277300Y-98598053D01*
X121727432Y-98598053D01*
X121641692Y-98512313D01*
X121641688Y-98512310D01*
X121510585Y-98424709D01*
X121510572Y-98424702D01*
X121364901Y-98364364D01*
X121364889Y-98364361D01*
X121210245Y-98333600D01*
X121210242Y-98333600D01*
X121052558Y-98333600D01*
X121052555Y-98333600D01*
X120897910Y-98364361D01*
X120897898Y-98364364D01*
X120752227Y-98424702D01*
X120752214Y-98424709D01*
X120621111Y-98512310D01*
X120621107Y-98512313D01*
X120509613Y-98623807D01*
X120509610Y-98623811D01*
X120422009Y-98754914D01*
X120422002Y-98754927D01*
X120361664Y-98900598D01*
X120361661Y-98900610D01*
X120330900Y-99055253D01*
X117570461Y-99055253D01*
X117569092Y-99042520D01*
X117564658Y-99030633D01*
X117544320Y-98976102D01*
X117518797Y-98907671D01*
X117518793Y-98907664D01*
X117432547Y-98792455D01*
X117432544Y-98792452D01*
X117317335Y-98706206D01*
X117317328Y-98706202D01*
X117185917Y-98657189D01*
X117129983Y-98615318D01*
X117105566Y-98549853D01*
X117120418Y-98481580D01*
X117141563Y-98453332D01*
X117255104Y-98339792D01*
X117299387Y-98278842D01*
X117380048Y-98167820D01*
X117380047Y-98167820D01*
X117380051Y-98167816D01*
X117476557Y-97978412D01*
X117542246Y-97776243D01*
X117575500Y-97566287D01*
X117575500Y-97353713D01*
X117542246Y-97143757D01*
X117476557Y-96941588D01*
X117466145Y-96921153D01*
X121799500Y-96921153D01*
X121799500Y-97078846D01*
X121830261Y-97233489D01*
X121830264Y-97233501D01*
X121890602Y-97379172D01*
X121890609Y-97379185D01*
X121978210Y-97510288D01*
X121978213Y-97510292D01*
X122089707Y-97621786D01*
X122089711Y-97621789D01*
X122220814Y-97709390D01*
X122220827Y-97709397D01*
X122366498Y-97769735D01*
X122366503Y-97769737D01*
X122521153Y-97800499D01*
X122521156Y-97800500D01*
X122521158Y-97800500D01*
X122678844Y-97800500D01*
X122678845Y-97800499D01*
X122833497Y-97769737D01*
X122979179Y-97709394D01*
X123110289Y-97621789D01*
X123221789Y-97510289D01*
X123309394Y-97379179D01*
X123369737Y-97233497D01*
X123400500Y-97078842D01*
X123400500Y-96921158D01*
X123400500Y-96921155D01*
X123400499Y-96921153D01*
X123369738Y-96766510D01*
X123369737Y-96766503D01*
X123363804Y-96752179D01*
X123309397Y-96620827D01*
X123309390Y-96620814D01*
X123221789Y-96489711D01*
X123221786Y-96489707D01*
X123110292Y-96378213D01*
X123110288Y-96378210D01*
X122979185Y-96290609D01*
X122979172Y-96290602D01*
X122833501Y-96230264D01*
X122833489Y-96230261D01*
X122678845Y-96199500D01*
X122678842Y-96199500D01*
X122521158Y-96199500D01*
X122521155Y-96199500D01*
X122366510Y-96230261D01*
X122366498Y-96230264D01*
X122220827Y-96290602D01*
X122220814Y-96290609D01*
X122089711Y-96378210D01*
X122089707Y-96378213D01*
X121978213Y-96489707D01*
X121978210Y-96489711D01*
X121890609Y-96620814D01*
X121890602Y-96620827D01*
X121830264Y-96766498D01*
X121830261Y-96766510D01*
X121799500Y-96921153D01*
X117466145Y-96921153D01*
X117380051Y-96752184D01*
X117380049Y-96752181D01*
X117380048Y-96752179D01*
X117255109Y-96580213D01*
X117104786Y-96429890D01*
X116932820Y-96304951D01*
X116743414Y-96208444D01*
X116743413Y-96208443D01*
X116743412Y-96208443D01*
X116541243Y-96142754D01*
X116541241Y-96142753D01*
X116541240Y-96142753D01*
X116349186Y-96112335D01*
X116331287Y-96109500D01*
X116118713Y-96109500D01*
X116100814Y-96112335D01*
X115908760Y-96142753D01*
X115706585Y-96208444D01*
X115517179Y-96304951D01*
X115345213Y-96429890D01*
X115194890Y-96580213D01*
X115069951Y-96752179D01*
X114973444Y-96941585D01*
X114907753Y-97143760D01*
X114893540Y-97233497D01*
X114874500Y-97353713D01*
X113477300Y-97353713D01*
X113477300Y-95585992D01*
X127993424Y-95585992D01*
X127993424Y-95743685D01*
X128024185Y-95898328D01*
X128024188Y-95898340D01*
X128084526Y-96044011D01*
X128084533Y-96044024D01*
X128172134Y-96175127D01*
X128172137Y-96175131D01*
X128283631Y-96286625D01*
X128283635Y-96286628D01*
X128414738Y-96374229D01*
X128414751Y-96374236D01*
X128549114Y-96429890D01*
X128560427Y-96434576D01*
X128715077Y-96465338D01*
X128715080Y-96465339D01*
X128715082Y-96465339D01*
X128872768Y-96465339D01*
X128872769Y-96465338D01*
X129027421Y-96434576D01*
X129127285Y-96393210D01*
X129196755Y-96385742D01*
X129222190Y-96393211D01*
X129287281Y-96420172D01*
X129287286Y-96420174D01*
X129441936Y-96450936D01*
X129441939Y-96450937D01*
X129441941Y-96450937D01*
X129599627Y-96450937D01*
X129599628Y-96450936D01*
X129754280Y-96420174D01*
X129874209Y-96370498D01*
X129899955Y-96359834D01*
X129899955Y-96359833D01*
X129899962Y-96359831D01*
X130031072Y-96272226D01*
X130142572Y-96160726D01*
X130230177Y-96029616D01*
X130290520Y-95883934D01*
X130314026Y-95765764D01*
X130346411Y-95703853D01*
X130407126Y-95669279D01*
X130460050Y-95670949D01*
X130460528Y-95668549D01*
X130621153Y-95700499D01*
X130621156Y-95700500D01*
X130621158Y-95700500D01*
X130778844Y-95700500D01*
X130778845Y-95700499D01*
X130933497Y-95669737D01*
X131079179Y-95609394D01*
X131210289Y-95521789D01*
X131321789Y-95410289D01*
X131409394Y-95279179D01*
X131469737Y-95133497D01*
X131500500Y-94978842D01*
X131500500Y-94821158D01*
X131500500Y-94821155D01*
X131500499Y-94821153D01*
X131469738Y-94666510D01*
X131469738Y-94666508D01*
X131469737Y-94666503D01*
X131469735Y-94666498D01*
X131409397Y-94520827D01*
X131409390Y-94520814D01*
X131321789Y-94389711D01*
X131321786Y-94389707D01*
X131210292Y-94278213D01*
X131210288Y-94278210D01*
X131079185Y-94190609D01*
X131079172Y-94190602D01*
X130933501Y-94130264D01*
X130933489Y-94130261D01*
X130778845Y-94099500D01*
X130778842Y-94099500D01*
X130621158Y-94099500D01*
X130621155Y-94099500D01*
X130466510Y-94130261D01*
X130466498Y-94130264D01*
X130320827Y-94190602D01*
X130320814Y-94190609D01*
X130189711Y-94278210D01*
X130189707Y-94278213D01*
X130078213Y-94389707D01*
X130078210Y-94389711D01*
X129990609Y-94520814D01*
X129990602Y-94520827D01*
X129930264Y-94666498D01*
X129930261Y-94666508D01*
X129906756Y-94784673D01*
X129874370Y-94846584D01*
X129813654Y-94881158D01*
X129760727Y-94879511D01*
X129760255Y-94881888D01*
X129599628Y-94849937D01*
X129599625Y-94849937D01*
X129441941Y-94849937D01*
X129441938Y-94849937D01*
X129287293Y-94880698D01*
X129287285Y-94880700D01*
X129187418Y-94922065D01*
X129117948Y-94929532D01*
X129092516Y-94922065D01*
X129027421Y-94895102D01*
X129027417Y-94895101D01*
X129027412Y-94895099D01*
X128872769Y-94864339D01*
X128872766Y-94864339D01*
X128715082Y-94864339D01*
X128715079Y-94864339D01*
X128560434Y-94895100D01*
X128560422Y-94895103D01*
X128414751Y-94955441D01*
X128414738Y-94955448D01*
X128283635Y-95043049D01*
X128283631Y-95043052D01*
X128172137Y-95154546D01*
X128172134Y-95154550D01*
X128084533Y-95285653D01*
X128084526Y-95285666D01*
X128024188Y-95431337D01*
X128024185Y-95431349D01*
X127993424Y-95585992D01*
X113477300Y-95585992D01*
X113477300Y-91396153D01*
X116637000Y-91396153D01*
X116637000Y-91553846D01*
X116667761Y-91708489D01*
X116667764Y-91708501D01*
X116728102Y-91854172D01*
X116728109Y-91854185D01*
X116815710Y-91985288D01*
X116815713Y-91985292D01*
X116927207Y-92096786D01*
X116927211Y-92096789D01*
X117058314Y-92184390D01*
X117058327Y-92184397D01*
X117203998Y-92244735D01*
X117204003Y-92244737D01*
X117358653Y-92275499D01*
X117358656Y-92275500D01*
X117358658Y-92275500D01*
X117516344Y-92275500D01*
X117516345Y-92275499D01*
X117670997Y-92244737D01*
X117816679Y-92184394D01*
X117947789Y-92096789D01*
X118059289Y-91985289D01*
X118146894Y-91854179D01*
X118159536Y-91823658D01*
X118163473Y-91814153D01*
X121524500Y-91814153D01*
X121524500Y-91971846D01*
X121555261Y-92126489D01*
X121555264Y-92126501D01*
X121615602Y-92272172D01*
X121615609Y-92272185D01*
X121703210Y-92403288D01*
X121703213Y-92403292D01*
X121814707Y-92514786D01*
X121814711Y-92514789D01*
X121945814Y-92602390D01*
X121945827Y-92602397D01*
X122050613Y-92645800D01*
X122091503Y-92662737D01*
X122246153Y-92693499D01*
X122246156Y-92693500D01*
X122246158Y-92693500D01*
X122403844Y-92693500D01*
X122403845Y-92693499D01*
X122558497Y-92662737D01*
X122650578Y-92624595D01*
X122720045Y-92617127D01*
X122745477Y-92624594D01*
X122837562Y-92662737D01*
X122992212Y-92693499D01*
X122992215Y-92693500D01*
X122992217Y-92693500D01*
X123149903Y-92693500D01*
X123149904Y-92693499D01*
X123304556Y-92662737D01*
X123304564Y-92662733D01*
X123310239Y-92661013D01*
X123380105Y-92660385D01*
X123439221Y-92697630D01*
X123468815Y-92760922D01*
X123467858Y-92803862D01*
X123449500Y-92896153D01*
X123449500Y-93053846D01*
X123480261Y-93208489D01*
X123480264Y-93208501D01*
X123540602Y-93354172D01*
X123540609Y-93354185D01*
X123628210Y-93485288D01*
X123628213Y-93485292D01*
X123739707Y-93596786D01*
X123739711Y-93596789D01*
X123870814Y-93684390D01*
X123870827Y-93684397D01*
X124016498Y-93744735D01*
X124016503Y-93744737D01*
X124171153Y-93775499D01*
X124171156Y-93775500D01*
X124171158Y-93775500D01*
X124328844Y-93775500D01*
X124328845Y-93775499D01*
X124483497Y-93744737D01*
X124629179Y-93684394D01*
X124760289Y-93596789D01*
X124871789Y-93485289D01*
X124959394Y-93354179D01*
X125019737Y-93208497D01*
X125050500Y-93053842D01*
X125050500Y-92896158D01*
X125050500Y-92896155D01*
X125050499Y-92896153D01*
X125032141Y-92803862D01*
X125019737Y-92741503D01*
X124991581Y-92673530D01*
X124984113Y-92604061D01*
X125015388Y-92541582D01*
X125030828Y-92528445D01*
X125030585Y-92528149D01*
X125035283Y-92524292D01*
X125035289Y-92524289D01*
X125146789Y-92412789D01*
X125234394Y-92281679D01*
X125294737Y-92135997D01*
X125325500Y-91981342D01*
X125325500Y-91823658D01*
X125325500Y-91823655D01*
X125325499Y-91823653D01*
X125317723Y-91784557D01*
X125314122Y-91766453D01*
X126636700Y-91766453D01*
X126636700Y-91924146D01*
X126667461Y-92078789D01*
X126667464Y-92078801D01*
X126727802Y-92224472D01*
X126727809Y-92224485D01*
X126815410Y-92355588D01*
X126815413Y-92355592D01*
X126926907Y-92467086D01*
X126926911Y-92467089D01*
X127058014Y-92554690D01*
X127058027Y-92554697D01*
X127173187Y-92602397D01*
X127203703Y-92615037D01*
X127351652Y-92644466D01*
X127358353Y-92645799D01*
X127358356Y-92645800D01*
X127358358Y-92645800D01*
X127516044Y-92645800D01*
X127516045Y-92645799D01*
X127670697Y-92615037D01*
X127816379Y-92554694D01*
X127947489Y-92467089D01*
X128058989Y-92355589D01*
X128146594Y-92224479D01*
X128206937Y-92078797D01*
X128237700Y-91924142D01*
X128237700Y-91766458D01*
X128237700Y-91766455D01*
X128237699Y-91766453D01*
X128236538Y-91760614D01*
X128206937Y-91611803D01*
X128182929Y-91553842D01*
X128146597Y-91466127D01*
X128146590Y-91466114D01*
X128058989Y-91335011D01*
X128058986Y-91335007D01*
X127947492Y-91223513D01*
X127947488Y-91223510D01*
X127816385Y-91135909D01*
X127816372Y-91135902D01*
X127670701Y-91075564D01*
X127670689Y-91075561D01*
X127516045Y-91044800D01*
X127516042Y-91044800D01*
X127358358Y-91044800D01*
X127358355Y-91044800D01*
X127203710Y-91075561D01*
X127203698Y-91075564D01*
X127058027Y-91135902D01*
X127058014Y-91135909D01*
X126926911Y-91223510D01*
X126926907Y-91223513D01*
X126815413Y-91335007D01*
X126815410Y-91335011D01*
X126727809Y-91466114D01*
X126727802Y-91466127D01*
X126667464Y-91611798D01*
X126667461Y-91611810D01*
X126636700Y-91766453D01*
X125314122Y-91766453D01*
X125294738Y-91669008D01*
X125294737Y-91669007D01*
X125294737Y-91669003D01*
X125271042Y-91611798D01*
X125234397Y-91523327D01*
X125234390Y-91523314D01*
X125146789Y-91392211D01*
X125146786Y-91392207D01*
X125063444Y-91308865D01*
X125029959Y-91247542D01*
X125034943Y-91177850D01*
X125036547Y-91173771D01*
X125048259Y-91145498D01*
X125079022Y-90990843D01*
X125079022Y-90833159D01*
X125079022Y-90833156D01*
X125079021Y-90833154D01*
X125073675Y-90806279D01*
X125048259Y-90678504D01*
X125046601Y-90674500D01*
X124987919Y-90532828D01*
X124987912Y-90532815D01*
X124900311Y-90401712D01*
X124900308Y-90401708D01*
X124788814Y-90290214D01*
X124788808Y-90290209D01*
X124752444Y-90265911D01*
X124707640Y-90212299D01*
X124697336Y-90162810D01*
X124697336Y-90049319D01*
X124697335Y-90049317D01*
X124686056Y-89992614D01*
X124666573Y-89894667D01*
X124665265Y-89891510D01*
X124606233Y-89748991D01*
X124606226Y-89748978D01*
X124567801Y-89691472D01*
X124567800Y-89691471D01*
X124522333Y-89623425D01*
X127271701Y-89623425D01*
X127271701Y-89781118D01*
X127302462Y-89935761D01*
X127302465Y-89935773D01*
X127362803Y-90081444D01*
X127362810Y-90081457D01*
X127450411Y-90212560D01*
X127450414Y-90212564D01*
X127561908Y-90324058D01*
X127561912Y-90324061D01*
X127693015Y-90411662D01*
X127693028Y-90411669D01*
X127838699Y-90472007D01*
X127838704Y-90472009D01*
X127993354Y-90502771D01*
X127993357Y-90502772D01*
X127993359Y-90502772D01*
X128151045Y-90502772D01*
X128151046Y-90502771D01*
X128305698Y-90472009D01*
X128451380Y-90411666D01*
X128582490Y-90324061D01*
X128693990Y-90212561D01*
X128781595Y-90081451D01*
X128796216Y-90046153D01*
X134374500Y-90046153D01*
X134374500Y-90203846D01*
X134405261Y-90358489D01*
X134405264Y-90358501D01*
X134465602Y-90504172D01*
X134465609Y-90504185D01*
X134553210Y-90635288D01*
X134553213Y-90635292D01*
X134664707Y-90746786D01*
X134664711Y-90746789D01*
X134795814Y-90834390D01*
X134795827Y-90834397D01*
X134896371Y-90876043D01*
X134941503Y-90894737D01*
X135096153Y-90925499D01*
X135096156Y-90925500D01*
X135096158Y-90925500D01*
X135253844Y-90925500D01*
X135253845Y-90925499D01*
X135408497Y-90894737D01*
X135554179Y-90834394D01*
X135685289Y-90746789D01*
X135796789Y-90635289D01*
X135884394Y-90504179D01*
X135944737Y-90358497D01*
X135975500Y-90203842D01*
X135975500Y-90046158D01*
X135975500Y-90046155D01*
X135975499Y-90046153D01*
X135953541Y-89935764D01*
X135944737Y-89891503D01*
X135931808Y-89860289D01*
X135884397Y-89745827D01*
X135884390Y-89745814D01*
X135796789Y-89614711D01*
X135796786Y-89614707D01*
X135685292Y-89503213D01*
X135685288Y-89503210D01*
X135554185Y-89415609D01*
X135554172Y-89415602D01*
X135408501Y-89355264D01*
X135408489Y-89355261D01*
X135253845Y-89324500D01*
X135253842Y-89324500D01*
X135096158Y-89324500D01*
X135096155Y-89324500D01*
X134941510Y-89355261D01*
X134941498Y-89355264D01*
X134795827Y-89415602D01*
X134795814Y-89415609D01*
X134664711Y-89503210D01*
X134664707Y-89503213D01*
X134553213Y-89614707D01*
X134553210Y-89614711D01*
X134465609Y-89745814D01*
X134465602Y-89745827D01*
X134405264Y-89891498D01*
X134405261Y-89891510D01*
X134374500Y-90046153D01*
X128796216Y-90046153D01*
X128841938Y-89935769D01*
X128872701Y-89781114D01*
X128872701Y-89623430D01*
X128872701Y-89623427D01*
X128872700Y-89623425D01*
X128870966Y-89614707D01*
X128841938Y-89468775D01*
X128825398Y-89428844D01*
X128781598Y-89323099D01*
X128781591Y-89323086D01*
X128693990Y-89191983D01*
X128693987Y-89191979D01*
X128582493Y-89080485D01*
X128582489Y-89080482D01*
X128451386Y-88992881D01*
X128451373Y-88992874D01*
X128305702Y-88932536D01*
X128305690Y-88932533D01*
X128151046Y-88901772D01*
X128151043Y-88901772D01*
X127993359Y-88901772D01*
X127993356Y-88901772D01*
X127838711Y-88932533D01*
X127838699Y-88932536D01*
X127693028Y-88992874D01*
X127693015Y-88992881D01*
X127561912Y-89080482D01*
X127561908Y-89080485D01*
X127450414Y-89191979D01*
X127450411Y-89191983D01*
X127362810Y-89323086D01*
X127362803Y-89323099D01*
X127302465Y-89468770D01*
X127302462Y-89468782D01*
X127271701Y-89623425D01*
X124522333Y-89623425D01*
X124518625Y-89617875D01*
X124451536Y-89550786D01*
X124447790Y-89546253D01*
X124436243Y-89519323D01*
X124422208Y-89493619D01*
X124422466Y-89487189D01*
X124420257Y-89482037D01*
X124423435Y-89463086D01*
X124424714Y-89431262D01*
X124425904Y-89427337D01*
X124425909Y-89427325D01*
X124456672Y-89272670D01*
X124456672Y-89114986D01*
X124456672Y-89114983D01*
X124456671Y-89114981D01*
X124445776Y-89060208D01*
X124425909Y-88960331D01*
X124414395Y-88932533D01*
X124365569Y-88814655D01*
X124365567Y-88814651D01*
X124365566Y-88814649D01*
X124296125Y-88710724D01*
X124275248Y-88644048D01*
X124283810Y-88598917D01*
X124283477Y-88598816D01*
X124284417Y-88595715D01*
X124284672Y-88594370D01*
X124285245Y-88592989D01*
X124287777Y-88580263D01*
X124316007Y-88438338D01*
X124316008Y-88438336D01*
X124316008Y-88280647D01*
X124316007Y-88280645D01*
X124285246Y-88126002D01*
X124285245Y-88125995D01*
X124277715Y-88107816D01*
X124224905Y-87980319D01*
X124224898Y-87980306D01*
X124137297Y-87849203D01*
X124137294Y-87849199D01*
X124025800Y-87737705D01*
X124025796Y-87737702D01*
X123894693Y-87650101D01*
X123894680Y-87650094D01*
X123749009Y-87589756D01*
X123748997Y-87589753D01*
X123594353Y-87558992D01*
X123594350Y-87558992D01*
X123436666Y-87558992D01*
X123436663Y-87558992D01*
X123282018Y-87589753D01*
X123282006Y-87589756D01*
X123136335Y-87650094D01*
X123136322Y-87650101D01*
X123005219Y-87737702D01*
X123005215Y-87737705D01*
X122893721Y-87849199D01*
X122893718Y-87849203D01*
X122806117Y-87980306D01*
X122806110Y-87980319D01*
X122745772Y-88125990D01*
X122745769Y-88126002D01*
X122715008Y-88280645D01*
X122715008Y-88438338D01*
X122745769Y-88592981D01*
X122745772Y-88592993D01*
X122806110Y-88738664D01*
X122806120Y-88738682D01*
X122875552Y-88842595D01*
X122896430Y-88909272D01*
X122887874Y-88954402D01*
X122888203Y-88954502D01*
X122887275Y-88957558D01*
X122887017Y-88958924D01*
X122886436Y-88960327D01*
X122886433Y-88960334D01*
X122855672Y-89114981D01*
X122855672Y-89272674D01*
X122886433Y-89427317D01*
X122886436Y-89427329D01*
X122946774Y-89573000D01*
X122946781Y-89573013D01*
X123034382Y-89704116D01*
X123034385Y-89704120D01*
X123097314Y-89767049D01*
X123130799Y-89828372D01*
X123128297Y-89890714D01*
X123127098Y-89894664D01*
X123096336Y-90049317D01*
X123096336Y-90207010D01*
X123127097Y-90361653D01*
X123127100Y-90361665D01*
X123187438Y-90507336D01*
X123187445Y-90507349D01*
X123275046Y-90638452D01*
X123275049Y-90638456D01*
X123386544Y-90749951D01*
X123386547Y-90749953D01*
X123409973Y-90765606D01*
X123422912Y-90774251D01*
X123427579Y-90779835D01*
X123434229Y-90782788D01*
X123449679Y-90806279D01*
X123467718Y-90827863D01*
X123469567Y-90836517D01*
X123472623Y-90841163D01*
X123477390Y-90873121D01*
X123478015Y-90876043D01*
X123478022Y-90876704D01*
X123478022Y-90990843D01*
X123479296Y-90997251D01*
X123479419Y-91008806D01*
X123472937Y-91031776D01*
X123470805Y-91055544D01*
X123463623Y-91064783D01*
X123460445Y-91076050D01*
X123442573Y-91091868D01*
X123427930Y-91110711D01*
X123416890Y-91114602D01*
X123408127Y-91122360D01*
X123384543Y-91126005D01*
X123362035Y-91133941D01*
X123348364Y-91131599D01*
X123339078Y-91133035D01*
X123327978Y-91128106D01*
X123307979Y-91124681D01*
X123304555Y-91123262D01*
X123304548Y-91123261D01*
X123149904Y-91092500D01*
X123149901Y-91092500D01*
X122992217Y-91092500D01*
X122992214Y-91092500D01*
X122837564Y-91123261D01*
X122837556Y-91123264D01*
X122745480Y-91161403D01*
X122676011Y-91168872D01*
X122650578Y-91161403D01*
X122610431Y-91144774D01*
X122558498Y-91123263D01*
X122558488Y-91123260D01*
X122403845Y-91092500D01*
X122403842Y-91092500D01*
X122246158Y-91092500D01*
X122246155Y-91092500D01*
X122091510Y-91123261D01*
X122091498Y-91123264D01*
X121945827Y-91183602D01*
X121945814Y-91183609D01*
X121814711Y-91271210D01*
X121814707Y-91271213D01*
X121703213Y-91382707D01*
X121703210Y-91382711D01*
X121615609Y-91513814D01*
X121615602Y-91513827D01*
X121555264Y-91659498D01*
X121555261Y-91659510D01*
X121524500Y-91814153D01*
X118163473Y-91814153D01*
X118185650Y-91760614D01*
X118207235Y-91708501D01*
X118207237Y-91708497D01*
X118238000Y-91553842D01*
X118238000Y-91396158D01*
X118238000Y-91396155D01*
X118237999Y-91396153D01*
X118223836Y-91324951D01*
X118207237Y-91241503D01*
X118207235Y-91241498D01*
X118146897Y-91095827D01*
X118146890Y-91095814D01*
X118059289Y-90964711D01*
X118059286Y-90964707D01*
X117947792Y-90853213D01*
X117947788Y-90853210D01*
X117816685Y-90765609D01*
X117816672Y-90765602D01*
X117671001Y-90705264D01*
X117670989Y-90705261D01*
X117516345Y-90674500D01*
X117516342Y-90674500D01*
X117358658Y-90674500D01*
X117358655Y-90674500D01*
X117204010Y-90705261D01*
X117203998Y-90705264D01*
X117058327Y-90765602D01*
X117058314Y-90765609D01*
X116927211Y-90853210D01*
X116927207Y-90853213D01*
X116815713Y-90964707D01*
X116815710Y-90964711D01*
X116728109Y-91095814D01*
X116728102Y-91095827D01*
X116667764Y-91241498D01*
X116667761Y-91241510D01*
X116637000Y-91396153D01*
X113477300Y-91396153D01*
X113477300Y-89271153D01*
X116637000Y-89271153D01*
X116637000Y-89428846D01*
X116667761Y-89583489D01*
X116667764Y-89583501D01*
X116728102Y-89729172D01*
X116728109Y-89729185D01*
X116815710Y-89860288D01*
X116815713Y-89860292D01*
X116927207Y-89971786D01*
X116927211Y-89971789D01*
X117058314Y-90059390D01*
X117058327Y-90059397D01*
X117203998Y-90119735D01*
X117204003Y-90119737D01*
X117358653Y-90150499D01*
X117358656Y-90150500D01*
X117358658Y-90150500D01*
X117516344Y-90150500D01*
X117516345Y-90150499D01*
X117670997Y-90119737D01*
X117816679Y-90059394D01*
X117947789Y-89971789D01*
X118059289Y-89860289D01*
X118146894Y-89729179D01*
X118207237Y-89583497D01*
X118238000Y-89428842D01*
X118238000Y-89271158D01*
X118238000Y-89271155D01*
X118237999Y-89271153D01*
X118207237Y-89116503D01*
X118183919Y-89060208D01*
X118146897Y-88970827D01*
X118146890Y-88970814D01*
X118059289Y-88839711D01*
X118059286Y-88839707D01*
X117947792Y-88728213D01*
X117947788Y-88728210D01*
X117816685Y-88640609D01*
X117816672Y-88640602D01*
X117671001Y-88580264D01*
X117670989Y-88580261D01*
X117516345Y-88549500D01*
X117516342Y-88549500D01*
X117358658Y-88549500D01*
X117358655Y-88549500D01*
X117204010Y-88580261D01*
X117203998Y-88580264D01*
X117058327Y-88640602D01*
X117058314Y-88640609D01*
X116927211Y-88728210D01*
X116927207Y-88728213D01*
X116815713Y-88839707D01*
X116815710Y-88839711D01*
X116728109Y-88970814D01*
X116728102Y-88970827D01*
X116667764Y-89116498D01*
X116667761Y-89116510D01*
X116637000Y-89271153D01*
X113477300Y-89271153D01*
X113477300Y-87171153D01*
X116599500Y-87171153D01*
X116599500Y-87328846D01*
X116630261Y-87483489D01*
X116630264Y-87483501D01*
X116690602Y-87629172D01*
X116690609Y-87629185D01*
X116778210Y-87760288D01*
X116778213Y-87760292D01*
X116889707Y-87871786D01*
X116889711Y-87871789D01*
X117020814Y-87959390D01*
X117020827Y-87959397D01*
X117166498Y-88019735D01*
X117166503Y-88019737D01*
X117292176Y-88044735D01*
X117321153Y-88050499D01*
X117321156Y-88050500D01*
X117321158Y-88050500D01*
X117478844Y-88050500D01*
X117478845Y-88050499D01*
X117633497Y-88019737D01*
X117779179Y-87959394D01*
X117910289Y-87871789D01*
X118021789Y-87760289D01*
X118109394Y-87629179D01*
X118169737Y-87483497D01*
X118200500Y-87328842D01*
X118200500Y-87171158D01*
X118200500Y-87171155D01*
X118200499Y-87171153D01*
X118170748Y-87021588D01*
X118169737Y-87016503D01*
X118134384Y-86931153D01*
X126689500Y-86931153D01*
X126689500Y-87088846D01*
X126720261Y-87243489D01*
X126720264Y-87243501D01*
X126780602Y-87389172D01*
X126780609Y-87389185D01*
X126868210Y-87520288D01*
X126868213Y-87520292D01*
X126979707Y-87631786D01*
X126979711Y-87631789D01*
X127110814Y-87719390D01*
X127110827Y-87719397D01*
X127209558Y-87760292D01*
X127256503Y-87779737D01*
X127411153Y-87810499D01*
X127411156Y-87810500D01*
X127411158Y-87810500D01*
X127568844Y-87810500D01*
X127568845Y-87810499D01*
X127723497Y-87779737D01*
X127869179Y-87719394D01*
X127990260Y-87638489D01*
X128056937Y-87617612D01*
X128124317Y-87636096D01*
X128146832Y-87653911D01*
X128189707Y-87696786D01*
X128189711Y-87696789D01*
X128320814Y-87784390D01*
X128320827Y-87784397D01*
X128466498Y-87844735D01*
X128466503Y-87844737D01*
X128602487Y-87871786D01*
X128621153Y-87875499D01*
X128621156Y-87875500D01*
X128621158Y-87875500D01*
X128778844Y-87875500D01*
X128778845Y-87875499D01*
X128933497Y-87844737D01*
X129079179Y-87784394D01*
X129210289Y-87696789D01*
X129321789Y-87585289D01*
X129409394Y-87454179D01*
X129469737Y-87308497D01*
X129492083Y-87196158D01*
X129492084Y-87196153D01*
X131174500Y-87196153D01*
X131174500Y-87353846D01*
X131205261Y-87508489D01*
X131205264Y-87508501D01*
X131265602Y-87654172D01*
X131265609Y-87654185D01*
X131353210Y-87785288D01*
X131353213Y-87785292D01*
X131464707Y-87896786D01*
X131464711Y-87896789D01*
X131595814Y-87984390D01*
X131595827Y-87984397D01*
X131741498Y-88044735D01*
X131741503Y-88044737D01*
X131896153Y-88075499D01*
X131896156Y-88075500D01*
X131896158Y-88075500D01*
X132053844Y-88075500D01*
X132053845Y-88075499D01*
X132208497Y-88044737D01*
X132354179Y-87984394D01*
X132485289Y-87896789D01*
X132596789Y-87785289D01*
X132684394Y-87654179D01*
X132744737Y-87508497D01*
X132775500Y-87353842D01*
X132775500Y-87196158D01*
X132775500Y-87196155D01*
X132775499Y-87196153D01*
X132770527Y-87171158D01*
X132744737Y-87041503D01*
X132725955Y-86996158D01*
X132684397Y-86895827D01*
X132684390Y-86895814D01*
X132596789Y-86764711D01*
X132596786Y-86764707D01*
X132485292Y-86653213D01*
X132485288Y-86653210D01*
X132354185Y-86565609D01*
X132354172Y-86565602D01*
X132208501Y-86505264D01*
X132208489Y-86505261D01*
X132053845Y-86474500D01*
X132053842Y-86474500D01*
X131896158Y-86474500D01*
X131896155Y-86474500D01*
X131741510Y-86505261D01*
X131741498Y-86505264D01*
X131595827Y-86565602D01*
X131595814Y-86565609D01*
X131464711Y-86653210D01*
X131464707Y-86653213D01*
X131353213Y-86764707D01*
X131353210Y-86764711D01*
X131265609Y-86895814D01*
X131265602Y-86895827D01*
X131205264Y-87041498D01*
X131205261Y-87041510D01*
X131174500Y-87196153D01*
X129492084Y-87196153D01*
X129498107Y-87165875D01*
X129498107Y-87165874D01*
X129500500Y-87153844D01*
X129500500Y-86996155D01*
X129500499Y-86996153D01*
X129495797Y-86972517D01*
X129469737Y-86841503D01*
X129442816Y-86776510D01*
X129409397Y-86695827D01*
X129409390Y-86695814D01*
X129321789Y-86564711D01*
X129321786Y-86564707D01*
X129210292Y-86453213D01*
X129210288Y-86453210D01*
X129079185Y-86365609D01*
X129079173Y-86365603D01*
X129064302Y-86359443D01*
X129009900Y-86315601D01*
X128990140Y-86269074D01*
X128977901Y-86207546D01*
X128969737Y-86166503D01*
X128939013Y-86092328D01*
X128909397Y-86020827D01*
X128909390Y-86020814D01*
X128821789Y-85889711D01*
X128821786Y-85889707D01*
X128710292Y-85778213D01*
X128710288Y-85778210D01*
X128579185Y-85690609D01*
X128579172Y-85690602D01*
X128433501Y-85630264D01*
X128433489Y-85630261D01*
X128278845Y-85599500D01*
X128278842Y-85599500D01*
X128121158Y-85599500D01*
X128121155Y-85599500D01*
X127966510Y-85630261D01*
X127966498Y-85630264D01*
X127820827Y-85690602D01*
X127820814Y-85690609D01*
X127689711Y-85778210D01*
X127689707Y-85778213D01*
X127578213Y-85889707D01*
X127578210Y-85889711D01*
X127490609Y-86020814D01*
X127490604Y-86020823D01*
X127437933Y-86147985D01*
X127394092Y-86202388D01*
X127347564Y-86222149D01*
X127256508Y-86240261D01*
X127256498Y-86240264D01*
X127110827Y-86300602D01*
X127110814Y-86300609D01*
X126979711Y-86388210D01*
X126979707Y-86388213D01*
X126868213Y-86499707D01*
X126868210Y-86499711D01*
X126780609Y-86630814D01*
X126780602Y-86630827D01*
X126720264Y-86776498D01*
X126720261Y-86776510D01*
X126689500Y-86931153D01*
X118134384Y-86931153D01*
X118119752Y-86895827D01*
X118109397Y-86870827D01*
X118109390Y-86870814D01*
X118021789Y-86739711D01*
X118021786Y-86739707D01*
X117910292Y-86628213D01*
X117910288Y-86628210D01*
X117779185Y-86540609D01*
X117779172Y-86540602D01*
X117633501Y-86480264D01*
X117633489Y-86480261D01*
X117478845Y-86449500D01*
X117478842Y-86449500D01*
X117321158Y-86449500D01*
X117321155Y-86449500D01*
X117166510Y-86480261D01*
X117166498Y-86480264D01*
X117020827Y-86540602D01*
X117020814Y-86540609D01*
X116889711Y-86628210D01*
X116889707Y-86628213D01*
X116778213Y-86739707D01*
X116778210Y-86739711D01*
X116690609Y-86870814D01*
X116690602Y-86870827D01*
X116630264Y-87016498D01*
X116630261Y-87016510D01*
X116599500Y-87171153D01*
X113477300Y-87171153D01*
X113477300Y-85021153D01*
X116649500Y-85021153D01*
X116649500Y-85178846D01*
X116680261Y-85333489D01*
X116680264Y-85333501D01*
X116740602Y-85479172D01*
X116740609Y-85479185D01*
X116828210Y-85610288D01*
X116828213Y-85610292D01*
X116939707Y-85721786D01*
X116939711Y-85721789D01*
X117070814Y-85809390D01*
X117070827Y-85809397D01*
X117216498Y-85869735D01*
X117216503Y-85869737D01*
X117358002Y-85897883D01*
X117371153Y-85900499D01*
X117371156Y-85900500D01*
X117371158Y-85900500D01*
X117528844Y-85900500D01*
X117528845Y-85900499D01*
X117683497Y-85869737D01*
X117829179Y-85809394D01*
X117960289Y-85721789D01*
X118071789Y-85610289D01*
X118159394Y-85479179D01*
X118219737Y-85333497D01*
X118250500Y-85178842D01*
X118250500Y-85021158D01*
X118250500Y-85021155D01*
X118250499Y-85021153D01*
X118248338Y-85010288D01*
X118219737Y-84866503D01*
X118219735Y-84866498D01*
X118159397Y-84720827D01*
X118159390Y-84720814D01*
X118071789Y-84589711D01*
X118071786Y-84589707D01*
X117960292Y-84478213D01*
X117960288Y-84478210D01*
X117829185Y-84390609D01*
X117829172Y-84390602D01*
X117683501Y-84330264D01*
X117683489Y-84330261D01*
X117528845Y-84299500D01*
X117528842Y-84299500D01*
X117371158Y-84299500D01*
X117371155Y-84299500D01*
X117216510Y-84330261D01*
X117216498Y-84330264D01*
X117070827Y-84390602D01*
X117070814Y-84390609D01*
X116939711Y-84478210D01*
X116939707Y-84478213D01*
X116828213Y-84589707D01*
X116828210Y-84589711D01*
X116740609Y-84720814D01*
X116740602Y-84720827D01*
X116680264Y-84866498D01*
X116680261Y-84866510D01*
X116649500Y-85021153D01*
X113477300Y-85021153D01*
X113477300Y-83021153D01*
X116624500Y-83021153D01*
X116624500Y-83178846D01*
X116655261Y-83333489D01*
X116655264Y-83333501D01*
X116715602Y-83479172D01*
X116715609Y-83479185D01*
X116803210Y-83610288D01*
X116803213Y-83610292D01*
X116914707Y-83721786D01*
X116914711Y-83721789D01*
X117045814Y-83809390D01*
X117045827Y-83809397D01*
X117191498Y-83869735D01*
X117191503Y-83869737D01*
X117337823Y-83898842D01*
X117346153Y-83900499D01*
X117346156Y-83900500D01*
X117346158Y-83900500D01*
X117503844Y-83900500D01*
X117503845Y-83900499D01*
X117658497Y-83869737D01*
X117804179Y-83809394D01*
X117906309Y-83741153D01*
X127559500Y-83741153D01*
X127559500Y-83898846D01*
X127590261Y-84053489D01*
X127590264Y-84053501D01*
X127650602Y-84199172D01*
X127650609Y-84199185D01*
X127738210Y-84330288D01*
X127738213Y-84330292D01*
X127849707Y-84441786D01*
X127849711Y-84441789D01*
X127980814Y-84529390D01*
X127980827Y-84529397D01*
X128126440Y-84589711D01*
X128126503Y-84589737D01*
X128281153Y-84620499D01*
X128281156Y-84620500D01*
X128281158Y-84620500D01*
X128438844Y-84620500D01*
X128438845Y-84620499D01*
X128593497Y-84589737D01*
X128739179Y-84529394D01*
X128870289Y-84441789D01*
X128890925Y-84421153D01*
X132649500Y-84421153D01*
X132649500Y-84578846D01*
X132680261Y-84733489D01*
X132680264Y-84733501D01*
X132740602Y-84879172D01*
X132740609Y-84879185D01*
X132828210Y-85010288D01*
X132828213Y-85010292D01*
X132939707Y-85121786D01*
X132939711Y-85121789D01*
X133070814Y-85209390D01*
X133070827Y-85209397D01*
X133146280Y-85240650D01*
X133216503Y-85269737D01*
X133371153Y-85300499D01*
X133371156Y-85300500D01*
X133371158Y-85300500D01*
X133528844Y-85300500D01*
X133528845Y-85300499D01*
X133683497Y-85269737D01*
X133829179Y-85209394D01*
X133829184Y-85209390D01*
X133829187Y-85209389D01*
X133856608Y-85191067D01*
X133923285Y-85170188D01*
X133990666Y-85188672D01*
X134037356Y-85240650D01*
X134049500Y-85294168D01*
X134049500Y-85897870D01*
X134049501Y-85897876D01*
X134055908Y-85957483D01*
X134106202Y-86092328D01*
X134106206Y-86092335D01*
X134192452Y-86207544D01*
X134192455Y-86207547D01*
X134307664Y-86293793D01*
X134307671Y-86293797D01*
X134439082Y-86342810D01*
X134495016Y-86384681D01*
X134519433Y-86450145D01*
X134504582Y-86518418D01*
X134483431Y-86546673D01*
X134369889Y-86660215D01*
X134244951Y-86832179D01*
X134148444Y-87021585D01*
X134082753Y-87223760D01*
X134049500Y-87433713D01*
X134049500Y-87646286D01*
X134080931Y-87844738D01*
X134082754Y-87856243D01*
X134145872Y-88050500D01*
X134148444Y-88058414D01*
X134244951Y-88247820D01*
X134369890Y-88419786D01*
X134520213Y-88570109D01*
X134692179Y-88695048D01*
X134692181Y-88695049D01*
X134692184Y-88695051D01*
X134881588Y-88791557D01*
X135083757Y-88857246D01*
X135293713Y-88890500D01*
X135293714Y-88890500D01*
X135506286Y-88890500D01*
X135506287Y-88890500D01*
X135716243Y-88857246D01*
X135918412Y-88791557D01*
X136107816Y-88695051D01*
X136228333Y-88607491D01*
X136279786Y-88570109D01*
X136279788Y-88570106D01*
X136279792Y-88570104D01*
X136430104Y-88419792D01*
X136430106Y-88419788D01*
X136430109Y-88419786D01*
X136555048Y-88247820D01*
X136555047Y-88247820D01*
X136555051Y-88247816D01*
X136651557Y-88058412D01*
X136717246Y-87856243D01*
X136750500Y-87646287D01*
X136750500Y-87433713D01*
X136730627Y-87308239D01*
X136728326Y-87293713D01*
X143399500Y-87293713D01*
X143399500Y-87506286D01*
X143429672Y-87696789D01*
X143432754Y-87716243D01*
X143491417Y-87896789D01*
X143498444Y-87918414D01*
X143594951Y-88107820D01*
X143719890Y-88279786D01*
X143870213Y-88430109D01*
X144042182Y-88555050D01*
X144050946Y-88559516D01*
X144101742Y-88607491D01*
X144118536Y-88675312D01*
X144095998Y-88741447D01*
X144050946Y-88780484D01*
X144042182Y-88784949D01*
X143870213Y-88909890D01*
X143719890Y-89060213D01*
X143594951Y-89232179D01*
X143498444Y-89421585D01*
X143432753Y-89623760D01*
X143407830Y-89781118D01*
X143399500Y-89833713D01*
X143399500Y-90046287D01*
X143405070Y-90081457D01*
X143424955Y-90207006D01*
X143432754Y-90256243D01*
X143483255Y-90411669D01*
X143498444Y-90458414D01*
X143594951Y-90647820D01*
X143719890Y-90819786D01*
X143870213Y-90970109D01*
X144042182Y-91095050D01*
X144050946Y-91099516D01*
X144101742Y-91147491D01*
X144118536Y-91215312D01*
X144095998Y-91281447D01*
X144050946Y-91320484D01*
X144042182Y-91324949D01*
X143870213Y-91449890D01*
X143719890Y-91600213D01*
X143594951Y-91772179D01*
X143498444Y-91961585D01*
X143432753Y-92163760D01*
X143414078Y-92281672D01*
X143399500Y-92373713D01*
X143399500Y-92586287D01*
X143402051Y-92602394D01*
X143432753Y-92796239D01*
X143498444Y-92998414D01*
X143594951Y-93187820D01*
X143719890Y-93359786D01*
X143833430Y-93473326D01*
X143866915Y-93534649D01*
X143861931Y-93604341D01*
X143820059Y-93660274D01*
X143789083Y-93677189D01*
X143657669Y-93726203D01*
X143657664Y-93726206D01*
X143542455Y-93812452D01*
X143542452Y-93812455D01*
X143456206Y-93927664D01*
X143456202Y-93927671D01*
X143405908Y-94062517D01*
X143399501Y-94122116D01*
X143399501Y-94122123D01*
X143399500Y-94122135D01*
X143399500Y-95917870D01*
X143399501Y-95917876D01*
X143405908Y-95977483D01*
X143456202Y-96112328D01*
X143456206Y-96112335D01*
X143542452Y-96227544D01*
X143542455Y-96227547D01*
X143657664Y-96313793D01*
X143657671Y-96313797D01*
X143792517Y-96364091D01*
X143792516Y-96364091D01*
X143799444Y-96364835D01*
X143852127Y-96370500D01*
X145647872Y-96370499D01*
X145707483Y-96364091D01*
X145842331Y-96313796D01*
X145957546Y-96227546D01*
X146043796Y-96112331D01*
X146094091Y-95977483D01*
X146100500Y-95917873D01*
X146100499Y-94122128D01*
X146094091Y-94062517D01*
X146043796Y-93927669D01*
X146043795Y-93927668D01*
X146043793Y-93927664D01*
X145957547Y-93812455D01*
X145957544Y-93812452D01*
X145842335Y-93726206D01*
X145842328Y-93726202D01*
X145710917Y-93677189D01*
X145654983Y-93635318D01*
X145630566Y-93569853D01*
X145645418Y-93501580D01*
X145666563Y-93473332D01*
X145780104Y-93359792D01*
X145905051Y-93187816D01*
X146001557Y-92998412D01*
X146067246Y-92796243D01*
X146100500Y-92586287D01*
X146100500Y-92373713D01*
X146067246Y-92163757D01*
X146001557Y-91961588D01*
X145905051Y-91772184D01*
X145905049Y-91772181D01*
X145905048Y-91772179D01*
X145780109Y-91600213D01*
X145629786Y-91449890D01*
X145457820Y-91324951D01*
X145457115Y-91324591D01*
X145449054Y-91320485D01*
X145398259Y-91272512D01*
X145381463Y-91204692D01*
X145403999Y-91138556D01*
X145449054Y-91099515D01*
X145457816Y-91095051D01*
X145526981Y-91044800D01*
X145629786Y-90970109D01*
X145629788Y-90970106D01*
X145629792Y-90970104D01*
X145780104Y-90819792D01*
X145780106Y-90819788D01*
X145780109Y-90819786D01*
X145905048Y-90647820D01*
X145905047Y-90647820D01*
X145905051Y-90647816D01*
X146001557Y-90458412D01*
X146067246Y-90256243D01*
X146100500Y-90046287D01*
X146100500Y-89833713D01*
X146067246Y-89623757D01*
X146001557Y-89421588D01*
X145905051Y-89232184D01*
X145905049Y-89232181D01*
X145905048Y-89232179D01*
X145780109Y-89060213D01*
X145629786Y-88909890D01*
X145457820Y-88784951D01*
X145457115Y-88784591D01*
X145449054Y-88780485D01*
X145398259Y-88732512D01*
X145381463Y-88664692D01*
X145403999Y-88598556D01*
X145449054Y-88559515D01*
X145457816Y-88555051D01*
X145479789Y-88539086D01*
X145629786Y-88430109D01*
X145629788Y-88430106D01*
X145629792Y-88430104D01*
X145780104Y-88279792D01*
X145780106Y-88279788D01*
X145780109Y-88279786D01*
X145905048Y-88107820D01*
X145905047Y-88107820D01*
X145905051Y-88107816D01*
X146001557Y-87918412D01*
X146067246Y-87716243D01*
X146100500Y-87506287D01*
X146100500Y-87293713D01*
X146067246Y-87083757D01*
X146001557Y-86881588D01*
X145905051Y-86692184D01*
X145905049Y-86692181D01*
X145905048Y-86692179D01*
X145780109Y-86520213D01*
X145629786Y-86369890D01*
X145457820Y-86244951D01*
X145268414Y-86148444D01*
X145268413Y-86148443D01*
X145268412Y-86148443D01*
X145066243Y-86082754D01*
X145066241Y-86082753D01*
X145066240Y-86082753D01*
X144904957Y-86057208D01*
X144856287Y-86049500D01*
X144643713Y-86049500D01*
X144595042Y-86057208D01*
X144433760Y-86082753D01*
X144231585Y-86148444D01*
X144042179Y-86244951D01*
X143870213Y-86369890D01*
X143719890Y-86520213D01*
X143594951Y-86692179D01*
X143498444Y-86881585D01*
X143432753Y-87083760D01*
X143399500Y-87293713D01*
X136728326Y-87293713D01*
X136720373Y-87243501D01*
X136717246Y-87223757D01*
X136651557Y-87021588D01*
X136555051Y-86832184D01*
X136555049Y-86832181D01*
X136555048Y-86832179D01*
X136430109Y-86660213D01*
X136316569Y-86546673D01*
X136283084Y-86485350D01*
X136288068Y-86415658D01*
X136329940Y-86359725D01*
X136360915Y-86342810D01*
X136492331Y-86293796D01*
X136607546Y-86207546D01*
X136693796Y-86092331D01*
X136744091Y-85957483D01*
X136750500Y-85897873D01*
X136750499Y-84102128D01*
X136744091Y-84042517D01*
X136725762Y-83993375D01*
X136693797Y-83907671D01*
X136693793Y-83907664D01*
X136607547Y-83792455D01*
X136607544Y-83792452D01*
X136492335Y-83706206D01*
X136492328Y-83706202D01*
X136357482Y-83655908D01*
X136357483Y-83655908D01*
X136297883Y-83649501D01*
X136297881Y-83649500D01*
X136297873Y-83649500D01*
X136297864Y-83649500D01*
X134502129Y-83649500D01*
X134502123Y-83649501D01*
X134442516Y-83655908D01*
X134307671Y-83706202D01*
X134307664Y-83706206D01*
X134192455Y-83792452D01*
X134142037Y-83859802D01*
X134086103Y-83901672D01*
X134016411Y-83906656D01*
X133964107Y-83881344D01*
X133960288Y-83878210D01*
X133829185Y-83790609D01*
X133829172Y-83790602D01*
X133683501Y-83730264D01*
X133683489Y-83730261D01*
X133528845Y-83699500D01*
X133528842Y-83699500D01*
X133371158Y-83699500D01*
X133371155Y-83699500D01*
X133216510Y-83730261D01*
X133216498Y-83730264D01*
X133070827Y-83790602D01*
X133070814Y-83790609D01*
X132939711Y-83878210D01*
X132939707Y-83878213D01*
X132828213Y-83989707D01*
X132828210Y-83989711D01*
X132740609Y-84120814D01*
X132740602Y-84120827D01*
X132680264Y-84266498D01*
X132680261Y-84266510D01*
X132649500Y-84421153D01*
X128890925Y-84421153D01*
X128981789Y-84330289D01*
X129069394Y-84199179D01*
X129129737Y-84053497D01*
X129160500Y-83898842D01*
X129160500Y-83741158D01*
X129160500Y-83741155D01*
X129160499Y-83741153D01*
X129156647Y-83721786D01*
X129129737Y-83586503D01*
X129085285Y-83479185D01*
X129069397Y-83440827D01*
X129069390Y-83440814D01*
X128981789Y-83309711D01*
X128981786Y-83309707D01*
X128870292Y-83198213D01*
X128870288Y-83198210D01*
X128739185Y-83110609D01*
X128739172Y-83110602D01*
X128593501Y-83050264D01*
X128593489Y-83050261D01*
X128438845Y-83019500D01*
X128438842Y-83019500D01*
X128281158Y-83019500D01*
X128281155Y-83019500D01*
X128126510Y-83050261D01*
X128126498Y-83050264D01*
X127980827Y-83110602D01*
X127980814Y-83110609D01*
X127849711Y-83198210D01*
X127849707Y-83198213D01*
X127738213Y-83309707D01*
X127738210Y-83309711D01*
X127650609Y-83440814D01*
X127650602Y-83440827D01*
X127590264Y-83586498D01*
X127590261Y-83586510D01*
X127559500Y-83741153D01*
X117906309Y-83741153D01*
X117935289Y-83721789D01*
X117957578Y-83699500D01*
X118009694Y-83647385D01*
X118046786Y-83610292D01*
X118046789Y-83610289D01*
X118134394Y-83479179D01*
X118194737Y-83333497D01*
X118225500Y-83178842D01*
X118225500Y-83021158D01*
X118225500Y-83021155D01*
X118225499Y-83021153D01*
X118194738Y-82866510D01*
X118194737Y-82866503D01*
X118194735Y-82866498D01*
X118134397Y-82720827D01*
X118134390Y-82720814D01*
X118046789Y-82589711D01*
X118046786Y-82589707D01*
X117935292Y-82478213D01*
X117935288Y-82478210D01*
X117804185Y-82390609D01*
X117804172Y-82390602D01*
X117658501Y-82330264D01*
X117658489Y-82330261D01*
X117503845Y-82299500D01*
X117503842Y-82299500D01*
X117346158Y-82299500D01*
X117346155Y-82299500D01*
X117191510Y-82330261D01*
X117191498Y-82330264D01*
X117045827Y-82390602D01*
X117045814Y-82390609D01*
X116914711Y-82478210D01*
X116914707Y-82478213D01*
X116803213Y-82589707D01*
X116803210Y-82589711D01*
X116715609Y-82720814D01*
X116715602Y-82720827D01*
X116655264Y-82866498D01*
X116655261Y-82866510D01*
X116624500Y-83021153D01*
X113477300Y-83021153D01*
X113477300Y-77458139D01*
X126687500Y-77458139D01*
X126687500Y-77656860D01*
X126718587Y-77853137D01*
X126779993Y-78042129D01*
X126779994Y-78042132D01*
X126819424Y-78119516D01*
X126870213Y-78219194D01*
X126987019Y-78379964D01*
X127127536Y-78520481D01*
X127288306Y-78637287D01*
X127337220Y-78662210D01*
X127465367Y-78727505D01*
X127465370Y-78727506D01*
X127547872Y-78754312D01*
X127654364Y-78788913D01*
X127850639Y-78820000D01*
X127850640Y-78820000D01*
X128049360Y-78820000D01*
X128049361Y-78820000D01*
X128245636Y-78788913D01*
X128434632Y-78727505D01*
X128611694Y-78637287D01*
X128772464Y-78520481D01*
X128912981Y-78379964D01*
X129029787Y-78219194D01*
X129089515Y-78101970D01*
X129137490Y-78051175D01*
X129205311Y-78034380D01*
X129271445Y-78056917D01*
X129310484Y-78101969D01*
X129370213Y-78219194D01*
X129487019Y-78379964D01*
X129627536Y-78520481D01*
X129788306Y-78637287D01*
X129837220Y-78662210D01*
X129965367Y-78727505D01*
X129965370Y-78727506D01*
X130047872Y-78754312D01*
X130154364Y-78788913D01*
X130350639Y-78820000D01*
X130350640Y-78820000D01*
X130549360Y-78820000D01*
X130549361Y-78820000D01*
X130745636Y-78788913D01*
X130934632Y-78727505D01*
X131111694Y-78637287D01*
X131272464Y-78520481D01*
X131362319Y-78430626D01*
X131423642Y-78397141D01*
X131493334Y-78402125D01*
X131537681Y-78430626D01*
X131627536Y-78520481D01*
X131788306Y-78637287D01*
X131837220Y-78662210D01*
X131965367Y-78727505D01*
X131965370Y-78727506D01*
X132047872Y-78754312D01*
X132154364Y-78788913D01*
X132350639Y-78820000D01*
X132350640Y-78820000D01*
X132549360Y-78820000D01*
X132549361Y-78820000D01*
X132745636Y-78788913D01*
X132934632Y-78727505D01*
X133111694Y-78637287D01*
X133272464Y-78520481D01*
X133412981Y-78379964D01*
X133502583Y-78256636D01*
X133557913Y-78213971D01*
X133627526Y-78207992D01*
X133689321Y-78240598D01*
X133720606Y-78290516D01*
X133753186Y-78388834D01*
X133845288Y-78538156D01*
X133969344Y-78662212D01*
X134118666Y-78754314D01*
X134285203Y-78809499D01*
X134387991Y-78820000D01*
X135512008Y-78819999D01*
X135614797Y-78809499D01*
X135781334Y-78754314D01*
X135930656Y-78662212D01*
X136054712Y-78538156D01*
X136146814Y-78388834D01*
X136201999Y-78222297D01*
X136212500Y-78119509D01*
X136212499Y-77142135D01*
X143574500Y-77142135D01*
X143574500Y-78937870D01*
X143574501Y-78937876D01*
X143580908Y-78997483D01*
X143631202Y-79132328D01*
X143631206Y-79132335D01*
X143717452Y-79247544D01*
X143717455Y-79247547D01*
X143832664Y-79333793D01*
X143832671Y-79333797D01*
X143964082Y-79382810D01*
X144020016Y-79424681D01*
X144044433Y-79490145D01*
X144029582Y-79558418D01*
X144008431Y-79586673D01*
X143894889Y-79700215D01*
X143769951Y-79872179D01*
X143673444Y-80061585D01*
X143607753Y-80263760D01*
X143574500Y-80473713D01*
X143574500Y-80686286D01*
X143607753Y-80896239D01*
X143673444Y-81098414D01*
X143769951Y-81287820D01*
X143894890Y-81459786D01*
X144045213Y-81610109D01*
X144217179Y-81735048D01*
X144217181Y-81735049D01*
X144217184Y-81735051D01*
X144406588Y-81831557D01*
X144608757Y-81897246D01*
X144818713Y-81930500D01*
X144818714Y-81930500D01*
X145031286Y-81930500D01*
X145031287Y-81930500D01*
X145241243Y-81897246D01*
X145443412Y-81831557D01*
X145632816Y-81735051D01*
X145654789Y-81719086D01*
X145804786Y-81610109D01*
X145804788Y-81610106D01*
X145804792Y-81610104D01*
X145955104Y-81459792D01*
X145955106Y-81459788D01*
X145955109Y-81459786D01*
X146080048Y-81287820D01*
X146080047Y-81287820D01*
X146080051Y-81287816D01*
X146176557Y-81098412D01*
X146242246Y-80896243D01*
X146275500Y-80686287D01*
X146275500Y-80473713D01*
X146242246Y-80263757D01*
X146176557Y-80061588D01*
X146080051Y-79872184D01*
X146080049Y-79872181D01*
X146080048Y-79872179D01*
X145955109Y-79700213D01*
X145841569Y-79586673D01*
X145808084Y-79525350D01*
X145813068Y-79455658D01*
X145854940Y-79399725D01*
X145885915Y-79382810D01*
X146017331Y-79333796D01*
X146132546Y-79247546D01*
X146218796Y-79132331D01*
X146269091Y-78997483D01*
X146275500Y-78937873D01*
X146275499Y-77142128D01*
X146269091Y-77082517D01*
X146265492Y-77072868D01*
X146218797Y-76947671D01*
X146218793Y-76947664D01*
X146132547Y-76832455D01*
X146132544Y-76832452D01*
X146017335Y-76746206D01*
X146017328Y-76746202D01*
X145882482Y-76695908D01*
X145882483Y-76695908D01*
X145822883Y-76689501D01*
X145822881Y-76689500D01*
X145822873Y-76689500D01*
X145822864Y-76689500D01*
X144027129Y-76689500D01*
X144027123Y-76689501D01*
X143967516Y-76695908D01*
X143832671Y-76746202D01*
X143832664Y-76746206D01*
X143717455Y-76832452D01*
X143717452Y-76832455D01*
X143631206Y-76947664D01*
X143631202Y-76947671D01*
X143580908Y-77082517D01*
X143579244Y-77097999D01*
X143574501Y-77142123D01*
X143574500Y-77142135D01*
X136212499Y-77142135D01*
X136212499Y-76995492D01*
X136201999Y-76892703D01*
X136146814Y-76726166D01*
X136054712Y-76576844D01*
X135930656Y-76452788D01*
X135781334Y-76360686D01*
X135614797Y-76305501D01*
X135614795Y-76305500D01*
X135512010Y-76295000D01*
X134387998Y-76295000D01*
X134387981Y-76295001D01*
X134285203Y-76305500D01*
X134285200Y-76305501D01*
X134118668Y-76360685D01*
X134118663Y-76360687D01*
X133969342Y-76452789D01*
X133845289Y-76576842D01*
X133753187Y-76726163D01*
X133753186Y-76726166D01*
X133720607Y-76824482D01*
X133680834Y-76881927D01*
X133616317Y-76908749D01*
X133547542Y-76896434D01*
X133502583Y-76858363D01*
X133483759Y-76832454D01*
X133412981Y-76735036D01*
X133272464Y-76594519D01*
X133111694Y-76477713D01*
X132934632Y-76387494D01*
X132934629Y-76387493D01*
X132745637Y-76326087D01*
X132647498Y-76310543D01*
X132549361Y-76295000D01*
X132350639Y-76295000D01*
X132285214Y-76305362D01*
X132154362Y-76326087D01*
X131965370Y-76387493D01*
X131965367Y-76387494D01*
X131788305Y-76477713D01*
X131627533Y-76594521D01*
X131537681Y-76684374D01*
X131476358Y-76717859D01*
X131406666Y-76712875D01*
X131362319Y-76684374D01*
X131272466Y-76594521D01*
X131272464Y-76594519D01*
X131111694Y-76477713D01*
X130934632Y-76387494D01*
X130934629Y-76387493D01*
X130745637Y-76326087D01*
X130647498Y-76310543D01*
X130549361Y-76295000D01*
X130350639Y-76295000D01*
X130285214Y-76305362D01*
X130154362Y-76326087D01*
X129965370Y-76387493D01*
X129965367Y-76387494D01*
X129788305Y-76477713D01*
X129627533Y-76594521D01*
X129487021Y-76735033D01*
X129370213Y-76895805D01*
X129310485Y-77013028D01*
X129262510Y-77063824D01*
X129194689Y-77080619D01*
X129128554Y-77058081D01*
X129089515Y-77013028D01*
X129074284Y-76983135D01*
X129029787Y-76895806D01*
X128912981Y-76735036D01*
X128772464Y-76594519D01*
X128611694Y-76477713D01*
X128434632Y-76387494D01*
X128434629Y-76387493D01*
X128245637Y-76326087D01*
X128147498Y-76310543D01*
X128049361Y-76295000D01*
X127850639Y-76295000D01*
X127785214Y-76305362D01*
X127654362Y-76326087D01*
X127465370Y-76387493D01*
X127465367Y-76387494D01*
X127288305Y-76477713D01*
X127127533Y-76594521D01*
X126987021Y-76735033D01*
X126870213Y-76895805D01*
X126779994Y-77072867D01*
X126779993Y-77072870D01*
X126718587Y-77261862D01*
X126687500Y-77458139D01*
X113477300Y-77458139D01*
X113477300Y-74296153D01*
X118674500Y-74296153D01*
X118674500Y-74453846D01*
X118705261Y-74608489D01*
X118705264Y-74608501D01*
X118765602Y-74754172D01*
X118765609Y-74754185D01*
X118853210Y-74885288D01*
X118853213Y-74885292D01*
X118964707Y-74996786D01*
X118964711Y-74996789D01*
X119095814Y-75084390D01*
X119095827Y-75084397D01*
X119241498Y-75144735D01*
X119241503Y-75144737D01*
X119396153Y-75175499D01*
X119396156Y-75175500D01*
X119396158Y-75175500D01*
X119553844Y-75175500D01*
X119553845Y-75175499D01*
X119708497Y-75144737D01*
X119854179Y-75084394D01*
X119985289Y-74996789D01*
X120096789Y-74885289D01*
X120184394Y-74754179D01*
X120206838Y-74699994D01*
X120206841Y-74699986D01*
X122629500Y-74699986D01*
X122629500Y-74995013D01*
X122661571Y-75238613D01*
X122668007Y-75287493D01*
X122668008Y-75287495D01*
X122744361Y-75572451D01*
X122744364Y-75572461D01*
X122857254Y-75845000D01*
X122857258Y-75845010D01*
X123004761Y-76100493D01*
X123184352Y-76334540D01*
X123184358Y-76334547D01*
X123392952Y-76543141D01*
X123392959Y-76543147D01*
X123627006Y-76722738D01*
X123882489Y-76870241D01*
X123882490Y-76870241D01*
X123882493Y-76870243D01*
X124155048Y-76983139D01*
X124440007Y-77059493D01*
X124732494Y-77098000D01*
X124732501Y-77098000D01*
X125027499Y-77098000D01*
X125027506Y-77098000D01*
X125319993Y-77059493D01*
X125604952Y-76983139D01*
X125877507Y-76870243D01*
X126132994Y-76722738D01*
X126367042Y-76543146D01*
X126575646Y-76334542D01*
X126755238Y-76100494D01*
X126902743Y-75845007D01*
X127015639Y-75572452D01*
X127091993Y-75287493D01*
X127130500Y-74995006D01*
X127130500Y-74699994D01*
X127130499Y-74699986D01*
X135769500Y-74699986D01*
X135769500Y-74995013D01*
X135801571Y-75238613D01*
X135808007Y-75287493D01*
X135808008Y-75287495D01*
X135884361Y-75572451D01*
X135884364Y-75572461D01*
X135997254Y-75845000D01*
X135997258Y-75845010D01*
X136144761Y-76100493D01*
X136324352Y-76334540D01*
X136324358Y-76334547D01*
X136532952Y-76543141D01*
X136532959Y-76543147D01*
X136767006Y-76722738D01*
X137022489Y-76870241D01*
X137022490Y-76870241D01*
X137022493Y-76870243D01*
X137295048Y-76983139D01*
X137580007Y-77059493D01*
X137872494Y-77098000D01*
X137872501Y-77098000D01*
X138167499Y-77098000D01*
X138167506Y-77098000D01*
X138459993Y-77059493D01*
X138744952Y-76983139D01*
X139017507Y-76870243D01*
X139272994Y-76722738D01*
X139507042Y-76543146D01*
X139715646Y-76334542D01*
X139895238Y-76100494D01*
X140042743Y-75845007D01*
X140155639Y-75572452D01*
X140231993Y-75287493D01*
X140270500Y-74995006D01*
X140270500Y-74699994D01*
X140231993Y-74407507D01*
X140155639Y-74122548D01*
X140042743Y-73849993D01*
X139986865Y-73753210D01*
X139895238Y-73594506D01*
X139715647Y-73360459D01*
X139715641Y-73360452D01*
X139507047Y-73151858D01*
X139507040Y-73151852D01*
X139272993Y-72972261D01*
X139017510Y-72824758D01*
X139017500Y-72824754D01*
X138744961Y-72711864D01*
X138744954Y-72711862D01*
X138744952Y-72711861D01*
X138459993Y-72635507D01*
X138411113Y-72629071D01*
X138167513Y-72597000D01*
X138167506Y-72597000D01*
X137872494Y-72597000D01*
X137872486Y-72597000D01*
X137594085Y-72633653D01*
X137580007Y-72635507D01*
X137295048Y-72711861D01*
X137295038Y-72711864D01*
X137022499Y-72824754D01*
X137022489Y-72824758D01*
X136767006Y-72972261D01*
X136532959Y-73151852D01*
X136532952Y-73151858D01*
X136324358Y-73360452D01*
X136324352Y-73360459D01*
X136144761Y-73594506D01*
X135997258Y-73849989D01*
X135997254Y-73849999D01*
X135884364Y-74122538D01*
X135884361Y-74122548D01*
X135837844Y-74296155D01*
X135808008Y-74407504D01*
X135808006Y-74407515D01*
X135769500Y-74699986D01*
X127130499Y-74699986D01*
X127091993Y-74407507D01*
X127015639Y-74122548D01*
X126902743Y-73849993D01*
X126846865Y-73753210D01*
X126755238Y-73594506D01*
X126575647Y-73360459D01*
X126575641Y-73360452D01*
X126367047Y-73151858D01*
X126367040Y-73151852D01*
X126132993Y-72972261D01*
X125877510Y-72824758D01*
X125877500Y-72824754D01*
X125604961Y-72711864D01*
X125604954Y-72711862D01*
X125604952Y-72711861D01*
X125319993Y-72635507D01*
X125271113Y-72629071D01*
X125027513Y-72597000D01*
X125027506Y-72597000D01*
X124732494Y-72597000D01*
X124732486Y-72597000D01*
X124454085Y-72633653D01*
X124440007Y-72635507D01*
X124155048Y-72711861D01*
X124155038Y-72711864D01*
X123882499Y-72824754D01*
X123882489Y-72824758D01*
X123627006Y-72972261D01*
X123392959Y-73151852D01*
X123392952Y-73151858D01*
X123184358Y-73360452D01*
X123184352Y-73360459D01*
X123004761Y-73594506D01*
X122857258Y-73849989D01*
X122857254Y-73849999D01*
X122744364Y-74122538D01*
X122744361Y-74122548D01*
X122697844Y-74296155D01*
X122668008Y-74407504D01*
X122668006Y-74407515D01*
X122629500Y-74699986D01*
X120206841Y-74699986D01*
X120228172Y-74648490D01*
X120228174Y-74648483D01*
X120244737Y-74608497D01*
X120275500Y-74453842D01*
X120275500Y-74296158D01*
X120275500Y-74296155D01*
X120275499Y-74296153D01*
X120244738Y-74141510D01*
X120244737Y-74141503D01*
X120236886Y-74122548D01*
X120184397Y-73995827D01*
X120184390Y-73995814D01*
X120096789Y-73864711D01*
X120096786Y-73864707D01*
X119985292Y-73753213D01*
X119985288Y-73753210D01*
X119854185Y-73665609D01*
X119854172Y-73665602D01*
X119708501Y-73605264D01*
X119708489Y-73605261D01*
X119553845Y-73574500D01*
X119553842Y-73574500D01*
X119396158Y-73574500D01*
X119396155Y-73574500D01*
X119241510Y-73605261D01*
X119241498Y-73605264D01*
X119095827Y-73665602D01*
X119095814Y-73665609D01*
X118964711Y-73753210D01*
X118964707Y-73753213D01*
X118853213Y-73864707D01*
X118853210Y-73864711D01*
X118765609Y-73995814D01*
X118765602Y-73995827D01*
X118705264Y-74141498D01*
X118705261Y-74141510D01*
X118674500Y-74296153D01*
X113477300Y-74296153D01*
X113477300Y-71419900D01*
X113496985Y-71352861D01*
X113549789Y-71307106D01*
X113601300Y-71295900D01*
X148918700Y-71295900D01*
X148985739Y-71315585D01*
G37*
%TD.AperFunction*%
%TD*%
M02*
